<?xml version="1.0" encoding="UTF-8" standalone="no"?>
<!DOCTYPE svg PUBLIC "-//W3C//DTD SVG 1.1//EN"
 "http://www.w3.org/Graphics/SVG/1.1/DTD/svg11.dtd">


<svg width="1533pt" height="481pt"
 viewBox="0.00 0.00 1533.00 481.00" xmlns="http://www.w3.org/2000/svg" xmlns:xlink="http://www.w3.org/1999/xlink">
<g id="graph0" class="graph" transform="scale(1 1) rotate(0) translate(4 477)">
<title>structs</title>
<polygon fill="#ffffff" stroke="transparent" points="-4,4 -4,-477 1529,-477 1529,4 -4,4"/>

<g id="node1" class="node">
<title>A</title>
<polygon fill="none" stroke="#000000" points="0,-198.5 0,-267.5 83,-267.5 83,-198.5 0,-198.5"/>
<text text-anchor="middle" x="15" y="-252.3" font-family="Times,serif" font-size="14.00" fill="#000000">A</text>
<polyline fill="none" stroke="#000000" points="0,-244.5 30,-244.5 "/>
<text text-anchor="middle" x="15" y="-229.3" font-family="Times,serif" font-size="14.00" fill="#000000">10</text>
<polyline fill="none" stroke="#000000" points="30,-221.5 30,-267.5 "/>
<text text-anchor="middle" x="41.5" y="-252.3" font-family="Times,serif" font-size="14.00" fill="#000000">0</text>
<polyline fill="none" stroke="#000000" points="30,-244.5 53,-244.5 "/>
<text text-anchor="middle" x="41.5" y="-229.3" font-family="Times,serif" font-size="14.00" fill="#000000">4</text>
<polyline fill="none" stroke="#000000" points="53,-221.5 53,-267.5 "/>
<text text-anchor="middle" x="68" y="-252.3" font-family="Times,serif" font-size="14.00" fill="#000000">10</text>
<polyline fill="none" stroke="#000000" points="53,-244.5 83,-244.5 "/>
<text text-anchor="middle" x="68" y="-229.3" font-family="Times,serif" font-size="14.00" fill="#000000">14</text>
<polyline fill="none" stroke="#000000" points="0,-221.5 83,-221.5 "/>
<text text-anchor="middle" x="41.5" y="-206.3" font-family="Times,serif" font-size="14.00" fill="#000000">slack: 4</text>
</g>

<g id="node3" class="node">
<title>C</title>
<polygon fill="#cd5c5c" stroke="#000000" points="119,-198.5 119,-267.5 205,-267.5 205,-198.5 119,-198.5"/>
<text text-anchor="middle" x="132" y="-252.3" font-family="Times,serif" font-size="14.00" fill="#000000">C</text>
<polyline fill="none" stroke="#000000" points="119,-244.5 145,-244.5 "/>
<text text-anchor="middle" x="132" y="-229.3" font-family="Times,serif" font-size="14.00" fill="#000000">4</text>
<polyline fill="none" stroke="#000000" points="145,-221.5 145,-267.5 "/>
<text text-anchor="middle" x="160" y="-252.3" font-family="Times,serif" font-size="14.00" fill="#000000">14</text>
<polyline fill="none" stroke="#000000" points="145,-244.5 175,-244.5 "/>
<text text-anchor="middle" x="160" y="-229.3" font-family="Times,serif" font-size="14.00" fill="#000000">14</text>
<polyline fill="none" stroke="#000000" points="175,-221.5 175,-267.5 "/>
<text text-anchor="middle" x="190" y="-252.3" font-family="Times,serif" font-size="14.00" fill="#000000">18</text>
<polyline fill="none" stroke="#000000" points="175,-244.5 205,-244.5 "/>
<text text-anchor="middle" x="190" y="-229.3" font-family="Times,serif" font-size="14.00" fill="#000000">18</text>
<polyline fill="none" stroke="#000000" points="119,-221.5 205,-221.5 "/>
<text text-anchor="middle" x="162" y="-206.3" font-family="Times,serif" font-size="14.00" fill="#000000">slack: 0</text>
</g>

<g id="edge1" class="edge">
<title>A&#45;&gt;C</title>
<path fill="none" stroke="#000000" d="M83.3069,-233C91.4257,-233 100.0389,-233 108.4741,-233"/>
<polygon fill="#000000" stroke="#000000" points="108.6298,-236.5001 118.6297,-233 108.6297,-229.5001 108.6298,-236.5001"/>
</g>

<g id="node2" class="node">
<title>B</title>
<polygon fill="#cd5c5c" stroke="#000000" points="0,-292.5 0,-361.5 83,-361.5 83,-292.5 0,-292.5"/>
<text text-anchor="middle" x="15" y="-346.3" font-family="Times,serif" font-size="14.00" fill="#000000">B</text>
<polyline fill="none" stroke="#000000" points="0,-338.5 30,-338.5 "/>
<text text-anchor="middle" x="15" y="-323.3" font-family="Times,serif" font-size="14.00" fill="#000000">14</text>
<polyline fill="none" stroke="#000000" points="30,-315.5 30,-361.5 "/>
<text text-anchor="middle" x="41.5" y="-346.3" font-family="Times,serif" font-size="14.00" fill="#000000">0</text>
<polyline fill="none" stroke="#000000" points="30,-338.5 53,-338.5 "/>
<text text-anchor="middle" x="41.5" y="-323.3" font-family="Times,serif" font-size="14.00" fill="#000000">0</text>
<polyline fill="none" stroke="#000000" points="53,-315.5 53,-361.5 "/>
<text text-anchor="middle" x="68" y="-346.3" font-family="Times,serif" font-size="14.00" fill="#000000">14</text>
<polyline fill="none" stroke="#000000" points="53,-338.5 83,-338.5 "/>
<text text-anchor="middle" x="68" y="-323.3" font-family="Times,serif" font-size="14.00" fill="#000000">14</text>
<polyline fill="none" stroke="#000000" points="0,-315.5 83,-315.5 "/>
<text text-anchor="middle" x="41.5" y="-300.3" font-family="Times,serif" font-size="14.00" fill="#000000">slack: 0</text>
</g>

<g id="edge2" class="edge">
<title>B&#45;&gt;C</title>
<path fill="none" stroke="#000000" d="M83.3069,-294.3872C92.1394,-287.4971 101.5571,-280.1504 110.6942,-273.0228"/>
<polygon fill="#000000" stroke="#000000" points="112.8978,-275.7428 118.6297,-266.8324 108.5923,-270.2235 112.8978,-275.7428"/>
</g>

<g id="node5" class="node">
<title>E</title>
<polygon fill="none" stroke="#000000" points="369.5,-337.5 369.5,-406.5 454.5,-406.5 454.5,-337.5 369.5,-337.5"/>
<text text-anchor="middle" x="382" y="-391.3" font-family="Times,serif" font-size="14.00" fill="#000000">E</text>
<polyline fill="none" stroke="#000000" points="369.5,-383.5 394.5,-383.5 "/>
<text text-anchor="middle" x="382" y="-368.3" font-family="Times,serif" font-size="14.00" fill="#000000">1</text>
<polyline fill="none" stroke="#000000" points="394.5,-360.5 394.5,-406.5 "/>
<text text-anchor="middle" x="409.5" y="-391.3" font-family="Times,serif" font-size="14.00" fill="#000000">44</text>
<polyline fill="none" stroke="#000000" points="394.5,-383.5 424.5,-383.5 "/>
<text text-anchor="middle" x="409.5" y="-368.3" font-family="Times,serif" font-size="14.00" fill="#000000">51</text>
<polyline fill="none" stroke="#000000" points="424.5,-360.5 424.5,-406.5 "/>
<text text-anchor="middle" x="439.5" y="-391.3" font-family="Times,serif" font-size="14.00" fill="#000000">45</text>
<polyline fill="none" stroke="#000000" points="424.5,-383.5 454.5,-383.5 "/>
<text text-anchor="middle" x="439.5" y="-368.3" font-family="Times,serif" font-size="14.00" fill="#000000">52</text>
<polyline fill="none" stroke="#000000" points="369.5,-360.5 454.5,-360.5 "/>
<text text-anchor="middle" x="412" y="-345.3" font-family="Times,serif" font-size="14.00" fill="#000000">slack: 7</text>
</g>

<g id="edge4" class="edge">
<title>B&#45;&gt;E</title>
<path fill="none" stroke="#000000" d="M83.2809,-332.0746C151.061,-340.307 284.8656,-356.5586 359.157,-365.5818"/>
<polygon fill="#000000" stroke="#000000" points="358.8828,-369.0742 369.2318,-366.8055 359.7268,-362.1252 358.8828,-369.0742"/>
</g>

<g id="node4" class="node">
<title>D</title>
<polygon fill="#cd5c5c" stroke="#000000" points="241,-195.5 241,-264.5 331,-264.5 331,-195.5 241,-195.5"/>
<text text-anchor="middle" x="256" y="-249.3" font-family="Times,serif" font-size="14.00" fill="#000000">D</text>
<polyline fill="none" stroke="#000000" points="241,-241.5 271,-241.5 "/>
<text text-anchor="middle" x="256" y="-226.3" font-family="Times,serif" font-size="14.00" fill="#000000">26</text>
<polyline fill="none" stroke="#000000" points="271,-218.5 271,-264.5 "/>
<text text-anchor="middle" x="286" y="-249.3" font-family="Times,serif" font-size="14.00" fill="#000000">18</text>
<polyline fill="none" stroke="#000000" points="271,-241.5 301,-241.5 "/>
<text text-anchor="middle" x="286" y="-226.3" font-family="Times,serif" font-size="14.00" fill="#000000">18</text>
<polyline fill="none" stroke="#000000" points="301,-218.5 301,-264.5 "/>
<text text-anchor="middle" x="316" y="-249.3" font-family="Times,serif" font-size="14.00" fill="#000000">44</text>
<polyline fill="none" stroke="#000000" points="301,-241.5 331,-241.5 "/>
<text text-anchor="middle" x="316" y="-226.3" font-family="Times,serif" font-size="14.00" fill="#000000">44</text>
<polyline fill="none" stroke="#000000" points="241,-218.5 331,-218.5 "/>
<text text-anchor="middle" x="286" y="-203.3" font-family="Times,serif" font-size="14.00" fill="#000000">slack: 0</text>
</g>

<g id="edge3" class="edge">
<title>C&#45;&gt;D</title>
<path fill="none" stroke="#000000" d="M205.0212,-231.9592C213.367,-231.7572 222.2207,-231.543 230.8922,-231.3333"/>
<polygon fill="#000000" stroke="#000000" points="231.0344,-234.8309 240.9468,-231.09 230.8651,-227.833 231.0344,-234.8309"/>
</g>

<g id="edge5" class="edge">
<title>D&#45;&gt;E</title>
<path fill="none" stroke="#000000" d="M315.7895,-264.6388C331.003,-282.2173 349.8714,-303.8488 367,-323 368.949,-325.1792 370.9526,-327.4064 372.9808,-329.651"/>
<polygon fill="#000000" stroke="#000000" points="370.6155,-332.2527 379.9285,-337.3044 375.7984,-327.5477 370.6155,-332.2527"/>
</g>

<g id="node6" class="node">
<title>F</title>
<polygon fill="none" stroke="#000000" points="886.5,-403.5 886.5,-472.5 983.5,-472.5 983.5,-403.5 886.5,-403.5"/>
<text text-anchor="middle" x="901.5" y="-457.3" font-family="Times,serif" font-size="14.00" fill="#000000">F</text>
<polyline fill="none" stroke="#000000" points="886.5,-449.5 916.5,-449.5 "/>
<text text-anchor="middle" x="901.5" y="-434.3" font-family="Times,serif" font-size="14.00" fill="#000000">20</text>
<polyline fill="none" stroke="#000000" points="916.5,-426.5 916.5,-472.5 "/>
<text text-anchor="middle" x="931.5" y="-457.3" font-family="Times,serif" font-size="14.00" fill="#000000">90</text>
<polyline fill="none" stroke="#000000" points="916.5,-449.5 946.5,-449.5 "/>
<text text-anchor="middle" x="931.5" y="-434.3" font-family="Times,serif" font-size="14.00" fill="#000000">97</text>
<polyline fill="none" stroke="#000000" points="946.5,-426.5 946.5,-472.5 "/>
<text text-anchor="middle" x="965" y="-457.3" font-family="Times,serif" font-size="14.00" fill="#000000">110</text>
<polyline fill="none" stroke="#000000" points="946.5,-449.5 983.5,-449.5 "/>
<text text-anchor="middle" x="965" y="-434.3" font-family="Times,serif" font-size="14.00" fill="#000000">117</text>
<polyline fill="none" stroke="#000000" points="886.5,-426.5 983.5,-426.5 "/>
<text text-anchor="middle" x="935" y="-411.3" font-family="Times,serif" font-size="14.00" fill="#000000">slack: 7</text>
</g>

<g id="edge6" class="edge">
<title>D&#45;&gt;F</title>
<path fill="none" stroke="#000000" d="M331.3384,-255.9024C420.2265,-306.5876 610.1591,-414.3697 626,-419 710.4194,-443.676 813.1716,-444.5687 876.3253,-442.0009"/>
<polygon fill="#000000" stroke="#000000" points="876.6619,-445.4894 886.4945,-441.5434 876.3473,-438.4965 876.6619,-445.4894"/>
</g>

<g id="node7" class="node">
<title>G</title>
<polygon fill="#cd5c5c" stroke="#000000" points="367,-88.5 367,-157.5 457,-157.5 457,-88.5 367,-88.5"/>
<text text-anchor="middle" x="382" y="-142.3" font-family="Times,serif" font-size="14.00" fill="#000000">G</text>
<polyline fill="none" stroke="#000000" points="367,-134.5 397,-134.5 "/>
<text text-anchor="middle" x="382" y="-119.3" font-family="Times,serif" font-size="14.00" fill="#000000">20</text>
<polyline fill="none" stroke="#000000" points="397,-111.5 397,-157.5 "/>
<text text-anchor="middle" x="412" y="-142.3" font-family="Times,serif" font-size="14.00" fill="#000000">44</text>
<polyline fill="none" stroke="#000000" points="397,-134.5 427,-134.5 "/>
<text text-anchor="middle" x="412" y="-119.3" font-family="Times,serif" font-size="14.00" fill="#000000">44</text>
<polyline fill="none" stroke="#000000" points="427,-111.5 427,-157.5 "/>
<text text-anchor="middle" x="442" y="-142.3" font-family="Times,serif" font-size="14.00" fill="#000000">64</text>
<polyline fill="none" stroke="#000000" points="427,-134.5 457,-134.5 "/>
<text text-anchor="middle" x="442" y="-119.3" font-family="Times,serif" font-size="14.00" fill="#000000">64</text>
<polyline fill="none" stroke="#000000" points="367,-111.5 457,-111.5 "/>
<text text-anchor="middle" x="412" y="-96.3" font-family="Times,serif" font-size="14.00" fill="#000000">slack: 0</text>
</g>

<g id="edge9" class="edge">
<title>D&#45;&gt;G</title>
<path fill="none" stroke="#000000" d="M326.9086,-195.2602C338.5799,-185.3488 351.4094,-174.454 363.4877,-164.197"/>
<polygon fill="#000000" stroke="#000000" points="365.9398,-166.7064 371.2967,-157.5655 361.4087,-161.3707 365.9398,-166.7064"/>
</g>

<g id="node9" class="node">
<title>I</title>
<polygon fill="none" stroke="#000000" points="493,-.5 493,-69.5 590,-69.5 590,-.5 493,-.5"/>
<text text-anchor="middle" x="508" y="-54.3" font-family="Times,serif" font-size="14.00" fill="#000000">I</text>
<polyline fill="none" stroke="#000000" points="493,-46.5 523,-46.5 "/>
<text text-anchor="middle" x="508" y="-31.3" font-family="Times,serif" font-size="14.00" fill="#000000">18</text>
<polyline fill="none" stroke="#000000" points="523,-23.5 523,-69.5 "/>
<text text-anchor="middle" x="538" y="-54.3" font-family="Times,serif" font-size="14.00" fill="#000000">44</text>
<polyline fill="none" stroke="#000000" points="523,-46.5 553,-46.5 "/>
<text text-anchor="middle" x="538" y="-31.3" font-family="Times,serif" font-size="14.00" fill="#000000">91</text>
<polyline fill="none" stroke="#000000" points="553,-23.5 553,-69.5 "/>
<text text-anchor="middle" x="571.5" y="-54.3" font-family="Times,serif" font-size="14.00" fill="#000000">62</text>
<polyline fill="none" stroke="#000000" points="553,-46.5 590,-46.5 "/>
<text text-anchor="middle" x="571.5" y="-31.3" font-family="Times,serif" font-size="14.00" fill="#000000">109</text>
<polyline fill="none" stroke="#000000" points="493,-23.5 590,-23.5 "/>
<text text-anchor="middle" x="541.5" y="-8.3" font-family="Times,serif" font-size="14.00" fill="#000000">slack: 47</text>
</g>

<g id="edge11" class="edge">
<title>D&#45;&gt;I</title>
<path fill="none" stroke="#000000" d="M295.5862,-195.2247C306.9397,-160.595 329.2428,-108.4684 367,-79 399.9819,-53.2586 446.2056,-42.4079 482.7934,-37.913"/>
<polygon fill="#000000" stroke="#000000" points="483.2819,-41.3805 492.8386,-36.8067 482.5155,-34.4226 483.2819,-41.3805"/>
</g>

<g id="node18" class="node">
<title>R</title>
<polygon fill="none" stroke="#000000" points="885,-214.5 885,-283.5 985,-283.5 985,-214.5 885,-214.5"/>
<text text-anchor="middle" x="898" y="-268.3" font-family="Times,serif" font-size="14.00" fill="#000000">R</text>
<polyline fill="none" stroke="#000000" points="885,-260.5 911,-260.5 "/>
<text text-anchor="middle" x="898" y="-245.3" font-family="Times,serif" font-size="14.00" fill="#000000">3</text>
<polyline fill="none" stroke="#000000" points="911,-237.5 911,-283.5 "/>
<text text-anchor="middle" x="929.5" y="-268.3" font-family="Times,serif" font-size="14.00" fill="#000000">90</text>
<polyline fill="none" stroke="#000000" points="911,-260.5 948,-260.5 "/>
<text text-anchor="middle" x="929.5" y="-245.3" font-family="Times,serif" font-size="14.00" fill="#000000">100</text>
<polyline fill="none" stroke="#000000" points="948,-237.5 948,-283.5 "/>
<text text-anchor="middle" x="966.5" y="-268.3" font-family="Times,serif" font-size="14.00" fill="#000000">93</text>
<polyline fill="none" stroke="#000000" points="948,-260.5 985,-260.5 "/>
<text text-anchor="middle" x="966.5" y="-245.3" font-family="Times,serif" font-size="14.00" fill="#000000">103</text>
<polyline fill="none" stroke="#000000" points="885,-237.5 985,-237.5 "/>
<text text-anchor="middle" x="935" y="-222.3" font-family="Times,serif" font-size="14.00" fill="#000000">slack: 10</text>
</g>

<g id="edge22" class="edge">
<title>D&#45;&gt;R</title>
<path fill="none" stroke="#000000" d="M331.2873,-217.3914C382.0473,-204.3895 467.0075,-186 541.5,-186 541.5,-186 541.5,-186 674.5,-186 752.5139,-186 774.2588,-182.6408 849,-205 857.8498,-207.6474 866.8724,-211.1924 875.5838,-215.1262"/>
<polygon fill="#000000" stroke="#000000" points="874.3546,-218.4164 884.8915,-219.5232 877.3447,-212.0871 874.3546,-218.4164"/>
</g>

<g id="node11" class="node">
<title>K</title>
<polygon fill="none" stroke="#000000" points="496.5,-252.5 496.5,-321.5 586.5,-321.5 586.5,-252.5 496.5,-252.5"/>
<text text-anchor="middle" x="511.5" y="-306.3" font-family="Times,serif" font-size="14.00" fill="#000000">K</text>
<polyline fill="none" stroke="#000000" points="496.5,-298.5 526.5,-298.5 "/>
<text text-anchor="middle" x="511.5" y="-283.3" font-family="Times,serif" font-size="14.00" fill="#000000">10</text>
<polyline fill="none" stroke="#000000" points="526.5,-275.5 526.5,-321.5 "/>
<text text-anchor="middle" x="541.5" y="-306.3" font-family="Times,serif" font-size="14.00" fill="#000000">45</text>
<polyline fill="none" stroke="#000000" points="526.5,-298.5 556.5,-298.5 "/>
<text text-anchor="middle" x="541.5" y="-283.3" font-family="Times,serif" font-size="14.00" fill="#000000">52</text>
<polyline fill="none" stroke="#000000" points="556.5,-275.5 556.5,-321.5 "/>
<text text-anchor="middle" x="571.5" y="-306.3" font-family="Times,serif" font-size="14.00" fill="#000000">55</text>
<polyline fill="none" stroke="#000000" points="556.5,-298.5 586.5,-298.5 "/>
<text text-anchor="middle" x="571.5" y="-283.3" font-family="Times,serif" font-size="14.00" fill="#000000">62</text>
<polyline fill="none" stroke="#000000" points="496.5,-275.5 586.5,-275.5 "/>
<text text-anchor="middle" x="541.5" y="-260.3" font-family="Times,serif" font-size="14.00" fill="#000000">slack: 7</text>
</g>

<g id="edge14" class="edge">
<title>E&#45;&gt;K</title>
<path fill="none" stroke="#000000" d="M454.762,-343.9323C465.2259,-337.0641 476.5591,-329.6253 487.474,-322.461"/>
<polygon fill="#000000" stroke="#000000" points="489.6739,-325.2038 496.1134,-316.7904 485.8328,-319.3517 489.6739,-325.2038"/>
</g>

<g id="node23" class="node">
<title>Z</title>
<polygon fill="#cd5c5c" stroke="#000000" points="1426,-245.5 1426,-314.5 1525,-314.5 1525,-245.5 1426,-245.5"/>
<text text-anchor="middle" x="1438.5" y="-299.3" font-family="Times,serif" font-size="14.00" fill="#000000">Z</text>
<polyline fill="none" stroke="#000000" points="1426,-291.5 1451,-291.5 "/>
<text text-anchor="middle" x="1438.5" y="-276.3" font-family="Times,serif" font-size="14.00" fill="#000000">0</text>
<polyline fill="none" stroke="#000000" points="1451,-268.5 1451,-314.5 "/>
<text text-anchor="middle" x="1469.5" y="-299.3" font-family="Times,serif" font-size="14.00" fill="#000000">117</text>
<polyline fill="none" stroke="#000000" points="1451,-291.5 1488,-291.5 "/>
<text text-anchor="middle" x="1469.5" y="-276.3" font-family="Times,serif" font-size="14.00" fill="#000000">117</text>
<polyline fill="none" stroke="#000000" points="1488,-268.5 1488,-314.5 "/>
<text text-anchor="middle" x="1506.5" y="-299.3" font-family="Times,serif" font-size="14.00" fill="#000000">117</text>
<polyline fill="none" stroke="#000000" points="1488,-291.5 1525,-291.5 "/>
<text text-anchor="middle" x="1506.5" y="-276.3" font-family="Times,serif" font-size="14.00" fill="#000000">117</text>
<polyline fill="none" stroke="#000000" points="1426,-268.5 1525,-268.5 "/>
<text text-anchor="middle" x="1475.5" y="-253.3" font-family="Times,serif" font-size="14.00" fill="#000000">slack: 0</text>
</g>

<g id="edge32" class="edge">
<title>F&#45;&gt;Z</title>
<path fill="none" stroke="#000000" d="M983.5958,-435.1459C1047.0523,-430.3841 1161.0008,-418.264 1254,-389 1311.945,-370.7664 1373.624,-339.311 1417.1403,-314.8635"/>
<polygon fill="#000000" stroke="#000000" points="1418.8942,-317.8927 1425.8685,-309.9171 1415.4428,-311.8026 1418.8942,-317.8927"/>
</g>

<g id="node8" class="node">
<title>H</title>
<polygon fill="#cd5c5c" stroke="#000000" points="493,-88.5 493,-157.5 590,-157.5 590,-88.5 493,-88.5"/>
<text text-anchor="middle" x="508" y="-142.3" font-family="Times,serif" font-size="14.00" fill="#000000">H</text>
<polyline fill="none" stroke="#000000" points="493,-134.5 523,-134.5 "/>
<text text-anchor="middle" x="508" y="-119.3" font-family="Times,serif" font-size="14.00" fill="#000000">45</text>
<polyline fill="none" stroke="#000000" points="523,-111.5 523,-157.5 "/>
<text text-anchor="middle" x="538" y="-142.3" font-family="Times,serif" font-size="14.00" fill="#000000">64</text>
<polyline fill="none" stroke="#000000" points="523,-134.5 553,-134.5 "/>
<text text-anchor="middle" x="538" y="-119.3" font-family="Times,serif" font-size="14.00" fill="#000000">64</text>
<polyline fill="none" stroke="#000000" points="553,-111.5 553,-157.5 "/>
<text text-anchor="middle" x="571.5" y="-142.3" font-family="Times,serif" font-size="14.00" fill="#000000">109</text>
<polyline fill="none" stroke="#000000" points="553,-134.5 590,-134.5 "/>
<text text-anchor="middle" x="571.5" y="-119.3" font-family="Times,serif" font-size="14.00" fill="#000000">109</text>
<polyline fill="none" stroke="#000000" points="493,-111.5 590,-111.5 "/>
<text text-anchor="middle" x="541.5" y="-96.3" font-family="Times,serif" font-size="14.00" fill="#000000">slack: 0</text>
</g>

<g id="edge10" class="edge">
<title>G&#45;&gt;H</title>
<path fill="none" stroke="#000000" d="M457.2928,-123C465.4858,-123 474.1369,-123 482.6508,-123"/>
<polygon fill="#000000" stroke="#000000" points="482.9279,-126.5001 492.9278,-123 482.9278,-119.5001 482.9279,-126.5001"/>
</g>

<g id="node10" class="node">
<title>J</title>
<polygon fill="#cd5c5c" stroke="#000000" points="626,-.5 626,-69.5 723,-69.5 723,-.5 626,-.5"/>
<text text-anchor="middle" x="637.5" y="-54.3" font-family="Times,serif" font-size="14.00" fill="#000000">J</text>
<polyline fill="none" stroke="#000000" points="626,-46.5 649,-46.5 "/>
<text text-anchor="middle" x="637.5" y="-31.3" font-family="Times,serif" font-size="14.00" fill="#000000">7</text>
<polyline fill="none" stroke="#000000" points="649,-23.5 649,-69.5 "/>
<text text-anchor="middle" x="667.5" y="-54.3" font-family="Times,serif" font-size="14.00" fill="#000000">109</text>
<polyline fill="none" stroke="#000000" points="649,-46.5 686,-46.5 "/>
<text text-anchor="middle" x="667.5" y="-31.3" font-family="Times,serif" font-size="14.00" fill="#000000">109</text>
<polyline fill="none" stroke="#000000" points="686,-23.5 686,-69.5 "/>
<text text-anchor="middle" x="704.5" y="-54.3" font-family="Times,serif" font-size="14.00" fill="#000000">116</text>
<polyline fill="none" stroke="#000000" points="686,-46.5 723,-46.5 "/>
<text text-anchor="middle" x="704.5" y="-31.3" font-family="Times,serif" font-size="14.00" fill="#000000">116</text>
<polyline fill="none" stroke="#000000" points="626,-23.5 723,-23.5 "/>
<text text-anchor="middle" x="674.5" y="-8.3" font-family="Times,serif" font-size="14.00" fill="#000000">slack: 0</text>
</g>

<g id="edge12" class="edge">
<title>H&#45;&gt;J</title>
<path fill="none" stroke="#000000" d="M590.2691,-90.7317C599.0335,-84.9327 608.2411,-78.8405 617.2201,-72.8995"/>
<polygon fill="#000000" stroke="#000000" points="619.3284,-75.7014 625.7368,-67.2644 615.4657,-69.8635 619.3284,-75.7014"/>
</g>

<g id="edge13" class="edge">
<title>I&#45;&gt;J</title>
<path fill="none" stroke="#000000" d="M590.2691,-35C598.4913,-35 607.1037,-35 615.5514,-35"/>
<polygon fill="#000000" stroke="#000000" points="615.7368,-38.5001 625.7368,-35 615.7368,-31.5001 615.7368,-38.5001"/>
</g>

<g id="node22" class="node">
<title>V</title>
<polygon fill="#cd5c5c" stroke="#000000" points="1290,-126.5 1290,-195.5 1390,-195.5 1390,-126.5 1290,-126.5"/>
<text text-anchor="middle" x="1303" y="-180.3" font-family="Times,serif" font-size="14.00" fill="#000000">V</text>
<polyline fill="none" stroke="#000000" points="1290,-172.5 1316,-172.5 "/>
<text text-anchor="middle" x="1303" y="-157.3" font-family="Times,serif" font-size="14.00" fill="#000000">1</text>
<polyline fill="none" stroke="#000000" points="1316,-149.5 1316,-195.5 "/>
<text text-anchor="middle" x="1334.5" y="-180.3" font-family="Times,serif" font-size="14.00" fill="#000000">116</text>
<polyline fill="none" stroke="#000000" points="1316,-172.5 1353,-172.5 "/>
<text text-anchor="middle" x="1334.5" y="-157.3" font-family="Times,serif" font-size="14.00" fill="#000000">116</text>
<polyline fill="none" stroke="#000000" points="1353,-149.5 1353,-195.5 "/>
<text text-anchor="middle" x="1371.5" y="-180.3" font-family="Times,serif" font-size="14.00" fill="#000000">117</text>
<polyline fill="none" stroke="#000000" points="1353,-172.5 1390,-172.5 "/>
<text text-anchor="middle" x="1371.5" y="-157.3" font-family="Times,serif" font-size="14.00" fill="#000000">117</text>
<polyline fill="none" stroke="#000000" points="1290,-149.5 1390,-149.5 "/>
<text text-anchor="middle" x="1340" y="-134.3" font-family="Times,serif" font-size="14.00" fill="#000000">slack: 0</text>
</g>

<g id="edge28" class="edge">
<title>J&#45;&gt;V</title>
<path fill="none" stroke="#000000" d="M723.4722,-35C775.8298,-35 861.2821,-35 935,-35 935,-35 935,-35 1070,-35 1152.0752,-35 1236.1298,-83.4021 1288.1816,-120.2077"/>
<polygon fill="#000000" stroke="#000000" points="1286.4081,-123.2432 1296.5713,-126.2364 1290.493,-117.5586 1286.4081,-123.2432"/>
</g>

<g id="node12" class="node">
<title>L</title>
<polygon fill="none" stroke="#000000" points="632,-252.5 632,-321.5 717,-321.5 717,-252.5 632,-252.5"/>
<text text-anchor="middle" x="644.5" y="-306.3" font-family="Times,serif" font-size="14.00" fill="#000000">L</text>
<polyline fill="none" stroke="#000000" points="632,-298.5 657,-298.5 "/>
<text text-anchor="middle" x="644.5" y="-283.3" font-family="Times,serif" font-size="14.00" fill="#000000">5</text>
<polyline fill="none" stroke="#000000" points="657,-275.5 657,-321.5 "/>
<text text-anchor="middle" x="672" y="-306.3" font-family="Times,serif" font-size="14.00" fill="#000000">55</text>
<polyline fill="none" stroke="#000000" points="657,-298.5 687,-298.5 "/>
<text text-anchor="middle" x="672" y="-283.3" font-family="Times,serif" font-size="14.00" fill="#000000">63</text>
<polyline fill="none" stroke="#000000" points="687,-275.5 687,-321.5 "/>
<text text-anchor="middle" x="702" y="-306.3" font-family="Times,serif" font-size="14.00" fill="#000000">60</text>
<polyline fill="none" stroke="#000000" points="687,-298.5 717,-298.5 "/>
<text text-anchor="middle" x="702" y="-283.3" font-family="Times,serif" font-size="14.00" fill="#000000">68</text>
<polyline fill="none" stroke="#000000" points="632,-275.5 717,-275.5 "/>
<text text-anchor="middle" x="674.5" y="-260.3" font-family="Times,serif" font-size="14.00" fill="#000000">slack: 8</text>
</g>

<g id="edge15" class="edge">
<title>K&#45;&gt;L</title>
<path fill="none" stroke="#000000" d="M586.5277,-287C597.8353,-287 610.0707,-287 621.7189,-287"/>
<polygon fill="#000000" stroke="#000000" points="621.7661,-290.5001 631.7661,-287 621.7661,-283.5001 621.7661,-290.5001"/>
</g>

<g id="node13" class="node">
<title>M</title>
<polygon fill="none" stroke="#000000" points="759.5,-214.5 759.5,-283.5 848.5,-283.5 848.5,-214.5 759.5,-214.5"/>
<text text-anchor="middle" x="774" y="-268.3" font-family="Times,serif" font-size="14.00" fill="#000000">M</text>
<polyline fill="none" stroke="#000000" points="759.5,-260.5 788.5,-260.5 "/>
<text text-anchor="middle" x="774" y="-245.3" font-family="Times,serif" font-size="14.00" fill="#000000">6</text>
<polyline fill="none" stroke="#000000" points="788.5,-237.5 788.5,-283.5 "/>
<text text-anchor="middle" x="803.5" y="-268.3" font-family="Times,serif" font-size="14.00" fill="#000000">55</text>
<polyline fill="none" stroke="#000000" points="788.5,-260.5 818.5,-260.5 "/>
<text text-anchor="middle" x="803.5" y="-245.3" font-family="Times,serif" font-size="14.00" fill="#000000">91</text>
<polyline fill="none" stroke="#000000" points="818.5,-237.5 818.5,-283.5 "/>
<text text-anchor="middle" x="833.5" y="-268.3" font-family="Times,serif" font-size="14.00" fill="#000000">61</text>
<polyline fill="none" stroke="#000000" points="818.5,-260.5 848.5,-260.5 "/>
<text text-anchor="middle" x="833.5" y="-245.3" font-family="Times,serif" font-size="14.00" fill="#000000">97</text>
<polyline fill="none" stroke="#000000" points="759.5,-237.5 848.5,-237.5 "/>
<text text-anchor="middle" x="804" y="-222.3" font-family="Times,serif" font-size="14.00" fill="#000000">slack: 36</text>
</g>

<g id="edge16" class="edge">
<title>K&#45;&gt;M</title>
<path fill="none" stroke="#000000" d="M586.8436,-258.3478C599.0952,-252.0363 612.6656,-246.2637 626,-243 666.4565,-233.098 713.6206,-235.2777 749.2324,-239.5664"/>
<polygon fill="#000000" stroke="#000000" points="749.0559,-243.0727 759.4231,-240.8884 749.9565,-236.1309 749.0559,-243.0727"/>
</g>

<g id="node15" class="node">
<title>O</title>
<polygon fill="none" stroke="#000000" points="631.5,-340.5 631.5,-409.5 717.5,-409.5 717.5,-340.5 631.5,-340.5"/>
<text text-anchor="middle" x="644.5" y="-394.3" font-family="Times,serif" font-size="14.00" fill="#000000">O</text>
<polyline fill="none" stroke="#000000" points="631.5,-386.5 657.5,-386.5 "/>
<text text-anchor="middle" x="644.5" y="-371.3" font-family="Times,serif" font-size="14.00" fill="#000000">6</text>
<polyline fill="none" stroke="#000000" points="657.5,-363.5 657.5,-409.5 "/>
<text text-anchor="middle" x="672.5" y="-394.3" font-family="Times,serif" font-size="14.00" fill="#000000">55</text>
<polyline fill="none" stroke="#000000" points="657.5,-386.5 687.5,-386.5 "/>
<text text-anchor="middle" x="672.5" y="-371.3" font-family="Times,serif" font-size="14.00" fill="#000000">62</text>
<polyline fill="none" stroke="#000000" points="687.5,-363.5 687.5,-409.5 "/>
<text text-anchor="middle" x="702.5" y="-394.3" font-family="Times,serif" font-size="14.00" fill="#000000">61</text>
<polyline fill="none" stroke="#000000" points="687.5,-386.5 717.5,-386.5 "/>
<text text-anchor="middle" x="702.5" y="-371.3" font-family="Times,serif" font-size="14.00" fill="#000000">68</text>
<polyline fill="none" stroke="#000000" points="631.5,-363.5 717.5,-363.5 "/>
<text text-anchor="middle" x="674.5" y="-348.3" font-family="Times,serif" font-size="14.00" fill="#000000">slack: 7</text>
</g>

<g id="edge19" class="edge">
<title>K&#45;&gt;O</title>
<path fill="none" stroke="#000000" d="M586.5277,-316.7928C598.1709,-324.4965 610.7977,-332.8511 622.7545,-340.7623"/>
<polygon fill="#000000" stroke="#000000" points="621.0476,-343.8298 631.3187,-346.4289 624.9103,-337.9919 621.0476,-343.8298"/>
</g>

<g id="node14" class="node">
<title>N</title>
<polygon fill="none" stroke="#000000" points="759,-340.5 759,-409.5 849,-409.5 849,-340.5 759,-340.5"/>
<text text-anchor="middle" x="774" y="-394.3" font-family="Times,serif" font-size="14.00" fill="#000000">N</text>
<polyline fill="none" stroke="#000000" points="759,-386.5 789,-386.5 "/>
<text text-anchor="middle" x="774" y="-371.3" font-family="Times,serif" font-size="14.00" fill="#000000">29</text>
<polyline fill="none" stroke="#000000" points="789,-363.5 789,-409.5 "/>
<text text-anchor="middle" x="804" y="-394.3" font-family="Times,serif" font-size="14.00" fill="#000000">61</text>
<polyline fill="none" stroke="#000000" points="789,-386.5 819,-386.5 "/>
<text text-anchor="middle" x="804" y="-371.3" font-family="Times,serif" font-size="14.00" fill="#000000">68</text>
<polyline fill="none" stroke="#000000" points="819,-363.5 819,-409.5 "/>
<text text-anchor="middle" x="834" y="-394.3" font-family="Times,serif" font-size="14.00" fill="#000000">90</text>
<polyline fill="none" stroke="#000000" points="819,-386.5 849,-386.5 "/>
<text text-anchor="middle" x="834" y="-371.3" font-family="Times,serif" font-size="14.00" fill="#000000">97</text>
<polyline fill="none" stroke="#000000" points="759,-363.5 849,-363.5 "/>
<text text-anchor="middle" x="804" y="-348.3" font-family="Times,serif" font-size="14.00" fill="#000000">slack: 7</text>
</g>

<g id="edge17" class="edge">
<title>L&#45;&gt;N</title>
<path fill="none" stroke="#000000" d="M717.262,-316.0584C727.8295,-323.2393 739.2836,-331.0228 750.2981,-338.5076"/>
<polygon fill="#000000" stroke="#000000" points="748.3751,-341.4325 758.6134,-344.1581 752.3095,-335.6427 748.3751,-341.4325"/>
</g>

<g id="edge7" class="edge">
<title>M&#45;&gt;F</title>
<path fill="none" stroke="#000000" d="M828.0274,-283.6655C849.7493,-315.0048 881.8089,-361.2586 905.1647,-394.9551"/>
<polygon fill="#000000" stroke="#000000" points="902.3302,-397.0098 910.9034,-403.2347 908.0834,-393.0221 902.3302,-397.0098"/>
</g>

<g id="node16" class="node">
<title>P</title>
<polygon fill="none" stroke="#000000" points="1021,-63.5 1021,-132.5 1119,-132.5 1119,-63.5 1021,-63.5"/>
<text text-anchor="middle" x="1033" y="-117.3" font-family="Times,serif" font-size="14.00" fill="#000000">P</text>
<polyline fill="none" stroke="#000000" points="1021,-109.5 1045,-109.5 "/>
<text text-anchor="middle" x="1033" y="-94.3" font-family="Times,serif" font-size="14.00" fill="#000000">5</text>
<polyline fill="none" stroke="#000000" points="1045,-86.5 1045,-132.5 "/>
<text text-anchor="middle" x="1063.5" y="-117.3" font-family="Times,serif" font-size="14.00" fill="#000000">61</text>
<polyline fill="none" stroke="#000000" points="1045,-109.5 1082,-109.5 "/>
<text text-anchor="middle" x="1063.5" y="-94.3" font-family="Times,serif" font-size="14.00" fill="#000000">111</text>
<polyline fill="none" stroke="#000000" points="1082,-86.5 1082,-132.5 "/>
<text text-anchor="middle" x="1100.5" y="-117.3" font-family="Times,serif" font-size="14.00" fill="#000000">66</text>
<polyline fill="none" stroke="#000000" points="1082,-109.5 1119,-109.5 "/>
<text text-anchor="middle" x="1100.5" y="-94.3" font-family="Times,serif" font-size="14.00" fill="#000000">116</text>
<polyline fill="none" stroke="#000000" points="1021,-86.5 1119,-86.5 "/>
<text text-anchor="middle" x="1070" y="-71.3" font-family="Times,serif" font-size="14.00" fill="#000000">slack: 50</text>
</g>

<g id="edge20" class="edge">
<title>M&#45;&gt;P</title>
<path fill="none" stroke="#000000" d="M848.5224,-223.726C893.3551,-198.2759 962.7355,-158.8907 1011.8812,-130.9923"/>
<polygon fill="#000000" stroke="#000000" points="1013.8432,-133.9032 1020.8118,-125.9226 1010.3874,-127.8156 1013.8432,-133.9032"/>
</g>

<g id="node17" class="node">
<title>Q</title>
<polygon fill="none" stroke="#000000" points="1156,-277.5 1156,-346.5 1253,-346.5 1253,-277.5 1156,-277.5"/>
<text text-anchor="middle" x="1171" y="-331.3" font-family="Times,serif" font-size="14.00" fill="#000000">Q</text>
<polyline fill="none" stroke="#000000" points="1156,-323.5 1186,-323.5 "/>
<text text-anchor="middle" x="1171" y="-308.3" font-family="Times,serif" font-size="14.00" fill="#000000">20</text>
<polyline fill="none" stroke="#000000" points="1186,-300.5 1186,-346.5 "/>
<text text-anchor="middle" x="1201" y="-331.3" font-family="Times,serif" font-size="14.00" fill="#000000">61</text>
<polyline fill="none" stroke="#000000" points="1186,-323.5 1216,-323.5 "/>
<text text-anchor="middle" x="1201" y="-308.3" font-family="Times,serif" font-size="14.00" fill="#000000">97</text>
<polyline fill="none" stroke="#000000" points="1216,-300.5 1216,-346.5 "/>
<text text-anchor="middle" x="1234.5" y="-331.3" font-family="Times,serif" font-size="14.00" fill="#000000">81</text>
<polyline fill="none" stroke="#000000" points="1216,-323.5 1253,-323.5 "/>
<text text-anchor="middle" x="1234.5" y="-308.3" font-family="Times,serif" font-size="14.00" fill="#000000">117</text>
<polyline fill="none" stroke="#000000" points="1156,-300.5 1253,-300.5 "/>
<text text-anchor="middle" x="1204.5" y="-285.3" font-family="Times,serif" font-size="14.00" fill="#000000">slack: 36</text>
</g>

<g id="edge21" class="edge">
<title>M&#45;&gt;Q</title>
<path fill="none" stroke="#000000" d="M848.7591,-277.8041C860.1645,-283.8635 872.6907,-289.4803 885,-293 973.2399,-318.2311 1080.6109,-318.8141 1145.6977,-316.0512"/>
<polygon fill="#000000" stroke="#000000" points="1145.9448,-319.5435 1155.7712,-315.5823 1145.6193,-312.5511 1145.9448,-319.5435"/>
</g>

<g id="edge23" class="edge">
<title>M&#45;&gt;R</title>
<path fill="none" stroke="#000000" d="M848.7164,-249C857.0271,-249 865.8359,-249 874.526,-249"/>
<polygon fill="#000000" stroke="#000000" points="874.636,-252.5001 884.6359,-249 874.6359,-245.5001 874.636,-252.5001"/>
</g>

<g id="edge8" class="edge">
<title>N&#45;&gt;F</title>
<path fill="none" stroke="#000000" d="M849.0828,-396.681C858.0751,-401.0056 867.6379,-405.6045 876.994,-410.104"/>
<polygon fill="#000000" stroke="#000000" points="875.7235,-413.3766 886.2524,-414.5565 878.7573,-407.0682 875.7235,-413.3766"/>
</g>

<g id="edge24" class="edge">
<title>N&#45;&gt;R</title>
<path fill="none" stroke="#000000" d="M840.1431,-340.2364C856.0364,-324.9498 874.8371,-306.8666 891.4919,-290.8475"/>
<polygon fill="#000000" stroke="#000000" points="894.1938,-293.1049 898.9749,-283.6501 889.3413,-288.0598 894.1938,-293.1049"/>
</g>

<g id="edge29" class="edge">
<title>N&#45;&gt;V</title>
<path fill="none" stroke="#000000" d="M849.3712,-379.7038C951.138,-389.2351 1193.4404,-405.9287 1254,-356 1307.2328,-312.1119 1254.4346,-264.1185 1290,-205 1290.2459,-204.5913 1290.4968,-204.1843 1290.7526,-203.7791"/>
<polygon fill="#000000" stroke="#000000" points="1293.6888,-205.6929 1296.7561,-195.5518 1288.0342,-201.5667 1293.6888,-205.6929"/>
</g>

<g id="edge18" class="edge">
<title>O&#45;&gt;N</title>
<path fill="none" stroke="#000000" d="M717.6216,-375C727.5546,-375 738.2547,-375 748.6269,-375"/>
<polygon fill="#000000" stroke="#000000" points="748.8493,-378.5001 758.8492,-375 748.8492,-371.5001 748.8493,-378.5001"/>
</g>

<g id="edge30" class="edge">
<title>P&#45;&gt;V</title>
<path fill="none" stroke="#000000" d="M1119.3138,-104.2019C1156.6556,-109.4685 1209.0245,-118.0799 1254,-130 1262.675,-132.2992 1271.7136,-135.0952 1280.532,-138.0563"/>
<polygon fill="#000000" stroke="#000000" points="1279.392,-141.3654 1289.9868,-141.3186 1281.6753,-134.7482 1279.392,-141.3654"/>
</g>

<g id="edge33" class="edge">
<title>Q&#45;&gt;Z</title>
<path fill="none" stroke="#000000" d="M1253.0056,-307.685C1290.4745,-304.1938 1343.5942,-298.9009 1390,-293 1398.3502,-291.9382 1407.1435,-290.718 1415.7855,-289.4597"/>
<polygon fill="#000000" stroke="#000000" points="1416.4461,-292.9001 1425.8252,-287.9722 1415.4202,-285.9757 1416.4461,-292.9001"/>
</g>

<g id="node19" class="node">
<title>S</title>
<polygon fill="none" stroke="#000000" points="1021,-151.5 1021,-220.5 1119,-220.5 1119,-151.5 1021,-151.5"/>
<text text-anchor="middle" x="1033" y="-205.3" font-family="Times,serif" font-size="14.00" fill="#000000">S</text>
<polyline fill="none" stroke="#000000" points="1021,-197.5 1045,-197.5 "/>
<text text-anchor="middle" x="1033" y="-182.3" font-family="Times,serif" font-size="14.00" fill="#000000">9</text>
<polyline fill="none" stroke="#000000" points="1045,-174.5 1045,-220.5 "/>
<text text-anchor="middle" x="1063.5" y="-205.3" font-family="Times,serif" font-size="14.00" fill="#000000">93</text>
<polyline fill="none" stroke="#000000" points="1045,-197.5 1082,-197.5 "/>
<text text-anchor="middle" x="1063.5" y="-182.3" font-family="Times,serif" font-size="14.00" fill="#000000">103</text>
<polyline fill="none" stroke="#000000" points="1082,-174.5 1082,-220.5 "/>
<text text-anchor="middle" x="1100.5" y="-205.3" font-family="Times,serif" font-size="14.00" fill="#000000">102</text>
<polyline fill="none" stroke="#000000" points="1082,-197.5 1119,-197.5 "/>
<text text-anchor="middle" x="1100.5" y="-182.3" font-family="Times,serif" font-size="14.00" fill="#000000">112</text>
<polyline fill="none" stroke="#000000" points="1021,-174.5 1119,-174.5 "/>
<text text-anchor="middle" x="1070" y="-159.3" font-family="Times,serif" font-size="14.00" fill="#000000">slack: 10</text>
</g>

<g id="edge25" class="edge">
<title>R&#45;&gt;S</title>
<path fill="none" stroke="#000000" d="M985.269,-225.5411C993.7472,-221.5847 1002.614,-217.4468 1011.2841,-213.4007"/>
<polygon fill="#000000" stroke="#000000" points="1013.0055,-216.4598 1020.5872,-209.0593 1010.0453,-210.1166 1013.0055,-216.4598"/>
</g>

<g id="node21" class="node">
<title>U</title>
<polygon fill="none" stroke="#000000" points="1290,-214.5 1290,-283.5 1390,-283.5 1390,-214.5 1290,-214.5"/>
<text text-anchor="middle" x="1303" y="-268.3" font-family="Times,serif" font-size="14.00" fill="#000000">U</text>
<polyline fill="none" stroke="#000000" points="1290,-260.5 1316,-260.5 "/>
<text text-anchor="middle" x="1303" y="-245.3" font-family="Times,serif" font-size="14.00" fill="#000000">5</text>
<polyline fill="none" stroke="#000000" points="1316,-237.5 1316,-283.5 "/>
<text text-anchor="middle" x="1334.5" y="-268.3" font-family="Times,serif" font-size="14.00" fill="#000000">93</text>
<polyline fill="none" stroke="#000000" points="1316,-260.5 1353,-260.5 "/>
<text text-anchor="middle" x="1334.5" y="-245.3" font-family="Times,serif" font-size="14.00" fill="#000000">112</text>
<polyline fill="none" stroke="#000000" points="1353,-237.5 1353,-283.5 "/>
<text text-anchor="middle" x="1371.5" y="-268.3" font-family="Times,serif" font-size="14.00" fill="#000000">98</text>
<polyline fill="none" stroke="#000000" points="1353,-260.5 1390,-260.5 "/>
<text text-anchor="middle" x="1371.5" y="-245.3" font-family="Times,serif" font-size="14.00" fill="#000000">117</text>
<polyline fill="none" stroke="#000000" points="1290,-237.5 1390,-237.5 "/>
<text text-anchor="middle" x="1340" y="-222.3" font-family="Times,serif" font-size="14.00" fill="#000000">slack: 19</text>
</g>

<g id="edge27" class="edge">
<title>R&#45;&gt;U</title>
<path fill="none" stroke="#000000" d="M985.0672,-249C1059.5017,-249 1199.1573,-249 1279.3054,-249"/>
<polygon fill="#000000" stroke="#000000" points="1279.7297,-252.5001 1289.7297,-249 1279.7296,-245.5001 1279.7297,-252.5001"/>
</g>

<g id="node20" class="node">
<title>T</title>
<polygon fill="none" stroke="#000000" points="1155,-139.5 1155,-208.5 1254,-208.5 1254,-139.5 1155,-139.5"/>
<text text-anchor="middle" x="1167.5" y="-193.3" font-family="Times,serif" font-size="14.00" fill="#000000">T</text>
<polyline fill="none" stroke="#000000" points="1155,-185.5 1180,-185.5 "/>
<text text-anchor="middle" x="1167.5" y="-170.3" font-family="Times,serif" font-size="14.00" fill="#000000">4</text>
<polyline fill="none" stroke="#000000" points="1180,-162.5 1180,-208.5 "/>
<text text-anchor="middle" x="1198.5" y="-193.3" font-family="Times,serif" font-size="14.00" fill="#000000">102</text>
<polyline fill="none" stroke="#000000" points="1180,-185.5 1217,-185.5 "/>
<text text-anchor="middle" x="1198.5" y="-170.3" font-family="Times,serif" font-size="14.00" fill="#000000">112</text>
<polyline fill="none" stroke="#000000" points="1217,-162.5 1217,-208.5 "/>
<text text-anchor="middle" x="1235.5" y="-193.3" font-family="Times,serif" font-size="14.00" fill="#000000">106</text>
<polyline fill="none" stroke="#000000" points="1217,-185.5 1254,-185.5 "/>
<text text-anchor="middle" x="1235.5" y="-170.3" font-family="Times,serif" font-size="14.00" fill="#000000">116</text>
<polyline fill="none" stroke="#000000" points="1155,-162.5 1254,-162.5 "/>
<text text-anchor="middle" x="1204.5" y="-147.3" font-family="Times,serif" font-size="14.00" fill="#000000">slack: 10</text>
</g>

<g id="edge26" class="edge">
<title>S&#45;&gt;T</title>
<path fill="none" stroke="#000000" d="M1119.3191,-181.5998C1127.5275,-180.8674 1136.1204,-180.1008 1144.5579,-179.348"/>
<polygon fill="#000000" stroke="#000000" points="1145.0873,-182.8148 1154.7366,-178.4399 1144.4651,-175.8425 1145.0873,-182.8148"/>
</g>

<g id="edge31" class="edge">
<title>T&#45;&gt;V</title>
<path fill="none" stroke="#000000" d="M1254.1858,-169.2331C1262.5461,-168.431 1271.3023,-167.5909 1279.8925,-166.7668"/>
<polygon fill="#000000" stroke="#000000" points="1280.2467,-170.249 1289.8667,-165.8098 1279.5781,-163.281 1280.2467,-170.249"/>
</g>

<g id="edge34" class="edge">
<title>U&#45;&gt;Z</title>
<path fill="none" stroke="#000000" d="M1390.0702,-260.4552C1398.4148,-262.3643 1407.1441,-264.3614 1415.7018,-266.3192"/>
<polygon fill="#000000" stroke="#000000" points="1415.1068,-269.7735 1425.6356,-268.5919 1416.668,-262.9498 1415.1068,-269.7735"/>
</g>

<g id="edge35" class="edge">
<title>V&#45;&gt;Z</title>
<path fill="none" stroke="#000000" d="M1379.5565,-195.7396C1394.862,-209.1814 1412.5041,-224.6752 1428.4529,-238.6819"/>
<polygon fill="#000000" stroke="#000000" points="1426.3053,-241.4539 1436.1286,-245.4229 1430.9244,-236.1943 1426.3053,-241.4539"/>
</g>
</g>
</svg>
