<?xml version="1.0" encoding="UTF-8" standalone="no"?>
<!DOCTYPE svg PUBLIC "-//W3C//DTD SVG 1.1//EN"
 "http://www.w3.org/Graphics/SVG/1.1/DTD/svg11.dtd">


<svg width="1556pt" height="481pt"
 viewBox="0.00 0.00 1556.00 481.00" xmlns="http://www.w3.org/2000/svg" xmlns:xlink="http://www.w3.org/1999/xlink">
<g id="graph0" class="graph" transform="scale(1 1) rotate(0) translate(4 477)">
<title>structs</title>
<polygon fill="#ffffff" stroke="transparent" points="-4,4 -4,-477 1552,-477 1552,4 -4,4"/>

<g id="node1" class="node">
<title>A</title>
<polygon fill="none" stroke="#000000" points="0,-198.5 0,-267.5 83,-267.5 83,-198.5 0,-198.5"/>
<text text-anchor="middle" x="15" y="-252.3" font-family="Times,serif" font-size="14.00" fill="#000000">A</text>
<polyline fill="none" stroke="#000000" points="0,-244.5 30,-244.5 "/>
<text text-anchor="middle" x="15" y="-229.3" font-family="Times,serif" font-size="14.00" fill="#000000">10</text>
<polyline fill="none" stroke="#000000" points="30,-221.5 30,-267.5 "/>
<text text-anchor="middle" x="41.5" y="-252.3" font-family="Times,serif" font-size="14.00" fill="#000000">0</text>
<polyline fill="none" stroke="#000000" points="30,-244.5 53,-244.5 "/>
<text text-anchor="middle" x="41.5" y="-229.3" font-family="Times,serif" font-size="14.00" fill="#000000">4</text>
<polyline fill="none" stroke="#000000" points="53,-221.5 53,-267.5 "/>
<text text-anchor="middle" x="68" y="-252.3" font-family="Times,serif" font-size="14.00" fill="#000000">10</text>
<polyline fill="none" stroke="#000000" points="53,-244.5 83,-244.5 "/>
<text text-anchor="middle" x="68" y="-229.3" font-family="Times,serif" font-size="14.00" fill="#000000">14</text>
<polyline fill="none" stroke="#000000" points="0,-221.5 83,-221.5 "/>
<text text-anchor="middle" x="41.5" y="-206.3" font-family="Times,serif" font-size="14.00" fill="#000000">slack: 4</text>
</g>

<g id="node3" class="node">
<title>C</title>
<polygon fill="#cd5c5c" stroke="#000000" points="119,-198.5 119,-267.5 205,-267.5 205,-198.5 119,-198.5"/>
<text text-anchor="middle" x="132" y="-252.3" font-family="Times,serif" font-size="14.00" fill="#000000">C</text>
<polyline fill="none" stroke="#000000" points="119,-244.5 145,-244.5 "/>
<text text-anchor="middle" x="132" y="-229.3" font-family="Times,serif" font-size="14.00" fill="#000000">4</text>
<polyline fill="none" stroke="#000000" points="145,-221.5 145,-267.5 "/>
<text text-anchor="middle" x="160" y="-252.3" font-family="Times,serif" font-size="14.00" fill="#000000">14</text>
<polyline fill="none" stroke="#000000" points="145,-244.5 175,-244.5 "/>
<text text-anchor="middle" x="160" y="-229.3" font-family="Times,serif" font-size="14.00" fill="#000000">14</text>
<polyline fill="none" stroke="#000000" points="175,-221.5 175,-267.5 "/>
<text text-anchor="middle" x="190" y="-252.3" font-family="Times,serif" font-size="14.00" fill="#000000">18</text>
<polyline fill="none" stroke="#000000" points="175,-244.5 205,-244.5 "/>
<text text-anchor="middle" x="190" y="-229.3" font-family="Times,serif" font-size="14.00" fill="#000000">18</text>
<polyline fill="none" stroke="#000000" points="119,-221.5 205,-221.5 "/>
<text text-anchor="middle" x="162" y="-206.3" font-family="Times,serif" font-size="14.00" fill="#000000">slack: 0</text>
</g>

<g id="edge1" class="edge">
<title>A&#45;&gt;C</title>
<path fill="none" stroke="#000000" d="M83.3069,-233C91.4257,-233 100.0389,-233 108.4741,-233"/>
<polygon fill="#000000" stroke="#000000" points="108.6298,-236.5001 118.6297,-233 108.6297,-229.5001 108.6298,-236.5001"/>
</g>

<g id="node2" class="node">
<title>B</title>
<polygon fill="#cd5c5c" stroke="#000000" points="0,-292.5 0,-361.5 83,-361.5 83,-292.5 0,-292.5"/>
<text text-anchor="middle" x="15" y="-346.3" font-family="Times,serif" font-size="14.00" fill="#000000">B</text>
<polyline fill="none" stroke="#000000" points="0,-338.5 30,-338.5 "/>
<text text-anchor="middle" x="15" y="-323.3" font-family="Times,serif" font-size="14.00" fill="#000000">14</text>
<polyline fill="none" stroke="#000000" points="30,-315.5 30,-361.5 "/>
<text text-anchor="middle" x="41.5" y="-346.3" font-family="Times,serif" font-size="14.00" fill="#000000">0</text>
<polyline fill="none" stroke="#000000" points="30,-338.5 53,-338.5 "/>
<text text-anchor="middle" x="41.5" y="-323.3" font-family="Times,serif" font-size="14.00" fill="#000000">0</text>
<polyline fill="none" stroke="#000000" points="53,-315.5 53,-361.5 "/>
<text text-anchor="middle" x="68" y="-346.3" font-family="Times,serif" font-size="14.00" fill="#000000">14</text>
<polyline fill="none" stroke="#000000" points="53,-338.5 83,-338.5 "/>
<text text-anchor="middle" x="68" y="-323.3" font-family="Times,serif" font-size="14.00" fill="#000000">14</text>
<polyline fill="none" stroke="#000000" points="0,-315.5 83,-315.5 "/>
<text text-anchor="middle" x="41.5" y="-300.3" font-family="Times,serif" font-size="14.00" fill="#000000">slack: 0</text>
</g>

<g id="edge2" class="edge">
<title>B&#45;&gt;C</title>
<path fill="none" stroke="#000000" d="M83.3069,-294.3872C92.1394,-287.4971 101.5571,-280.1504 110.6942,-273.0228"/>
<polygon fill="#000000" stroke="#000000" points="112.8978,-275.7428 118.6297,-266.8324 108.5923,-270.2235 112.8978,-275.7428"/>
</g>

<g id="node5" class="node">
<title>E</title>
<polygon fill="#cd5c5c" stroke="#000000" points="367,-337.5 367,-406.5 457,-406.5 457,-337.5 367,-337.5"/>
<text text-anchor="middle" x="382" y="-391.3" font-family="Times,serif" font-size="14.00" fill="#000000">E</text>
<polyline fill="none" stroke="#000000" points="367,-383.5 397,-383.5 "/>
<text text-anchor="middle" x="382" y="-368.3" font-family="Times,serif" font-size="14.00" fill="#000000">11</text>
<polyline fill="none" stroke="#000000" points="397,-360.5 397,-406.5 "/>
<text text-anchor="middle" x="412" y="-391.3" font-family="Times,serif" font-size="14.00" fill="#000000">44</text>
<polyline fill="none" stroke="#000000" points="397,-383.5 427,-383.5 "/>
<text text-anchor="middle" x="412" y="-368.3" font-family="Times,serif" font-size="14.00" fill="#000000">44</text>
<polyline fill="none" stroke="#000000" points="427,-360.5 427,-406.5 "/>
<text text-anchor="middle" x="442" y="-391.3" font-family="Times,serif" font-size="14.00" fill="#000000">55</text>
<polyline fill="none" stroke="#000000" points="427,-383.5 457,-383.5 "/>
<text text-anchor="middle" x="442" y="-368.3" font-family="Times,serif" font-size="14.00" fill="#000000">55</text>
<polyline fill="none" stroke="#000000" points="367,-360.5 457,-360.5 "/>
<text text-anchor="middle" x="412" y="-345.3" font-family="Times,serif" font-size="14.00" fill="#000000">slack: 0</text>
</g>

<g id="edge4" class="edge">
<title>B&#45;&gt;E</title>
<path fill="none" stroke="#000000" d="M83.2809,-332.0746C150.338,-340.2192 282.0186,-356.2128 356.7596,-365.2906"/>
<polygon fill="#000000" stroke="#000000" points="356.5662,-368.7928 366.9153,-366.5241 357.4103,-361.8439 356.5662,-368.7928"/>
</g>

<g id="node4" class="node">
<title>D</title>
<polygon fill="#cd5c5c" stroke="#000000" points="241,-195.5 241,-264.5 331,-264.5 331,-195.5 241,-195.5"/>
<text text-anchor="middle" x="256" y="-249.3" font-family="Times,serif" font-size="14.00" fill="#000000">D</text>
<polyline fill="none" stroke="#000000" points="241,-241.5 271,-241.5 "/>
<text text-anchor="middle" x="256" y="-226.3" font-family="Times,serif" font-size="14.00" fill="#000000">26</text>
<polyline fill="none" stroke="#000000" points="271,-218.5 271,-264.5 "/>
<text text-anchor="middle" x="286" y="-249.3" font-family="Times,serif" font-size="14.00" fill="#000000">18</text>
<polyline fill="none" stroke="#000000" points="271,-241.5 301,-241.5 "/>
<text text-anchor="middle" x="286" y="-226.3" font-family="Times,serif" font-size="14.00" fill="#000000">18</text>
<polyline fill="none" stroke="#000000" points="301,-218.5 301,-264.5 "/>
<text text-anchor="middle" x="316" y="-249.3" font-family="Times,serif" font-size="14.00" fill="#000000">44</text>
<polyline fill="none" stroke="#000000" points="301,-241.5 331,-241.5 "/>
<text text-anchor="middle" x="316" y="-226.3" font-family="Times,serif" font-size="14.00" fill="#000000">44</text>
<polyline fill="none" stroke="#000000" points="241,-218.5 331,-218.5 "/>
<text text-anchor="middle" x="286" y="-203.3" font-family="Times,serif" font-size="14.00" fill="#000000">slack: 0</text>
</g>

<g id="edge3" class="edge">
<title>C&#45;&gt;D</title>
<path fill="none" stroke="#000000" d="M205.0212,-231.9592C213.367,-231.7572 222.2207,-231.543 230.8922,-231.3333"/>
<polygon fill="#000000" stroke="#000000" points="231.0344,-234.8309 240.9468,-231.09 230.8651,-227.833 231.0344,-234.8309"/>
</g>

<g id="edge5" class="edge">
<title>D&#45;&gt;E</title>
<path fill="none" stroke="#000000" d="M315.7895,-264.6388C331.003,-282.2173 349.8714,-303.8488 367,-323 368.949,-325.1792 370.9526,-327.4064 372.9808,-329.651"/>
<polygon fill="#000000" stroke="#000000" points="370.6155,-332.2527 379.9285,-337.3044 375.7984,-327.5477 370.6155,-332.2527"/>
</g>

<g id="node6" class="node">
<title>F</title>
<polygon fill="#cd5c5c" stroke="#000000" points="899,-403.5 899,-472.5 1003,-472.5 1003,-403.5 899,-403.5"/>
<text text-anchor="middle" x="914" y="-457.3" font-family="Times,serif" font-size="14.00" fill="#000000">F</text>
<polyline fill="none" stroke="#000000" points="899,-449.5 929,-449.5 "/>
<text text-anchor="middle" x="914" y="-434.3" font-family="Times,serif" font-size="14.00" fill="#000000">20</text>
<polyline fill="none" stroke="#000000" points="929,-426.5 929,-472.5 "/>
<text text-anchor="middle" x="947.5" y="-457.3" font-family="Times,serif" font-size="14.00" fill="#000000">108</text>
<polyline fill="none" stroke="#000000" points="929,-449.5 966,-449.5 "/>
<text text-anchor="middle" x="947.5" y="-434.3" font-family="Times,serif" font-size="14.00" fill="#000000">108</text>
<polyline fill="none" stroke="#000000" points="966,-426.5 966,-472.5 "/>
<text text-anchor="middle" x="984.5" y="-457.3" font-family="Times,serif" font-size="14.00" fill="#000000">128</text>
<polyline fill="none" stroke="#000000" points="966,-449.5 1003,-449.5 "/>
<text text-anchor="middle" x="984.5" y="-434.3" font-family="Times,serif" font-size="14.00" fill="#000000">128</text>
<polyline fill="none" stroke="#000000" points="899,-426.5 1003,-426.5 "/>
<text text-anchor="middle" x="951" y="-411.3" font-family="Times,serif" font-size="14.00" fill="#000000">slack: 0</text>
</g>

<g id="edge6" class="edge">
<title>D&#45;&gt;F</title>
<path fill="none" stroke="#000000" d="M331.2388,-256.0821C417.7622,-305.752 600.9765,-409.8189 633,-419 719.1693,-443.7046 823.6953,-444.7432 888.7937,-442.18"/>
<polygon fill="#000000" stroke="#000000" points="889.0557,-445.672 898.8942,-441.7408 888.7515,-438.6786 889.0557,-445.672"/>
</g>

<g id="node7" class="node">
<title>G</title>
<polygon fill="none" stroke="#000000" points="367,-88.5 367,-157.5 457,-157.5 457,-88.5 367,-88.5"/>
<text text-anchor="middle" x="382" y="-142.3" font-family="Times,serif" font-size="14.00" fill="#000000">G</text>
<polyline fill="none" stroke="#000000" points="367,-134.5 397,-134.5 "/>
<text text-anchor="middle" x="382" y="-119.3" font-family="Times,serif" font-size="14.00" fill="#000000">20</text>
<polyline fill="none" stroke="#000000" points="397,-111.5 397,-157.5 "/>
<text text-anchor="middle" x="412" y="-142.3" font-family="Times,serif" font-size="14.00" fill="#000000">44</text>
<polyline fill="none" stroke="#000000" points="397,-134.5 427,-134.5 "/>
<text text-anchor="middle" x="412" y="-119.3" font-family="Times,serif" font-size="14.00" fill="#000000">55</text>
<polyline fill="none" stroke="#000000" points="427,-111.5 427,-157.5 "/>
<text text-anchor="middle" x="442" y="-142.3" font-family="Times,serif" font-size="14.00" fill="#000000">64</text>
<polyline fill="none" stroke="#000000" points="427,-134.5 457,-134.5 "/>
<text text-anchor="middle" x="442" y="-119.3" font-family="Times,serif" font-size="14.00" fill="#000000">75</text>
<polyline fill="none" stroke="#000000" points="367,-111.5 457,-111.5 "/>
<text text-anchor="middle" x="412" y="-96.3" font-family="Times,serif" font-size="14.00" fill="#000000">slack: 11</text>
</g>

<g id="edge9" class="edge">
<title>D&#45;&gt;G</title>
<path fill="none" stroke="#000000" d="M326.9086,-195.2602C338.5799,-185.3488 351.4094,-174.454 363.4877,-164.197"/>
<polygon fill="#000000" stroke="#000000" points="365.9398,-166.7064 371.2967,-157.5655 361.4087,-161.3707 365.9398,-166.7064"/>
</g>

<g id="node9" class="node">
<title>I</title>
<polygon fill="none" stroke="#000000" points="493,-.5 493,-69.5 597,-69.5 597,-.5 493,-.5"/>
<text text-anchor="middle" x="508" y="-54.3" font-family="Times,serif" font-size="14.00" fill="#000000">I</text>
<polyline fill="none" stroke="#000000" points="493,-46.5 523,-46.5 "/>
<text text-anchor="middle" x="508" y="-31.3" font-family="Times,serif" font-size="14.00" fill="#000000">18</text>
<polyline fill="none" stroke="#000000" points="523,-23.5 523,-69.5 "/>
<text text-anchor="middle" x="541.5" y="-54.3" font-family="Times,serif" font-size="14.00" fill="#000000">44</text>
<polyline fill="none" stroke="#000000" points="523,-46.5 560,-46.5 "/>
<text text-anchor="middle" x="541.5" y="-31.3" font-family="Times,serif" font-size="14.00" fill="#000000">102</text>
<polyline fill="none" stroke="#000000" points="560,-23.5 560,-69.5 "/>
<text text-anchor="middle" x="578.5" y="-54.3" font-family="Times,serif" font-size="14.00" fill="#000000">62</text>
<polyline fill="none" stroke="#000000" points="560,-46.5 597,-46.5 "/>
<text text-anchor="middle" x="578.5" y="-31.3" font-family="Times,serif" font-size="14.00" fill="#000000">120</text>
<polyline fill="none" stroke="#000000" points="493,-23.5 597,-23.5 "/>
<text text-anchor="middle" x="545" y="-8.3" font-family="Times,serif" font-size="14.00" fill="#000000">slack: 58</text>
</g>

<g id="edge11" class="edge">
<title>D&#45;&gt;I</title>
<path fill="none" stroke="#000000" d="M295.5578,-195.1883C306.8887,-160.5296 329.1741,-108.3802 367,-79 399.9759,-53.3869 445.8898,-42.4696 482.8263,-37.9127"/>
<polygon fill="#000000" stroke="#000000" points="483.4333,-41.367 492.988,-36.7892 482.6639,-34.4094 483.4333,-41.367"/>
</g>

<g id="node18" class="node">
<title>R</title>
<polygon fill="none" stroke="#000000" points="901,-214.5 901,-283.5 1001,-283.5 1001,-214.5 901,-214.5"/>
<text text-anchor="middle" x="914" y="-268.3" font-family="Times,serif" font-size="14.00" fill="#000000">R</text>
<polyline fill="none" stroke="#000000" points="901,-260.5 927,-260.5 "/>
<text text-anchor="middle" x="914" y="-245.3" font-family="Times,serif" font-size="14.00" fill="#000000">3</text>
<polyline fill="none" stroke="#000000" points="927,-237.5 927,-283.5 "/>
<text text-anchor="middle" x="945.5" y="-268.3" font-family="Times,serif" font-size="14.00" fill="#000000">108</text>
<polyline fill="none" stroke="#000000" points="927,-260.5 964,-260.5 "/>
<text text-anchor="middle" x="945.5" y="-245.3" font-family="Times,serif" font-size="14.00" fill="#000000">111</text>
<polyline fill="none" stroke="#000000" points="964,-237.5 964,-283.5 "/>
<text text-anchor="middle" x="982.5" y="-268.3" font-family="Times,serif" font-size="14.00" fill="#000000">111</text>
<polyline fill="none" stroke="#000000" points="964,-260.5 1001,-260.5 "/>
<text text-anchor="middle" x="982.5" y="-245.3" font-family="Times,serif" font-size="14.00" fill="#000000">114</text>
<polyline fill="none" stroke="#000000" points="901,-237.5 1001,-237.5 "/>
<text text-anchor="middle" x="951" y="-222.3" font-family="Times,serif" font-size="14.00" fill="#000000">slack: 3</text>
</g>

<g id="edge22" class="edge">
<title>D&#45;&gt;R</title>
<path fill="none" stroke="#000000" d="M331.4531,-217.5091C382.8631,-204.5007 469.2882,-186 545,-186 545,-186 545,-186 681.5,-186 762.6075,-186 785.141,-182.2758 863,-205 872.4692,-207.7637 882.1445,-211.5197 891.4509,-215.6795"/>
<polygon fill="#000000" stroke="#000000" points="890.0708,-218.8977 900.613,-219.9522 893.0293,-212.5536 890.0708,-218.8977"/>
</g>

<g id="node11" class="node">
<title>K</title>
<polygon fill="#cd5c5c" stroke="#000000" points="500,-252.5 500,-321.5 590,-321.5 590,-252.5 500,-252.5"/>
<text text-anchor="middle" x="515" y="-306.3" font-family="Times,serif" font-size="14.00" fill="#000000">K</text>
<polyline fill="none" stroke="#000000" points="500,-298.5 530,-298.5 "/>
<text text-anchor="middle" x="515" y="-283.3" font-family="Times,serif" font-size="14.00" fill="#000000">13</text>
<polyline fill="none" stroke="#000000" points="530,-275.5 530,-321.5 "/>
<text text-anchor="middle" x="545" y="-306.3" font-family="Times,serif" font-size="14.00" fill="#000000">55</text>
<polyline fill="none" stroke="#000000" points="530,-298.5 560,-298.5 "/>
<text text-anchor="middle" x="545" y="-283.3" font-family="Times,serif" font-size="14.00" fill="#000000">55</text>
<polyline fill="none" stroke="#000000" points="560,-275.5 560,-321.5 "/>
<text text-anchor="middle" x="575" y="-306.3" font-family="Times,serif" font-size="14.00" fill="#000000">68</text>
<polyline fill="none" stroke="#000000" points="560,-298.5 590,-298.5 "/>
<text text-anchor="middle" x="575" y="-283.3" font-family="Times,serif" font-size="14.00" fill="#000000">68</text>
<polyline fill="none" stroke="#000000" points="500,-275.5 590,-275.5 "/>
<text text-anchor="middle" x="545" y="-260.3" font-family="Times,serif" font-size="14.00" fill="#000000">slack: 0</text>
</g>

<g id="edge14" class="edge">
<title>E&#45;&gt;K</title>
<path fill="none" stroke="#000000" d="M457.0277,-343.2229C467.9573,-336.2378 479.7537,-328.6988 491.0489,-321.48"/>
<polygon fill="#000000" stroke="#000000" points="493.0247,-324.3711 499.5661,-316.0367 489.2551,-318.4727 493.0247,-324.3711"/>
</g>

<g id="node23" class="node">
<title>Z</title>
<polygon fill="#cd5c5c" stroke="#000000" points="1449,-245.5 1449,-314.5 1548,-314.5 1548,-245.5 1449,-245.5"/>
<text text-anchor="middle" x="1461.5" y="-299.3" font-family="Times,serif" font-size="14.00" fill="#000000">Z</text>
<polyline fill="none" stroke="#000000" points="1449,-291.5 1474,-291.5 "/>
<text text-anchor="middle" x="1461.5" y="-276.3" font-family="Times,serif" font-size="14.00" fill="#000000">0</text>
<polyline fill="none" stroke="#000000" points="1474,-268.5 1474,-314.5 "/>
<text text-anchor="middle" x="1492.5" y="-299.3" font-family="Times,serif" font-size="14.00" fill="#000000">128</text>
<polyline fill="none" stroke="#000000" points="1474,-291.5 1511,-291.5 "/>
<text text-anchor="middle" x="1492.5" y="-276.3" font-family="Times,serif" font-size="14.00" fill="#000000">128</text>
<polyline fill="none" stroke="#000000" points="1511,-268.5 1511,-314.5 "/>
<text text-anchor="middle" x="1529.5" y="-299.3" font-family="Times,serif" font-size="14.00" fill="#000000">128</text>
<polyline fill="none" stroke="#000000" points="1511,-291.5 1548,-291.5 "/>
<text text-anchor="middle" x="1529.5" y="-276.3" font-family="Times,serif" font-size="14.00" fill="#000000">128</text>
<polyline fill="none" stroke="#000000" points="1449,-268.5 1548,-268.5 "/>
<text text-anchor="middle" x="1498.5" y="-253.3" font-family="Times,serif" font-size="14.00" fill="#000000">slack: 0</text>
</g>

<g id="edge32" class="edge">
<title>F&#45;&gt;Z</title>
<path fill="none" stroke="#000000" d="M1003.2031,-435.1096C1068.5182,-430.3759 1183.1875,-418.3538 1277,-389 1334.9744,-370.8599 1396.6502,-339.3944 1440.1578,-314.9194"/>
<polygon fill="#000000" stroke="#000000" points="1441.9146,-317.9468 1448.8842,-309.9671 1438.4596,-311.8588 1441.9146,-317.9468"/>
</g>

<g id="node8" class="node">
<title>H</title>
<polygon fill="none" stroke="#000000" points="496.5,-88.5 496.5,-157.5 593.5,-157.5 593.5,-88.5 496.5,-88.5"/>
<text text-anchor="middle" x="511.5" y="-142.3" font-family="Times,serif" font-size="14.00" fill="#000000">H</text>
<polyline fill="none" stroke="#000000" points="496.5,-134.5 526.5,-134.5 "/>
<text text-anchor="middle" x="511.5" y="-119.3" font-family="Times,serif" font-size="14.00" fill="#000000">45</text>
<polyline fill="none" stroke="#000000" points="526.5,-111.5 526.5,-157.5 "/>
<text text-anchor="middle" x="541.5" y="-142.3" font-family="Times,serif" font-size="14.00" fill="#000000">64</text>
<polyline fill="none" stroke="#000000" points="526.5,-134.5 556.5,-134.5 "/>
<text text-anchor="middle" x="541.5" y="-119.3" font-family="Times,serif" font-size="14.00" fill="#000000">75</text>
<polyline fill="none" stroke="#000000" points="556.5,-111.5 556.5,-157.5 "/>
<text text-anchor="middle" x="575" y="-142.3" font-family="Times,serif" font-size="14.00" fill="#000000">109</text>
<polyline fill="none" stroke="#000000" points="556.5,-134.5 593.5,-134.5 "/>
<text text-anchor="middle" x="575" y="-119.3" font-family="Times,serif" font-size="14.00" fill="#000000">120</text>
<polyline fill="none" stroke="#000000" points="496.5,-111.5 593.5,-111.5 "/>
<text text-anchor="middle" x="545" y="-96.3" font-family="Times,serif" font-size="14.00" fill="#000000">slack: 11</text>
</g>

<g id="edge10" class="edge">
<title>G&#45;&gt;H</title>
<path fill="none" stroke="#000000" d="M457.0277,-123C466.4242,-123 476.4614,-123 486.2699,-123"/>
<polygon fill="#000000" stroke="#000000" points="486.3723,-126.5001 496.3723,-123 486.3722,-119.5001 486.3723,-126.5001"/>
</g>

<g id="node10" class="node">
<title>J</title>
<polygon fill="none" stroke="#000000" points="633,-.5 633,-69.5 730,-69.5 730,-.5 633,-.5"/>
<text text-anchor="middle" x="644.5" y="-54.3" font-family="Times,serif" font-size="14.00" fill="#000000">J</text>
<polyline fill="none" stroke="#000000" points="633,-46.5 656,-46.5 "/>
<text text-anchor="middle" x="644.5" y="-31.3" font-family="Times,serif" font-size="14.00" fill="#000000">7</text>
<polyline fill="none" stroke="#000000" points="656,-23.5 656,-69.5 "/>
<text text-anchor="middle" x="674.5" y="-54.3" font-family="Times,serif" font-size="14.00" fill="#000000">109</text>
<polyline fill="none" stroke="#000000" points="656,-46.5 693,-46.5 "/>
<text text-anchor="middle" x="674.5" y="-31.3" font-family="Times,serif" font-size="14.00" fill="#000000">120</text>
<polyline fill="none" stroke="#000000" points="693,-23.5 693,-69.5 "/>
<text text-anchor="middle" x="711.5" y="-54.3" font-family="Times,serif" font-size="14.00" fill="#000000">116</text>
<polyline fill="none" stroke="#000000" points="693,-46.5 730,-46.5 "/>
<text text-anchor="middle" x="711.5" y="-31.3" font-family="Times,serif" font-size="14.00" fill="#000000">127</text>
<polyline fill="none" stroke="#000000" points="633,-23.5 730,-23.5 "/>
<text text-anchor="middle" x="681.5" y="-8.3" font-family="Times,serif" font-size="14.00" fill="#000000">slack: 11</text>
</g>

<g id="edge12" class="edge">
<title>H&#45;&gt;J</title>
<path fill="none" stroke="#000000" d="M593.5091,-91.7267C603.447,-85.3199 613.9957,-78.5192 624.2084,-71.9352"/>
<polygon fill="#000000" stroke="#000000" points="626.1789,-74.8293 632.6872,-66.4691 622.3859,-68.9459 626.1789,-74.8293"/>
</g>

<g id="edge13" class="edge">
<title>I&#45;&gt;J</title>
<path fill="none" stroke="#000000" d="M597.3841,-35C605.6155,-35 614.1728,-35 622.5403,-35"/>
<polygon fill="#000000" stroke="#000000" points="622.618,-38.5001 632.618,-35 622.6179,-31.5001 622.618,-38.5001"/>
</g>

<g id="node22" class="node">
<title>V</title>
<polygon fill="none" stroke="#000000" points="1313,-126.5 1313,-195.5 1413,-195.5 1413,-126.5 1313,-126.5"/>
<text text-anchor="middle" x="1326" y="-180.3" font-family="Times,serif" font-size="14.00" fill="#000000">V</text>
<polyline fill="none" stroke="#000000" points="1313,-172.5 1339,-172.5 "/>
<text text-anchor="middle" x="1326" y="-157.3" font-family="Times,serif" font-size="14.00" fill="#000000">1</text>
<polyline fill="none" stroke="#000000" points="1339,-149.5 1339,-195.5 "/>
<text text-anchor="middle" x="1357.5" y="-180.3" font-family="Times,serif" font-size="14.00" fill="#000000">124</text>
<polyline fill="none" stroke="#000000" points="1339,-172.5 1376,-172.5 "/>
<text text-anchor="middle" x="1357.5" y="-157.3" font-family="Times,serif" font-size="14.00" fill="#000000">127</text>
<polyline fill="none" stroke="#000000" points="1376,-149.5 1376,-195.5 "/>
<text text-anchor="middle" x="1394.5" y="-180.3" font-family="Times,serif" font-size="14.00" fill="#000000">125</text>
<polyline fill="none" stroke="#000000" points="1376,-172.5 1413,-172.5 "/>
<text text-anchor="middle" x="1394.5" y="-157.3" font-family="Times,serif" font-size="14.00" fill="#000000">128</text>
<polyline fill="none" stroke="#000000" points="1313,-149.5 1413,-149.5 "/>
<text text-anchor="middle" x="1363" y="-134.3" font-family="Times,serif" font-size="14.00" fill="#000000">slack: 3</text>
</g>

<g id="edge28" class="edge">
<title>J&#45;&gt;V</title>
<path fill="none" stroke="#000000" d="M730.1858,-35C784.1594,-35 873.7995,-35 951,-35 951,-35 951,-35 1088,-35 1171.4971,-35 1257.3545,-83.6019 1310.433,-120.4352"/>
<polygon fill="#000000" stroke="#000000" points="1308.4746,-123.3368 1318.665,-126.2364 1312.507,-117.6149 1308.4746,-123.3368"/>
</g>

<g id="node12" class="node">
<title>L</title>
<polygon fill="none" stroke="#000000" points="639,-252.5 639,-321.5 724,-321.5 724,-252.5 639,-252.5"/>
<text text-anchor="middle" x="651.5" y="-306.3" font-family="Times,serif" font-size="14.00" fill="#000000">L</text>
<polyline fill="none" stroke="#000000" points="639,-298.5 664,-298.5 "/>
<text text-anchor="middle" x="651.5" y="-283.3" font-family="Times,serif" font-size="14.00" fill="#000000">5</text>
<polyline fill="none" stroke="#000000" points="664,-275.5 664,-321.5 "/>
<text text-anchor="middle" x="679" y="-306.3" font-family="Times,serif" font-size="14.00" fill="#000000">68</text>
<polyline fill="none" stroke="#000000" points="664,-298.5 694,-298.5 "/>
<text text-anchor="middle" x="679" y="-283.3" font-family="Times,serif" font-size="14.00" fill="#000000">69</text>
<polyline fill="none" stroke="#000000" points="694,-275.5 694,-321.5 "/>
<text text-anchor="middle" x="709" y="-306.3" font-family="Times,serif" font-size="14.00" fill="#000000">73</text>
<polyline fill="none" stroke="#000000" points="694,-298.5 724,-298.5 "/>
<text text-anchor="middle" x="709" y="-283.3" font-family="Times,serif" font-size="14.00" fill="#000000">74</text>
<polyline fill="none" stroke="#000000" points="639,-275.5 724,-275.5 "/>
<text text-anchor="middle" x="681.5" y="-260.3" font-family="Times,serif" font-size="14.00" fill="#000000">slack: 1</text>
</g>

<g id="edge15" class="edge">
<title>K&#45;&gt;L</title>
<path fill="none" stroke="#000000" d="M590.0735,-287C602.451,-287 615.9825,-287 628.75,-287"/>
<polygon fill="#000000" stroke="#000000" points="628.7888,-290.5001 638.7888,-287 628.7888,-283.5001 628.7888,-290.5001"/>
</g>

<g id="node13" class="node">
<title>M</title>
<polygon fill="none" stroke="#000000" points="766,-214.5 766,-283.5 863,-283.5 863,-214.5 766,-214.5"/>
<text text-anchor="middle" x="781" y="-268.3" font-family="Times,serif" font-size="14.00" fill="#000000">M</text>
<polyline fill="none" stroke="#000000" points="766,-260.5 796,-260.5 "/>
<text text-anchor="middle" x="781" y="-245.3" font-family="Times,serif" font-size="14.00" fill="#000000">27</text>
<polyline fill="none" stroke="#000000" points="796,-237.5 796,-283.5 "/>
<text text-anchor="middle" x="811" y="-268.3" font-family="Times,serif" font-size="14.00" fill="#000000">68</text>
<polyline fill="none" stroke="#000000" points="796,-260.5 826,-260.5 "/>
<text text-anchor="middle" x="811" y="-245.3" font-family="Times,serif" font-size="14.00" fill="#000000">81</text>
<polyline fill="none" stroke="#000000" points="826,-237.5 826,-283.5 "/>
<text text-anchor="middle" x="844.5" y="-268.3" font-family="Times,serif" font-size="14.00" fill="#000000">95</text>
<polyline fill="none" stroke="#000000" points="826,-260.5 863,-260.5 "/>
<text text-anchor="middle" x="844.5" y="-245.3" font-family="Times,serif" font-size="14.00" fill="#000000">108</text>
<polyline fill="none" stroke="#000000" points="766,-237.5 863,-237.5 "/>
<text text-anchor="middle" x="814.5" y="-222.3" font-family="Times,serif" font-size="14.00" fill="#000000">slack: 13</text>
</g>

<g id="edge16" class="edge">
<title>K&#45;&gt;M</title>
<path fill="none" stroke="#000000" d="M590.0527,-259.4851C603.4007,-252.7319 618.3708,-246.4535 633,-243 673.0759,-233.5394 719.502,-235.2938 755.3674,-239.2823"/>
<polygon fill="#000000" stroke="#000000" points="755.3172,-242.8014 765.6635,-240.5201 756.1528,-235.8514 755.3172,-242.8014"/>
</g>

<g id="node15" class="node">
<title>O</title>
<polygon fill="#cd5c5c" stroke="#000000" points="638.5,-340.5 638.5,-409.5 724.5,-409.5 724.5,-340.5 638.5,-340.5"/>
<text text-anchor="middle" x="651.5" y="-394.3" font-family="Times,serif" font-size="14.00" fill="#000000">O</text>
<polyline fill="none" stroke="#000000" points="638.5,-386.5 664.5,-386.5 "/>
<text text-anchor="middle" x="651.5" y="-371.3" font-family="Times,serif" font-size="14.00" fill="#000000">6</text>
<polyline fill="none" stroke="#000000" points="664.5,-363.5 664.5,-409.5 "/>
<text text-anchor="middle" x="679.5" y="-394.3" font-family="Times,serif" font-size="14.00" fill="#000000">68</text>
<polyline fill="none" stroke="#000000" points="664.5,-386.5 694.5,-386.5 "/>
<text text-anchor="middle" x="679.5" y="-371.3" font-family="Times,serif" font-size="14.00" fill="#000000">68</text>
<polyline fill="none" stroke="#000000" points="694.5,-363.5 694.5,-409.5 "/>
<text text-anchor="middle" x="709.5" y="-394.3" font-family="Times,serif" font-size="14.00" fill="#000000">74</text>
<polyline fill="none" stroke="#000000" points="694.5,-386.5 724.5,-386.5 "/>
<text text-anchor="middle" x="709.5" y="-371.3" font-family="Times,serif" font-size="14.00" fill="#000000">74</text>
<polyline fill="none" stroke="#000000" points="638.5,-363.5 724.5,-363.5 "/>
<text text-anchor="middle" x="681.5" y="-348.3" font-family="Times,serif" font-size="14.00" fill="#000000">slack: 0</text>
</g>

<g id="edge19" class="edge">
<title>K&#45;&gt;O</title>
<path fill="none" stroke="#000000" d="M590.0735,-316.0584C602.8138,-324.2719 616.7767,-333.2737 629.8706,-341.7151"/>
<polygon fill="#000000" stroke="#000000" points="628.0269,-344.6907 638.3281,-347.1676 631.8198,-338.8074 628.0269,-344.6907"/>
</g>

<g id="node14" class="node">
<title>N</title>
<polygon fill="#cd5c5c" stroke="#000000" points="766,-340.5 766,-409.5 863,-409.5 863,-340.5 766,-340.5"/>
<text text-anchor="middle" x="781" y="-394.3" font-family="Times,serif" font-size="14.00" fill="#000000">N</text>
<polyline fill="none" stroke="#000000" points="766,-386.5 796,-386.5 "/>
<text text-anchor="middle" x="781" y="-371.3" font-family="Times,serif" font-size="14.00" fill="#000000">34</text>
<polyline fill="none" stroke="#000000" points="796,-363.5 796,-409.5 "/>
<text text-anchor="middle" x="811" y="-394.3" font-family="Times,serif" font-size="14.00" fill="#000000">74</text>
<polyline fill="none" stroke="#000000" points="796,-386.5 826,-386.5 "/>
<text text-anchor="middle" x="811" y="-371.3" font-family="Times,serif" font-size="14.00" fill="#000000">74</text>
<polyline fill="none" stroke="#000000" points="826,-363.5 826,-409.5 "/>
<text text-anchor="middle" x="844.5" y="-394.3" font-family="Times,serif" font-size="14.00" fill="#000000">108</text>
<polyline fill="none" stroke="#000000" points="826,-386.5 863,-386.5 "/>
<text text-anchor="middle" x="844.5" y="-371.3" font-family="Times,serif" font-size="14.00" fill="#000000">108</text>
<polyline fill="none" stroke="#000000" points="766,-363.5 863,-363.5 "/>
<text text-anchor="middle" x="814.5" y="-348.3" font-family="Times,serif" font-size="14.00" fill="#000000">slack: 0</text>
</g>

<g id="edge17" class="edge">
<title>L&#45;&gt;N</title>
<path fill="none" stroke="#000000" d="M724.3141,-315.3281C734.8434,-322.2949 746.2839,-329.8645 757.3699,-337.1997"/>
<polygon fill="#000000" stroke="#000000" points="755.4863,-340.1501 765.7574,-342.7493 759.349,-334.3123 755.4863,-340.1501"/>
</g>

<g id="edge7" class="edge">
<title>M&#45;&gt;F</title>
<path fill="none" stroke="#000000" d="M839.5362,-283.6655C862.1701,-315.0048 895.5757,-361.2586 919.912,-394.9551"/>
<polygon fill="#000000" stroke="#000000" points="917.1994,-397.1772 925.8918,-403.2347 922.8742,-393.0787 917.1994,-397.1772"/>
</g>

<g id="node16" class="node">
<title>P</title>
<polygon fill="none" stroke="#000000" points="1039,-63.5 1039,-132.5 1137,-132.5 1137,-63.5 1039,-63.5"/>
<text text-anchor="middle" x="1051" y="-117.3" font-family="Times,serif" font-size="14.00" fill="#000000">P</text>
<polyline fill="none" stroke="#000000" points="1039,-109.5 1063,-109.5 "/>
<text text-anchor="middle" x="1051" y="-94.3" font-family="Times,serif" font-size="14.00" fill="#000000">5</text>
<polyline fill="none" stroke="#000000" points="1063,-86.5 1063,-132.5 "/>
<text text-anchor="middle" x="1081.5" y="-117.3" font-family="Times,serif" font-size="14.00" fill="#000000">95</text>
<polyline fill="none" stroke="#000000" points="1063,-109.5 1100,-109.5 "/>
<text text-anchor="middle" x="1081.5" y="-94.3" font-family="Times,serif" font-size="14.00" fill="#000000">122</text>
<polyline fill="none" stroke="#000000" points="1100,-86.5 1100,-132.5 "/>
<text text-anchor="middle" x="1118.5" y="-117.3" font-family="Times,serif" font-size="14.00" fill="#000000">100</text>
<polyline fill="none" stroke="#000000" points="1100,-109.5 1137,-109.5 "/>
<text text-anchor="middle" x="1118.5" y="-94.3" font-family="Times,serif" font-size="14.00" fill="#000000">127</text>
<polyline fill="none" stroke="#000000" points="1039,-86.5 1137,-86.5 "/>
<text text-anchor="middle" x="1088" y="-71.3" font-family="Times,serif" font-size="14.00" fill="#000000">slack: 27</text>
</g>

<g id="edge20" class="edge">
<title>M&#45;&gt;P</title>
<path fill="none" stroke="#000000" d="M863.0812,-222.1782C909.7571,-196.4083 980.3233,-157.4486 1029.9399,-130.0551"/>
<polygon fill="#000000" stroke="#000000" points="1031.8874,-132.9779 1038.9502,-125.0805 1028.5041,-126.8499 1031.8874,-132.9779"/>
</g>

<g id="node17" class="node">
<title>Q</title>
<polygon fill="none" stroke="#000000" points="1173,-277.5 1173,-346.5 1277,-346.5 1277,-277.5 1173,-277.5"/>
<text text-anchor="middle" x="1188" y="-331.3" font-family="Times,serif" font-size="14.00" fill="#000000">Q</text>
<polyline fill="none" stroke="#000000" points="1173,-323.5 1203,-323.5 "/>
<text text-anchor="middle" x="1188" y="-308.3" font-family="Times,serif" font-size="14.00" fill="#000000">20</text>
<polyline fill="none" stroke="#000000" points="1203,-300.5 1203,-346.5 "/>
<text text-anchor="middle" x="1221.5" y="-331.3" font-family="Times,serif" font-size="14.00" fill="#000000">95</text>
<polyline fill="none" stroke="#000000" points="1203,-323.5 1240,-323.5 "/>
<text text-anchor="middle" x="1221.5" y="-308.3" font-family="Times,serif" font-size="14.00" fill="#000000">108</text>
<polyline fill="none" stroke="#000000" points="1240,-300.5 1240,-346.5 "/>
<text text-anchor="middle" x="1258.5" y="-331.3" font-family="Times,serif" font-size="14.00" fill="#000000">115</text>
<polyline fill="none" stroke="#000000" points="1240,-323.5 1277,-323.5 "/>
<text text-anchor="middle" x="1258.5" y="-308.3" font-family="Times,serif" font-size="14.00" fill="#000000">128</text>
<polyline fill="none" stroke="#000000" points="1173,-300.5 1277,-300.5 "/>
<text text-anchor="middle" x="1225" y="-285.3" font-family="Times,serif" font-size="14.00" fill="#000000">slack: 13</text>
</g>

<g id="edge21" class="edge">
<title>M&#45;&gt;Q</title>
<path fill="none" stroke="#000000" d="M863.1073,-278.7112C874.5121,-284.4216 886.8823,-289.6574 899,-293 988.0986,-317.577 1095.9258,-318.5567 1162.4937,-316.0269"/>
<polygon fill="#000000" stroke="#000000" points="1162.9696,-319.5101 1172.814,-315.5938 1162.676,-312.5162 1162.9696,-319.5101"/>
</g>

<g id="edge23" class="edge">
<title>M&#45;&gt;R</title>
<path fill="none" stroke="#000000" d="M863.0091,-249C871.9172,-249 881.3163,-249 890.5241,-249"/>
<polygon fill="#000000" stroke="#000000" points="890.8024,-252.5001 900.8024,-249 890.8023,-245.5001 890.8024,-252.5001"/>
</g>

<g id="edge8" class="edge">
<title>N&#45;&gt;F</title>
<path fill="none" stroke="#000000" d="M863.0091,-397.3888C871.6538,-401.3787 880.7609,-405.5819 889.7068,-409.7108"/>
<polygon fill="#000000" stroke="#000000" points="888.3986,-412.9618 898.9449,-413.9746 891.332,-406.6061 888.3986,-412.9618"/>
</g>

<g id="edge24" class="edge">
<title>N&#45;&gt;R</title>
<path fill="none" stroke="#000000" d="M852.1606,-340.2364C868.7211,-324.9498 888.3112,-306.8666 905.6652,-290.8475"/>
<polygon fill="#000000" stroke="#000000" points="908.4883,-293.0048 913.4623,-283.6501 903.7403,-287.8612 908.4883,-293.0048"/>
</g>

<g id="edge29" class="edge">
<title>N&#45;&gt;V</title>
<path fill="none" stroke="#000000" d="M863.0983,-380.0786C968.8077,-390.0321 1215.1196,-406.9584 1277,-356 1330.2578,-312.1422 1277.4346,-264.1185 1313,-205 1313.2459,-204.5913 1313.4968,-204.1843 1313.7526,-203.7791"/>
<polygon fill="#000000" stroke="#000000" points="1316.6888,-205.6929 1319.7561,-195.5518 1311.0342,-201.5667 1316.6888,-205.6929"/>
</g>

<g id="edge18" class="edge">
<title>O&#45;&gt;N</title>
<path fill="none" stroke="#000000" d="M724.6813,-375C734.4659,-375 745.0217,-375 755.339,-375"/>
<polygon fill="#000000" stroke="#000000" points="755.5394,-378.5001 765.5394,-375 755.5393,-371.5001 755.5394,-378.5001"/>
</g>

<g id="edge30" class="edge">
<title>P&#45;&gt;V</title>
<path fill="none" stroke="#000000" d="M1137.0638,-103.8639C1175.5166,-109.0441 1230.1667,-117.6995 1277,-130 1285.6801,-132.2798 1294.7216,-135.065 1303.5413,-138.021"/>
<polygon fill="#000000" stroke="#000000" points="1302.4023,-141.3304 1312.997,-141.2798 1304.6832,-134.7124 1302.4023,-141.3304"/>
</g>

<g id="edge33" class="edge">
<title>Q&#45;&gt;Z</title>
<path fill="none" stroke="#000000" d="M1277.3502,-307.4188C1315.1106,-303.9416 1367.273,-298.7833 1413,-293 1421.3509,-291.9438 1430.1446,-290.7268 1438.7868,-289.47"/>
<polygon fill="#000000" stroke="#000000" points="1439.4471,-292.9105 1448.8266,-287.9836 1438.4219,-285.9859 1439.4471,-292.9105"/>
</g>

<g id="node19" class="node">
<title>S</title>
<polygon fill="none" stroke="#000000" points="1039,-151.5 1039,-220.5 1137,-220.5 1137,-151.5 1039,-151.5"/>
<text text-anchor="middle" x="1051" y="-205.3" font-family="Times,serif" font-size="14.00" fill="#000000">S</text>
<polyline fill="none" stroke="#000000" points="1039,-197.5 1063,-197.5 "/>
<text text-anchor="middle" x="1051" y="-182.3" font-family="Times,serif" font-size="14.00" fill="#000000">9</text>
<polyline fill="none" stroke="#000000" points="1063,-174.5 1063,-220.5 "/>
<text text-anchor="middle" x="1081.5" y="-205.3" font-family="Times,serif" font-size="14.00" fill="#000000">111</text>
<polyline fill="none" stroke="#000000" points="1063,-197.5 1100,-197.5 "/>
<text text-anchor="middle" x="1081.5" y="-182.3" font-family="Times,serif" font-size="14.00" fill="#000000">114</text>
<polyline fill="none" stroke="#000000" points="1100,-174.5 1100,-220.5 "/>
<text text-anchor="middle" x="1118.5" y="-205.3" font-family="Times,serif" font-size="14.00" fill="#000000">120</text>
<polyline fill="none" stroke="#000000" points="1100,-197.5 1137,-197.5 "/>
<text text-anchor="middle" x="1118.5" y="-182.3" font-family="Times,serif" font-size="14.00" fill="#000000">123</text>
<polyline fill="none" stroke="#000000" points="1039,-174.5 1137,-174.5 "/>
<text text-anchor="middle" x="1088" y="-159.3" font-family="Times,serif" font-size="14.00" fill="#000000">slack: 3</text>
</g>

<g id="edge25" class="edge">
<title>R&#45;&gt;S</title>
<path fill="none" stroke="#000000" d="M1001.2358,-225.8989C1010.3998,-221.6848 1020.0343,-217.2543 1029.4153,-212.9404"/>
<polygon fill="#000000" stroke="#000000" points="1031.0619,-216.0356 1038.685,-208.6777 1028.1373,-209.6758 1031.0619,-216.0356"/>
</g>

<g id="node21" class="node">
<title>U</title>
<polygon fill="none" stroke="#000000" points="1313,-214.5 1313,-283.5 1413,-283.5 1413,-214.5 1313,-214.5"/>
<text text-anchor="middle" x="1326" y="-268.3" font-family="Times,serif" font-size="14.00" fill="#000000">U</text>
<polyline fill="none" stroke="#000000" points="1313,-260.5 1339,-260.5 "/>
<text text-anchor="middle" x="1326" y="-245.3" font-family="Times,serif" font-size="14.00" fill="#000000">5</text>
<polyline fill="none" stroke="#000000" points="1339,-237.5 1339,-283.5 "/>
<text text-anchor="middle" x="1357.5" y="-268.3" font-family="Times,serif" font-size="14.00" fill="#000000">111</text>
<polyline fill="none" stroke="#000000" points="1339,-260.5 1376,-260.5 "/>
<text text-anchor="middle" x="1357.5" y="-245.3" font-family="Times,serif" font-size="14.00" fill="#000000">123</text>
<polyline fill="none" stroke="#000000" points="1376,-237.5 1376,-283.5 "/>
<text text-anchor="middle" x="1394.5" y="-268.3" font-family="Times,serif" font-size="14.00" fill="#000000">116</text>
<polyline fill="none" stroke="#000000" points="1376,-260.5 1413,-260.5 "/>
<text text-anchor="middle" x="1394.5" y="-245.3" font-family="Times,serif" font-size="14.00" fill="#000000">128</text>
<polyline fill="none" stroke="#000000" points="1313,-237.5 1413,-237.5 "/>
<text text-anchor="middle" x="1363" y="-222.3" font-family="Times,serif" font-size="14.00" fill="#000000">slack: 12</text>
</g>

<g id="edge27" class="edge">
<title>R&#45;&gt;U</title>
<path fill="none" stroke="#000000" d="M1001.1074,-249C1077.0968,-249 1221.242,-249 1302.8075,-249"/>
<polygon fill="#000000" stroke="#000000" points="1302.9195,-252.5001 1312.9195,-249 1302.9195,-245.5001 1302.9195,-252.5001"/>
</g>

<g id="node20" class="node">
<title>T</title>
<polygon fill="none" stroke="#000000" points="1175.5,-139.5 1175.5,-208.5 1274.5,-208.5 1274.5,-139.5 1175.5,-139.5"/>
<text text-anchor="middle" x="1188" y="-193.3" font-family="Times,serif" font-size="14.00" fill="#000000">T</text>
<polyline fill="none" stroke="#000000" points="1175.5,-185.5 1200.5,-185.5 "/>
<text text-anchor="middle" x="1188" y="-170.3" font-family="Times,serif" font-size="14.00" fill="#000000">4</text>
<polyline fill="none" stroke="#000000" points="1200.5,-162.5 1200.5,-208.5 "/>
<text text-anchor="middle" x="1219" y="-193.3" font-family="Times,serif" font-size="14.00" fill="#000000">120</text>
<polyline fill="none" stroke="#000000" points="1200.5,-185.5 1237.5,-185.5 "/>
<text text-anchor="middle" x="1219" y="-170.3" font-family="Times,serif" font-size="14.00" fill="#000000">123</text>
<polyline fill="none" stroke="#000000" points="1237.5,-162.5 1237.5,-208.5 "/>
<text text-anchor="middle" x="1256" y="-193.3" font-family="Times,serif" font-size="14.00" fill="#000000">124</text>
<polyline fill="none" stroke="#000000" points="1237.5,-185.5 1274.5,-185.5 "/>
<text text-anchor="middle" x="1256" y="-170.3" font-family="Times,serif" font-size="14.00" fill="#000000">127</text>
<polyline fill="none" stroke="#000000" points="1175.5,-162.5 1274.5,-162.5 "/>
<text text-anchor="middle" x="1225" y="-147.3" font-family="Times,serif" font-size="14.00" fill="#000000">slack: 3</text>
</g>

<g id="edge26" class="edge">
<title>S&#45;&gt;T</title>
<path fill="none" stroke="#000000" d="M1137.0732,-181.7016C1146.2074,-180.9015 1155.8441,-180.0574 1165.2566,-179.233"/>
<polygon fill="#000000" stroke="#000000" points="1165.6912,-182.7084 1175.3477,-178.3491 1165.0804,-175.7351 1165.6912,-182.7084"/>
</g>

<g id="edge31" class="edge">
<title>T&#45;&gt;V</title>
<path fill="none" stroke="#000000" d="M1274.8212,-169.3067C1283.8926,-168.4521 1293.4445,-167.5523 1302.7786,-166.673"/>
<polygon fill="#000000" stroke="#000000" points="1303.1608,-170.1526 1312.7885,-165.7301 1302.5042,-163.1835 1303.1608,-170.1526"/>
</g>

<g id="edge34" class="edge">
<title>U&#45;&gt;Z</title>
<path fill="none" stroke="#000000" d="M1413.0702,-260.4552C1421.4148,-262.3643 1430.1441,-264.3614 1438.7018,-266.3192"/>
<polygon fill="#000000" stroke="#000000" points="1438.1068,-269.7735 1448.6356,-268.5919 1439.668,-262.9498 1438.1068,-269.7735"/>
</g>

<g id="edge35" class="edge">
<title>V&#45;&gt;Z</title>
<path fill="none" stroke="#000000" d="M1402.5565,-195.7396C1417.862,-209.1814 1435.5041,-224.6752 1451.4529,-238.6819"/>
<polygon fill="#000000" stroke="#000000" points="1449.3053,-241.4539 1459.1286,-245.4229 1453.9244,-236.1943 1449.3053,-241.4539"/>
</g>
</g>
</svg>
