<?xml version="1.0" encoding="UTF-8" standalone="no"?>
<!DOCTYPE svg PUBLIC "-//W3C//DTD SVG 1.1//EN"
 "http://www.w3.org/Graphics/SVG/1.1/DTD/svg11.dtd">


<svg width="1549pt" height="481pt"
 viewBox="0.00 0.00 1549.00 481.00" xmlns="http://www.w3.org/2000/svg" xmlns:xlink="http://www.w3.org/1999/xlink">
<g id="graph0" class="graph" transform="scale(1 1) rotate(0) translate(4 477)">
<title>structs</title>
<polygon fill="#ffffff" stroke="transparent" points="-4,4 -4,-477 1545,-477 1545,4 -4,4"/>

<g id="node1" class="node">
<title>A</title>
<polygon fill="none" stroke="#000000" points="0,-198.5 0,-267.5 83,-267.5 83,-198.5 0,-198.5"/>
<text text-anchor="middle" x="15" y="-252.3" font-family="Times,serif" font-size="14.00" fill="#000000">A</text>
<polyline fill="none" stroke="#000000" points="0,-244.5 30,-244.5 "/>
<text text-anchor="middle" x="15" y="-229.3" font-family="Times,serif" font-size="14.00" fill="#000000">10</text>
<polyline fill="none" stroke="#000000" points="30,-221.5 30,-267.5 "/>
<text text-anchor="middle" x="41.5" y="-252.3" font-family="Times,serif" font-size="14.00" fill="#000000">0</text>
<polyline fill="none" stroke="#000000" points="30,-244.5 53,-244.5 "/>
<text text-anchor="middle" x="41.5" y="-229.3" font-family="Times,serif" font-size="14.00" fill="#000000">4</text>
<polyline fill="none" stroke="#000000" points="53,-221.5 53,-267.5 "/>
<text text-anchor="middle" x="68" y="-252.3" font-family="Times,serif" font-size="14.00" fill="#000000">10</text>
<polyline fill="none" stroke="#000000" points="53,-244.5 83,-244.5 "/>
<text text-anchor="middle" x="68" y="-229.3" font-family="Times,serif" font-size="14.00" fill="#000000">14</text>
<polyline fill="none" stroke="#000000" points="0,-221.5 83,-221.5 "/>
<text text-anchor="middle" x="41.5" y="-206.3" font-family="Times,serif" font-size="14.00" fill="#000000">slack: 4</text>
</g>

<g id="node3" class="node">
<title>C</title>
<polygon fill="#cd5c5c" stroke="#000000" points="119,-198.5 119,-267.5 205,-267.5 205,-198.5 119,-198.5"/>
<text text-anchor="middle" x="132" y="-252.3" font-family="Times,serif" font-size="14.00" fill="#000000">C</text>
<polyline fill="none" stroke="#000000" points="119,-244.5 145,-244.5 "/>
<text text-anchor="middle" x="132" y="-229.3" font-family="Times,serif" font-size="14.00" fill="#000000">4</text>
<polyline fill="none" stroke="#000000" points="145,-221.5 145,-267.5 "/>
<text text-anchor="middle" x="160" y="-252.3" font-family="Times,serif" font-size="14.00" fill="#000000">14</text>
<polyline fill="none" stroke="#000000" points="145,-244.5 175,-244.5 "/>
<text text-anchor="middle" x="160" y="-229.3" font-family="Times,serif" font-size="14.00" fill="#000000">14</text>
<polyline fill="none" stroke="#000000" points="175,-221.5 175,-267.5 "/>
<text text-anchor="middle" x="190" y="-252.3" font-family="Times,serif" font-size="14.00" fill="#000000">18</text>
<polyline fill="none" stroke="#000000" points="175,-244.5 205,-244.5 "/>
<text text-anchor="middle" x="190" y="-229.3" font-family="Times,serif" font-size="14.00" fill="#000000">18</text>
<polyline fill="none" stroke="#000000" points="119,-221.5 205,-221.5 "/>
<text text-anchor="middle" x="162" y="-206.3" font-family="Times,serif" font-size="14.00" fill="#000000">slack: 0</text>
</g>

<g id="edge1" class="edge">
<title>A&#45;&gt;C</title>
<path fill="none" stroke="#000000" d="M83.3069,-233C91.4257,-233 100.0389,-233 108.4741,-233"/>
<polygon fill="#000000" stroke="#000000" points="108.6298,-236.5001 118.6297,-233 108.6297,-229.5001 108.6298,-236.5001"/>
</g>

<g id="node2" class="node">
<title>B</title>
<polygon fill="#cd5c5c" stroke="#000000" points="0,-292.5 0,-361.5 83,-361.5 83,-292.5 0,-292.5"/>
<text text-anchor="middle" x="15" y="-346.3" font-family="Times,serif" font-size="14.00" fill="#000000">B</text>
<polyline fill="none" stroke="#000000" points="0,-338.5 30,-338.5 "/>
<text text-anchor="middle" x="15" y="-323.3" font-family="Times,serif" font-size="14.00" fill="#000000">14</text>
<polyline fill="none" stroke="#000000" points="30,-315.5 30,-361.5 "/>
<text text-anchor="middle" x="41.5" y="-346.3" font-family="Times,serif" font-size="14.00" fill="#000000">0</text>
<polyline fill="none" stroke="#000000" points="30,-338.5 53,-338.5 "/>
<text text-anchor="middle" x="41.5" y="-323.3" font-family="Times,serif" font-size="14.00" fill="#000000">0</text>
<polyline fill="none" stroke="#000000" points="53,-315.5 53,-361.5 "/>
<text text-anchor="middle" x="68" y="-346.3" font-family="Times,serif" font-size="14.00" fill="#000000">14</text>
<polyline fill="none" stroke="#000000" points="53,-338.5 83,-338.5 "/>
<text text-anchor="middle" x="68" y="-323.3" font-family="Times,serif" font-size="14.00" fill="#000000">14</text>
<polyline fill="none" stroke="#000000" points="0,-315.5 83,-315.5 "/>
<text text-anchor="middle" x="41.5" y="-300.3" font-family="Times,serif" font-size="14.00" fill="#000000">slack: 0</text>
</g>

<g id="edge2" class="edge">
<title>B&#45;&gt;C</title>
<path fill="none" stroke="#000000" d="M83.3069,-294.3872C92.1394,-287.4971 101.5571,-280.1504 110.6942,-273.0228"/>
<polygon fill="#000000" stroke="#000000" points="112.8978,-275.7428 118.6297,-266.8324 108.5923,-270.2235 112.8978,-275.7428"/>
</g>

<g id="node5" class="node">
<title>E</title>
<polygon fill="#cd5c5c" stroke="#000000" points="369.5,-337.5 369.5,-406.5 454.5,-406.5 454.5,-337.5 369.5,-337.5"/>
<text text-anchor="middle" x="382" y="-391.3" font-family="Times,serif" font-size="14.00" fill="#000000">E</text>
<polyline fill="none" stroke="#000000" points="369.5,-383.5 394.5,-383.5 "/>
<text text-anchor="middle" x="382" y="-368.3" font-family="Times,serif" font-size="14.00" fill="#000000">3</text>
<polyline fill="none" stroke="#000000" points="394.5,-360.5 394.5,-406.5 "/>
<text text-anchor="middle" x="409.5" y="-391.3" font-family="Times,serif" font-size="14.00" fill="#000000">44</text>
<polyline fill="none" stroke="#000000" points="394.5,-383.5 424.5,-383.5 "/>
<text text-anchor="middle" x="409.5" y="-368.3" font-family="Times,serif" font-size="14.00" fill="#000000">44</text>
<polyline fill="none" stroke="#000000" points="424.5,-360.5 424.5,-406.5 "/>
<text text-anchor="middle" x="439.5" y="-391.3" font-family="Times,serif" font-size="14.00" fill="#000000">47</text>
<polyline fill="none" stroke="#000000" points="424.5,-383.5 454.5,-383.5 "/>
<text text-anchor="middle" x="439.5" y="-368.3" font-family="Times,serif" font-size="14.00" fill="#000000">47</text>
<polyline fill="none" stroke="#000000" points="369.5,-360.5 454.5,-360.5 "/>
<text text-anchor="middle" x="412" y="-345.3" font-family="Times,serif" font-size="14.00" fill="#000000">slack: 0</text>
</g>

<g id="edge4" class="edge">
<title>B&#45;&gt;E</title>
<path fill="none" stroke="#000000" d="M83.2809,-332.0746C151.061,-340.307 284.8656,-356.5586 359.157,-365.5818"/>
<polygon fill="#000000" stroke="#000000" points="358.8828,-369.0742 369.2318,-366.8055 359.7268,-362.1252 358.8828,-369.0742"/>
</g>

<g id="node4" class="node">
<title>D</title>
<polygon fill="#cd5c5c" stroke="#000000" points="241,-195.5 241,-264.5 331,-264.5 331,-195.5 241,-195.5"/>
<text text-anchor="middle" x="256" y="-249.3" font-family="Times,serif" font-size="14.00" fill="#000000">D</text>
<polyline fill="none" stroke="#000000" points="241,-241.5 271,-241.5 "/>
<text text-anchor="middle" x="256" y="-226.3" font-family="Times,serif" font-size="14.00" fill="#000000">26</text>
<polyline fill="none" stroke="#000000" points="271,-218.5 271,-264.5 "/>
<text text-anchor="middle" x="286" y="-249.3" font-family="Times,serif" font-size="14.00" fill="#000000">18</text>
<polyline fill="none" stroke="#000000" points="271,-241.5 301,-241.5 "/>
<text text-anchor="middle" x="286" y="-226.3" font-family="Times,serif" font-size="14.00" fill="#000000">18</text>
<polyline fill="none" stroke="#000000" points="301,-218.5 301,-264.5 "/>
<text text-anchor="middle" x="316" y="-249.3" font-family="Times,serif" font-size="14.00" fill="#000000">44</text>
<polyline fill="none" stroke="#000000" points="301,-241.5 331,-241.5 "/>
<text text-anchor="middle" x="316" y="-226.3" font-family="Times,serif" font-size="14.00" fill="#000000">44</text>
<polyline fill="none" stroke="#000000" points="241,-218.5 331,-218.5 "/>
<text text-anchor="middle" x="286" y="-203.3" font-family="Times,serif" font-size="14.00" fill="#000000">slack: 0</text>
</g>

<g id="edge3" class="edge">
<title>C&#45;&gt;D</title>
<path fill="none" stroke="#000000" d="M205.0212,-231.9592C213.367,-231.7572 222.2207,-231.543 230.8922,-231.3333"/>
<polygon fill="#000000" stroke="#000000" points="231.0344,-234.8309 240.9468,-231.09 230.8651,-227.833 231.0344,-234.8309"/>
</g>

<g id="edge5" class="edge">
<title>D&#45;&gt;E</title>
<path fill="none" stroke="#000000" d="M315.7895,-264.6388C331.003,-282.2173 349.8714,-303.8488 367,-323 368.949,-325.1792 370.9526,-327.4064 372.9808,-329.651"/>
<polygon fill="#000000" stroke="#000000" points="370.6155,-332.2527 379.9285,-337.3044 375.7984,-327.5477 370.6155,-332.2527"/>
</g>

<g id="node6" class="node">
<title>F</title>
<polygon fill="#cd5c5c" stroke="#000000" points="892,-403.5 892,-472.5 996,-472.5 996,-403.5 892,-403.5"/>
<text text-anchor="middle" x="907" y="-457.3" font-family="Times,serif" font-size="14.00" fill="#000000">F</text>
<polyline fill="none" stroke="#000000" points="892,-449.5 922,-449.5 "/>
<text text-anchor="middle" x="907" y="-434.3" font-family="Times,serif" font-size="14.00" fill="#000000">20</text>
<polyline fill="none" stroke="#000000" points="922,-426.5 922,-472.5 "/>
<text text-anchor="middle" x="940.5" y="-457.3" font-family="Times,serif" font-size="14.00" fill="#000000">103</text>
<polyline fill="none" stroke="#000000" points="922,-449.5 959,-449.5 "/>
<text text-anchor="middle" x="940.5" y="-434.3" font-family="Times,serif" font-size="14.00" fill="#000000">103</text>
<polyline fill="none" stroke="#000000" points="959,-426.5 959,-472.5 "/>
<text text-anchor="middle" x="977.5" y="-457.3" font-family="Times,serif" font-size="14.00" fill="#000000">123</text>
<polyline fill="none" stroke="#000000" points="959,-449.5 996,-449.5 "/>
<text text-anchor="middle" x="977.5" y="-434.3" font-family="Times,serif" font-size="14.00" fill="#000000">123</text>
<polyline fill="none" stroke="#000000" points="892,-426.5 996,-426.5 "/>
<text text-anchor="middle" x="944" y="-411.3" font-family="Times,serif" font-size="14.00" fill="#000000">slack: 0</text>
</g>

<g id="edge6" class="edge">
<title>D&#45;&gt;F</title>
<path fill="none" stroke="#000000" d="M331.3377,-255.9047C420.2246,-306.5941 610.1551,-414.3834 626,-419 712.0622,-444.0752 816.6167,-445.0151 881.7504,-442.3297"/>
<polygon fill="#000000" stroke="#000000" points="882.0258,-445.8209 891.8567,-441.8707 881.7081,-438.8281 882.0258,-445.8209"/>
</g>

<g id="node7" class="node">
<title>G</title>
<polygon fill="none" stroke="#000000" points="367,-88.5 367,-157.5 457,-157.5 457,-88.5 367,-88.5"/>
<text text-anchor="middle" x="382" y="-142.3" font-family="Times,serif" font-size="14.00" fill="#000000">G</text>
<polyline fill="none" stroke="#000000" points="367,-134.5 397,-134.5 "/>
<text text-anchor="middle" x="382" y="-119.3" font-family="Times,serif" font-size="14.00" fill="#000000">20</text>
<polyline fill="none" stroke="#000000" points="397,-111.5 397,-157.5 "/>
<text text-anchor="middle" x="412" y="-142.3" font-family="Times,serif" font-size="14.00" fill="#000000">44</text>
<polyline fill="none" stroke="#000000" points="397,-134.5 427,-134.5 "/>
<text text-anchor="middle" x="412" y="-119.3" font-family="Times,serif" font-size="14.00" fill="#000000">50</text>
<polyline fill="none" stroke="#000000" points="427,-111.5 427,-157.5 "/>
<text text-anchor="middle" x="442" y="-142.3" font-family="Times,serif" font-size="14.00" fill="#000000">64</text>
<polyline fill="none" stroke="#000000" points="427,-134.5 457,-134.5 "/>
<text text-anchor="middle" x="442" y="-119.3" font-family="Times,serif" font-size="14.00" fill="#000000">70</text>
<polyline fill="none" stroke="#000000" points="367,-111.5 457,-111.5 "/>
<text text-anchor="middle" x="412" y="-96.3" font-family="Times,serif" font-size="14.00" fill="#000000">slack: 6</text>
</g>

<g id="edge9" class="edge">
<title>D&#45;&gt;G</title>
<path fill="none" stroke="#000000" d="M326.9086,-195.2602C338.5799,-185.3488 351.4094,-174.454 363.4877,-164.197"/>
<polygon fill="#000000" stroke="#000000" points="365.9398,-166.7064 371.2967,-157.5655 361.4087,-161.3707 365.9398,-166.7064"/>
</g>

<g id="node9" class="node">
<title>I</title>
<polygon fill="none" stroke="#000000" points="493,-.5 493,-69.5 590,-69.5 590,-.5 493,-.5"/>
<text text-anchor="middle" x="508" y="-54.3" font-family="Times,serif" font-size="14.00" fill="#000000">I</text>
<polyline fill="none" stroke="#000000" points="493,-46.5 523,-46.5 "/>
<text text-anchor="middle" x="508" y="-31.3" font-family="Times,serif" font-size="14.00" fill="#000000">18</text>
<polyline fill="none" stroke="#000000" points="523,-23.5 523,-69.5 "/>
<text text-anchor="middle" x="538" y="-54.3" font-family="Times,serif" font-size="14.00" fill="#000000">44</text>
<polyline fill="none" stroke="#000000" points="523,-46.5 553,-46.5 "/>
<text text-anchor="middle" x="538" y="-31.3" font-family="Times,serif" font-size="14.00" fill="#000000">97</text>
<polyline fill="none" stroke="#000000" points="553,-23.5 553,-69.5 "/>
<text text-anchor="middle" x="571.5" y="-54.3" font-family="Times,serif" font-size="14.00" fill="#000000">62</text>
<polyline fill="none" stroke="#000000" points="553,-46.5 590,-46.5 "/>
<text text-anchor="middle" x="571.5" y="-31.3" font-family="Times,serif" font-size="14.00" fill="#000000">115</text>
<polyline fill="none" stroke="#000000" points="493,-23.5 590,-23.5 "/>
<text text-anchor="middle" x="541.5" y="-8.3" font-family="Times,serif" font-size="14.00" fill="#000000">slack: 53</text>
</g>

<g id="edge11" class="edge">
<title>D&#45;&gt;I</title>
<path fill="none" stroke="#000000" d="M295.5862,-195.2247C306.9397,-160.595 329.2428,-108.4684 367,-79 399.9819,-53.2586 446.2056,-42.4079 482.7934,-37.913"/>
<polygon fill="#000000" stroke="#000000" points="483.2819,-41.3805 492.8386,-36.8067 482.5155,-34.4226 483.2819,-41.3805"/>
</g>

<g id="node18" class="node">
<title>R</title>
<polygon fill="none" stroke="#000000" points="894,-214.5 894,-283.5 994,-283.5 994,-214.5 894,-214.5"/>
<text text-anchor="middle" x="907" y="-268.3" font-family="Times,serif" font-size="14.00" fill="#000000">R</text>
<polyline fill="none" stroke="#000000" points="894,-260.5 920,-260.5 "/>
<text text-anchor="middle" x="907" y="-245.3" font-family="Times,serif" font-size="14.00" fill="#000000">3</text>
<polyline fill="none" stroke="#000000" points="920,-237.5 920,-283.5 "/>
<text text-anchor="middle" x="938.5" y="-268.3" font-family="Times,serif" font-size="14.00" fill="#000000">103</text>
<polyline fill="none" stroke="#000000" points="920,-260.5 957,-260.5 "/>
<text text-anchor="middle" x="938.5" y="-245.3" font-family="Times,serif" font-size="14.00" fill="#000000">106</text>
<polyline fill="none" stroke="#000000" points="957,-237.5 957,-283.5 "/>
<text text-anchor="middle" x="975.5" y="-268.3" font-family="Times,serif" font-size="14.00" fill="#000000">106</text>
<polyline fill="none" stroke="#000000" points="957,-260.5 994,-260.5 "/>
<text text-anchor="middle" x="975.5" y="-245.3" font-family="Times,serif" font-size="14.00" fill="#000000">109</text>
<polyline fill="none" stroke="#000000" points="894,-237.5 994,-237.5 "/>
<text text-anchor="middle" x="944" y="-222.3" font-family="Times,serif" font-size="14.00" fill="#000000">slack: 3</text>
</g>

<g id="edge22" class="edge">
<title>D&#45;&gt;R</title>
<path fill="none" stroke="#000000" d="M331.2873,-217.3914C382.0473,-204.3895 467.0075,-186 541.5,-186 541.5,-186 541.5,-186 674.5,-186 755.6075,-186 778.141,-182.2758 856,-205 865.4692,-207.7637 875.1445,-211.5197 884.4509,-215.6795"/>
<polygon fill="#000000" stroke="#000000" points="883.0708,-218.8977 893.613,-219.9522 886.0293,-212.5536 883.0708,-218.8977"/>
</g>

<g id="node11" class="node">
<title>K</title>
<polygon fill="#cd5c5c" stroke="#000000" points="496.5,-252.5 496.5,-321.5 586.5,-321.5 586.5,-252.5 496.5,-252.5"/>
<text text-anchor="middle" x="511.5" y="-306.3" font-family="Times,serif" font-size="14.00" fill="#000000">K</text>
<polyline fill="none" stroke="#000000" points="496.5,-298.5 526.5,-298.5 "/>
<text text-anchor="middle" x="511.5" y="-283.3" font-family="Times,serif" font-size="14.00" fill="#000000">13</text>
<polyline fill="none" stroke="#000000" points="526.5,-275.5 526.5,-321.5 "/>
<text text-anchor="middle" x="541.5" y="-306.3" font-family="Times,serif" font-size="14.00" fill="#000000">47</text>
<polyline fill="none" stroke="#000000" points="526.5,-298.5 556.5,-298.5 "/>
<text text-anchor="middle" x="541.5" y="-283.3" font-family="Times,serif" font-size="14.00" fill="#000000">47</text>
<polyline fill="none" stroke="#000000" points="556.5,-275.5 556.5,-321.5 "/>
<text text-anchor="middle" x="571.5" y="-306.3" font-family="Times,serif" font-size="14.00" fill="#000000">60</text>
<polyline fill="none" stroke="#000000" points="556.5,-298.5 586.5,-298.5 "/>
<text text-anchor="middle" x="571.5" y="-283.3" font-family="Times,serif" font-size="14.00" fill="#000000">60</text>
<polyline fill="none" stroke="#000000" points="496.5,-275.5 586.5,-275.5 "/>
<text text-anchor="middle" x="541.5" y="-260.3" font-family="Times,serif" font-size="14.00" fill="#000000">slack: 0</text>
</g>

<g id="edge14" class="edge">
<title>E&#45;&gt;K</title>
<path fill="none" stroke="#000000" d="M454.762,-343.9323C465.2259,-337.0641 476.5591,-329.6253 487.474,-322.461"/>
<polygon fill="#000000" stroke="#000000" points="489.6739,-325.2038 496.1134,-316.7904 485.8328,-319.3517 489.6739,-325.2038"/>
</g>

<g id="node23" class="node">
<title>Z</title>
<polygon fill="#cd5c5c" stroke="#000000" points="1442,-245.5 1442,-314.5 1541,-314.5 1541,-245.5 1442,-245.5"/>
<text text-anchor="middle" x="1454.5" y="-299.3" font-family="Times,serif" font-size="14.00" fill="#000000">Z</text>
<polyline fill="none" stroke="#000000" points="1442,-291.5 1467,-291.5 "/>
<text text-anchor="middle" x="1454.5" y="-276.3" font-family="Times,serif" font-size="14.00" fill="#000000">0</text>
<polyline fill="none" stroke="#000000" points="1467,-268.5 1467,-314.5 "/>
<text text-anchor="middle" x="1485.5" y="-299.3" font-family="Times,serif" font-size="14.00" fill="#000000">123</text>
<polyline fill="none" stroke="#000000" points="1467,-291.5 1504,-291.5 "/>
<text text-anchor="middle" x="1485.5" y="-276.3" font-family="Times,serif" font-size="14.00" fill="#000000">123</text>
<polyline fill="none" stroke="#000000" points="1504,-268.5 1504,-314.5 "/>
<text text-anchor="middle" x="1522.5" y="-299.3" font-family="Times,serif" font-size="14.00" fill="#000000">123</text>
<polyline fill="none" stroke="#000000" points="1504,-291.5 1541,-291.5 "/>
<text text-anchor="middle" x="1522.5" y="-276.3" font-family="Times,serif" font-size="14.00" fill="#000000">123</text>
<polyline fill="none" stroke="#000000" points="1442,-268.5 1541,-268.5 "/>
<text text-anchor="middle" x="1491.5" y="-253.3" font-family="Times,serif" font-size="14.00" fill="#000000">slack: 0</text>
</g>

<g id="edge32" class="edge">
<title>F&#45;&gt;Z</title>
<path fill="none" stroke="#000000" d="M996.2031,-435.1096C1061.5182,-430.3759 1176.1875,-418.3538 1270,-389 1327.9744,-370.8599 1389.6502,-339.3944 1433.1578,-314.9194"/>
<polygon fill="#000000" stroke="#000000" points="1434.9146,-317.9468 1441.8842,-309.9671 1431.4596,-311.8588 1434.9146,-317.9468"/>
</g>

<g id="node8" class="node">
<title>H</title>
<polygon fill="none" stroke="#000000" points="493,-88.5 493,-157.5 590,-157.5 590,-88.5 493,-88.5"/>
<text text-anchor="middle" x="508" y="-142.3" font-family="Times,serif" font-size="14.00" fill="#000000">H</text>
<polyline fill="none" stroke="#000000" points="493,-134.5 523,-134.5 "/>
<text text-anchor="middle" x="508" y="-119.3" font-family="Times,serif" font-size="14.00" fill="#000000">45</text>
<polyline fill="none" stroke="#000000" points="523,-111.5 523,-157.5 "/>
<text text-anchor="middle" x="538" y="-142.3" font-family="Times,serif" font-size="14.00" fill="#000000">64</text>
<polyline fill="none" stroke="#000000" points="523,-134.5 553,-134.5 "/>
<text text-anchor="middle" x="538" y="-119.3" font-family="Times,serif" font-size="14.00" fill="#000000">70</text>
<polyline fill="none" stroke="#000000" points="553,-111.5 553,-157.5 "/>
<text text-anchor="middle" x="571.5" y="-142.3" font-family="Times,serif" font-size="14.00" fill="#000000">109</text>
<polyline fill="none" stroke="#000000" points="553,-134.5 590,-134.5 "/>
<text text-anchor="middle" x="571.5" y="-119.3" font-family="Times,serif" font-size="14.00" fill="#000000">115</text>
<polyline fill="none" stroke="#000000" points="493,-111.5 590,-111.5 "/>
<text text-anchor="middle" x="541.5" y="-96.3" font-family="Times,serif" font-size="14.00" fill="#000000">slack: 6</text>
</g>

<g id="edge10" class="edge">
<title>G&#45;&gt;H</title>
<path fill="none" stroke="#000000" d="M457.2928,-123C465.4858,-123 474.1369,-123 482.6508,-123"/>
<polygon fill="#000000" stroke="#000000" points="482.9279,-126.5001 492.9278,-123 482.9278,-119.5001 482.9279,-126.5001"/>
</g>

<g id="node10" class="node">
<title>J</title>
<polygon fill="none" stroke="#000000" points="626,-.5 626,-69.5 723,-69.5 723,-.5 626,-.5"/>
<text text-anchor="middle" x="637.5" y="-54.3" font-family="Times,serif" font-size="14.00" fill="#000000">J</text>
<polyline fill="none" stroke="#000000" points="626,-46.5 649,-46.5 "/>
<text text-anchor="middle" x="637.5" y="-31.3" font-family="Times,serif" font-size="14.00" fill="#000000">7</text>
<polyline fill="none" stroke="#000000" points="649,-23.5 649,-69.5 "/>
<text text-anchor="middle" x="667.5" y="-54.3" font-family="Times,serif" font-size="14.00" fill="#000000">109</text>
<polyline fill="none" stroke="#000000" points="649,-46.5 686,-46.5 "/>
<text text-anchor="middle" x="667.5" y="-31.3" font-family="Times,serif" font-size="14.00" fill="#000000">115</text>
<polyline fill="none" stroke="#000000" points="686,-23.5 686,-69.5 "/>
<text text-anchor="middle" x="704.5" y="-54.3" font-family="Times,serif" font-size="14.00" fill="#000000">116</text>
<polyline fill="none" stroke="#000000" points="686,-46.5 723,-46.5 "/>
<text text-anchor="middle" x="704.5" y="-31.3" font-family="Times,serif" font-size="14.00" fill="#000000">122</text>
<polyline fill="none" stroke="#000000" points="626,-23.5 723,-23.5 "/>
<text text-anchor="middle" x="674.5" y="-8.3" font-family="Times,serif" font-size="14.00" fill="#000000">slack: 6</text>
</g>

<g id="edge12" class="edge">
<title>H&#45;&gt;J</title>
<path fill="none" stroke="#000000" d="M590.2691,-90.7317C599.0335,-84.9327 608.2411,-78.8405 617.2201,-72.8995"/>
<polygon fill="#000000" stroke="#000000" points="619.3284,-75.7014 625.7368,-67.2644 615.4657,-69.8635 619.3284,-75.7014"/>
</g>

<g id="edge13" class="edge">
<title>I&#45;&gt;J</title>
<path fill="none" stroke="#000000" d="M590.2691,-35C598.4913,-35 607.1037,-35 615.5514,-35"/>
<polygon fill="#000000" stroke="#000000" points="615.7368,-38.5001 625.7368,-35 615.7368,-31.5001 615.7368,-38.5001"/>
</g>

<g id="node22" class="node">
<title>V</title>
<polygon fill="none" stroke="#000000" points="1306,-126.5 1306,-195.5 1406,-195.5 1406,-126.5 1306,-126.5"/>
<text text-anchor="middle" x="1319" y="-180.3" font-family="Times,serif" font-size="14.00" fill="#000000">V</text>
<polyline fill="none" stroke="#000000" points="1306,-172.5 1332,-172.5 "/>
<text text-anchor="middle" x="1319" y="-157.3" font-family="Times,serif" font-size="14.00" fill="#000000">1</text>
<polyline fill="none" stroke="#000000" points="1332,-149.5 1332,-195.5 "/>
<text text-anchor="middle" x="1350.5" y="-180.3" font-family="Times,serif" font-size="14.00" fill="#000000">119</text>
<polyline fill="none" stroke="#000000" points="1332,-172.5 1369,-172.5 "/>
<text text-anchor="middle" x="1350.5" y="-157.3" font-family="Times,serif" font-size="14.00" fill="#000000">122</text>
<polyline fill="none" stroke="#000000" points="1369,-149.5 1369,-195.5 "/>
<text text-anchor="middle" x="1387.5" y="-180.3" font-family="Times,serif" font-size="14.00" fill="#000000">120</text>
<polyline fill="none" stroke="#000000" points="1369,-172.5 1406,-172.5 "/>
<text text-anchor="middle" x="1387.5" y="-157.3" font-family="Times,serif" font-size="14.00" fill="#000000">123</text>
<polyline fill="none" stroke="#000000" points="1306,-149.5 1406,-149.5 "/>
<text text-anchor="middle" x="1356" y="-134.3" font-family="Times,serif" font-size="14.00" fill="#000000">slack: 3</text>
</g>

<g id="edge28" class="edge">
<title>J&#45;&gt;V</title>
<path fill="none" stroke="#000000" d="M723.1858,-35C777.1594,-35 866.7995,-35 944,-35 944,-35 944,-35 1081,-35 1164.4971,-35 1250.3545,-83.6019 1303.433,-120.4352"/>
<polygon fill="#000000" stroke="#000000" points="1301.4746,-123.3368 1311.665,-126.2364 1305.507,-117.6149 1301.4746,-123.3368"/>
</g>

<g id="node12" class="node">
<title>L</title>
<polygon fill="none" stroke="#000000" points="632,-252.5 632,-321.5 717,-321.5 717,-252.5 632,-252.5"/>
<text text-anchor="middle" x="644.5" y="-306.3" font-family="Times,serif" font-size="14.00" fill="#000000">L</text>
<polyline fill="none" stroke="#000000" points="632,-298.5 657,-298.5 "/>
<text text-anchor="middle" x="644.5" y="-283.3" font-family="Times,serif" font-size="14.00" fill="#000000">5</text>
<polyline fill="none" stroke="#000000" points="657,-275.5 657,-321.5 "/>
<text text-anchor="middle" x="672" y="-306.3" font-family="Times,serif" font-size="14.00" fill="#000000">60</text>
<polyline fill="none" stroke="#000000" points="657,-298.5 687,-298.5 "/>
<text text-anchor="middle" x="672" y="-283.3" font-family="Times,serif" font-size="14.00" fill="#000000">61</text>
<polyline fill="none" stroke="#000000" points="687,-275.5 687,-321.5 "/>
<text text-anchor="middle" x="702" y="-306.3" font-family="Times,serif" font-size="14.00" fill="#000000">65</text>
<polyline fill="none" stroke="#000000" points="687,-298.5 717,-298.5 "/>
<text text-anchor="middle" x="702" y="-283.3" font-family="Times,serif" font-size="14.00" fill="#000000">66</text>
<polyline fill="none" stroke="#000000" points="632,-275.5 717,-275.5 "/>
<text text-anchor="middle" x="674.5" y="-260.3" font-family="Times,serif" font-size="14.00" fill="#000000">slack: 1</text>
</g>

<g id="edge15" class="edge">
<title>K&#45;&gt;L</title>
<path fill="none" stroke="#000000" d="M586.5277,-287C597.8353,-287 610.0707,-287 621.7189,-287"/>
<polygon fill="#000000" stroke="#000000" points="621.7661,-290.5001 631.7661,-287 621.7661,-283.5001 621.7661,-290.5001"/>
</g>

<g id="node13" class="node">
<title>M</title>
<polygon fill="none" stroke="#000000" points="759,-214.5 759,-283.5 856,-283.5 856,-214.5 759,-214.5"/>
<text text-anchor="middle" x="774" y="-268.3" font-family="Times,serif" font-size="14.00" fill="#000000">M</text>
<polyline fill="none" stroke="#000000" points="759,-260.5 789,-260.5 "/>
<text text-anchor="middle" x="774" y="-245.3" font-family="Times,serif" font-size="14.00" fill="#000000">23</text>
<polyline fill="none" stroke="#000000" points="789,-237.5 789,-283.5 "/>
<text text-anchor="middle" x="804" y="-268.3" font-family="Times,serif" font-size="14.00" fill="#000000">60</text>
<polyline fill="none" stroke="#000000" points="789,-260.5 819,-260.5 "/>
<text text-anchor="middle" x="804" y="-245.3" font-family="Times,serif" font-size="14.00" fill="#000000">80</text>
<polyline fill="none" stroke="#000000" points="819,-237.5 819,-283.5 "/>
<text text-anchor="middle" x="837.5" y="-268.3" font-family="Times,serif" font-size="14.00" fill="#000000">83</text>
<polyline fill="none" stroke="#000000" points="819,-260.5 856,-260.5 "/>
<text text-anchor="middle" x="837.5" y="-245.3" font-family="Times,serif" font-size="14.00" fill="#000000">103</text>
<polyline fill="none" stroke="#000000" points="759,-237.5 856,-237.5 "/>
<text text-anchor="middle" x="807.5" y="-222.3" font-family="Times,serif" font-size="14.00" fill="#000000">slack: 20</text>
</g>

<g id="edge16" class="edge">
<title>K&#45;&gt;M</title>
<path fill="none" stroke="#000000" d="M586.8436,-258.3478C599.0952,-252.0363 612.6656,-246.2637 626,-243 666.1362,-233.1763 712.7481,-234.984 748.6852,-239.0882"/>
<polygon fill="#000000" stroke="#000000" points="748.6454,-242.6098 758.999,-240.3618 749.5033,-235.6626 748.6454,-242.6098"/>
</g>

<g id="node15" class="node">
<title>O</title>
<polygon fill="#cd5c5c" stroke="#000000" points="631.5,-340.5 631.5,-409.5 717.5,-409.5 717.5,-340.5 631.5,-340.5"/>
<text text-anchor="middle" x="644.5" y="-394.3" font-family="Times,serif" font-size="14.00" fill="#000000">O</text>
<polyline fill="none" stroke="#000000" points="631.5,-386.5 657.5,-386.5 "/>
<text text-anchor="middle" x="644.5" y="-371.3" font-family="Times,serif" font-size="14.00" fill="#000000">6</text>
<polyline fill="none" stroke="#000000" points="657.5,-363.5 657.5,-409.5 "/>
<text text-anchor="middle" x="672.5" y="-394.3" font-family="Times,serif" font-size="14.00" fill="#000000">60</text>
<polyline fill="none" stroke="#000000" points="657.5,-386.5 687.5,-386.5 "/>
<text text-anchor="middle" x="672.5" y="-371.3" font-family="Times,serif" font-size="14.00" fill="#000000">60</text>
<polyline fill="none" stroke="#000000" points="687.5,-363.5 687.5,-409.5 "/>
<text text-anchor="middle" x="702.5" y="-394.3" font-family="Times,serif" font-size="14.00" fill="#000000">66</text>
<polyline fill="none" stroke="#000000" points="687.5,-386.5 717.5,-386.5 "/>
<text text-anchor="middle" x="702.5" y="-371.3" font-family="Times,serif" font-size="14.00" fill="#000000">66</text>
<polyline fill="none" stroke="#000000" points="631.5,-363.5 717.5,-363.5 "/>
<text text-anchor="middle" x="674.5" y="-348.3" font-family="Times,serif" font-size="14.00" fill="#000000">slack: 0</text>
</g>

<g id="edge19" class="edge">
<title>K&#45;&gt;O</title>
<path fill="none" stroke="#000000" d="M586.5277,-316.7928C598.1709,-324.4965 610.7977,-332.8511 622.7545,-340.7623"/>
<polygon fill="#000000" stroke="#000000" points="621.0476,-343.8298 631.3187,-346.4289 624.9103,-337.9919 621.0476,-343.8298"/>
</g>

<g id="node14" class="node">
<title>N</title>
<polygon fill="#cd5c5c" stroke="#000000" points="759,-340.5 759,-409.5 856,-409.5 856,-340.5 759,-340.5"/>
<text text-anchor="middle" x="774" y="-394.3" font-family="Times,serif" font-size="14.00" fill="#000000">N</text>
<polyline fill="none" stroke="#000000" points="759,-386.5 789,-386.5 "/>
<text text-anchor="middle" x="774" y="-371.3" font-family="Times,serif" font-size="14.00" fill="#000000">37</text>
<polyline fill="none" stroke="#000000" points="789,-363.5 789,-409.5 "/>
<text text-anchor="middle" x="804" y="-394.3" font-family="Times,serif" font-size="14.00" fill="#000000">66</text>
<polyline fill="none" stroke="#000000" points="789,-386.5 819,-386.5 "/>
<text text-anchor="middle" x="804" y="-371.3" font-family="Times,serif" font-size="14.00" fill="#000000">66</text>
<polyline fill="none" stroke="#000000" points="819,-363.5 819,-409.5 "/>
<text text-anchor="middle" x="837.5" y="-394.3" font-family="Times,serif" font-size="14.00" fill="#000000">103</text>
<polyline fill="none" stroke="#000000" points="819,-386.5 856,-386.5 "/>
<text text-anchor="middle" x="837.5" y="-371.3" font-family="Times,serif" font-size="14.00" fill="#000000">103</text>
<polyline fill="none" stroke="#000000" points="759,-363.5 856,-363.5 "/>
<text text-anchor="middle" x="807.5" y="-348.3" font-family="Times,serif" font-size="14.00" fill="#000000">slack: 0</text>
</g>

<g id="edge17" class="edge">
<title>L&#45;&gt;N</title>
<path fill="none" stroke="#000000" d="M717.3141,-315.3281C727.8434,-322.2949 739.2839,-329.8645 750.3699,-337.1997"/>
<polygon fill="#000000" stroke="#000000" points="748.4863,-340.1501 758.7574,-342.7493 752.349,-334.3123 748.4863,-340.1501"/>
</g>

<g id="edge7" class="edge">
<title>M&#45;&gt;F</title>
<path fill="none" stroke="#000000" d="M832.5362,-283.6655C855.1701,-315.0048 888.5757,-361.2586 912.912,-394.9551"/>
<polygon fill="#000000" stroke="#000000" points="910.1994,-397.1772 918.8918,-403.2347 915.8742,-393.0787 910.1994,-397.1772"/>
</g>

<g id="node16" class="node">
<title>P</title>
<polygon fill="none" stroke="#000000" points="1032,-63.5 1032,-132.5 1130,-132.5 1130,-63.5 1032,-63.5"/>
<text text-anchor="middle" x="1044" y="-117.3" font-family="Times,serif" font-size="14.00" fill="#000000">P</text>
<polyline fill="none" stroke="#000000" points="1032,-109.5 1056,-109.5 "/>
<text text-anchor="middle" x="1044" y="-94.3" font-family="Times,serif" font-size="14.00" fill="#000000">5</text>
<polyline fill="none" stroke="#000000" points="1056,-86.5 1056,-132.5 "/>
<text text-anchor="middle" x="1074.5" y="-117.3" font-family="Times,serif" font-size="14.00" fill="#000000">83</text>
<polyline fill="none" stroke="#000000" points="1056,-109.5 1093,-109.5 "/>
<text text-anchor="middle" x="1074.5" y="-94.3" font-family="Times,serif" font-size="14.00" fill="#000000">117</text>
<polyline fill="none" stroke="#000000" points="1093,-86.5 1093,-132.5 "/>
<text text-anchor="middle" x="1111.5" y="-117.3" font-family="Times,serif" font-size="14.00" fill="#000000">88</text>
<polyline fill="none" stroke="#000000" points="1093,-109.5 1130,-109.5 "/>
<text text-anchor="middle" x="1111.5" y="-94.3" font-family="Times,serif" font-size="14.00" fill="#000000">122</text>
<polyline fill="none" stroke="#000000" points="1032,-86.5 1130,-86.5 "/>
<text text-anchor="middle" x="1081" y="-71.3" font-family="Times,serif" font-size="14.00" fill="#000000">slack: 34</text>
</g>

<g id="edge20" class="edge">
<title>M&#45;&gt;P</title>
<path fill="none" stroke="#000000" d="M856.0812,-222.1782C902.7571,-196.4083 973.3233,-157.4486 1022.9399,-130.0551"/>
<polygon fill="#000000" stroke="#000000" points="1024.8874,-132.9779 1031.9502,-125.0805 1021.5041,-126.8499 1024.8874,-132.9779"/>
</g>

<g id="node17" class="node">
<title>Q</title>
<polygon fill="none" stroke="#000000" points="1166,-277.5 1166,-346.5 1270,-346.5 1270,-277.5 1166,-277.5"/>
<text text-anchor="middle" x="1181" y="-331.3" font-family="Times,serif" font-size="14.00" fill="#000000">Q</text>
<polyline fill="none" stroke="#000000" points="1166,-323.5 1196,-323.5 "/>
<text text-anchor="middle" x="1181" y="-308.3" font-family="Times,serif" font-size="14.00" fill="#000000">20</text>
<polyline fill="none" stroke="#000000" points="1196,-300.5 1196,-346.5 "/>
<text text-anchor="middle" x="1214.5" y="-331.3" font-family="Times,serif" font-size="14.00" fill="#000000">83</text>
<polyline fill="none" stroke="#000000" points="1196,-323.5 1233,-323.5 "/>
<text text-anchor="middle" x="1214.5" y="-308.3" font-family="Times,serif" font-size="14.00" fill="#000000">103</text>
<polyline fill="none" stroke="#000000" points="1233,-300.5 1233,-346.5 "/>
<text text-anchor="middle" x="1251.5" y="-331.3" font-family="Times,serif" font-size="14.00" fill="#000000">103</text>
<polyline fill="none" stroke="#000000" points="1233,-323.5 1270,-323.5 "/>
<text text-anchor="middle" x="1251.5" y="-308.3" font-family="Times,serif" font-size="14.00" fill="#000000">123</text>
<polyline fill="none" stroke="#000000" points="1166,-300.5 1270,-300.5 "/>
<text text-anchor="middle" x="1218" y="-285.3" font-family="Times,serif" font-size="14.00" fill="#000000">slack: 20</text>
</g>

<g id="edge21" class="edge">
<title>M&#45;&gt;Q</title>
<path fill="none" stroke="#000000" d="M856.1073,-278.7112C867.5121,-284.4216 879.8823,-289.6574 892,-293 981.0986,-317.577 1088.9258,-318.5567 1155.4937,-316.0269"/>
<polygon fill="#000000" stroke="#000000" points="1155.9696,-319.5101 1165.814,-315.5938 1155.676,-312.5162 1155.9696,-319.5101"/>
</g>

<g id="edge23" class="edge">
<title>M&#45;&gt;R</title>
<path fill="none" stroke="#000000" d="M856.0091,-249C864.9172,-249 874.3163,-249 883.5241,-249"/>
<polygon fill="#000000" stroke="#000000" points="883.8024,-252.5001 893.8024,-249 883.8023,-245.5001 883.8024,-252.5001"/>
</g>

<g id="edge8" class="edge">
<title>N&#45;&gt;F</title>
<path fill="none" stroke="#000000" d="M856.0091,-397.3888C864.6538,-401.3787 873.7609,-405.5819 882.7068,-409.7108"/>
<polygon fill="#000000" stroke="#000000" points="881.3986,-412.9618 891.9449,-413.9746 884.332,-406.6061 881.3986,-412.9618"/>
</g>

<g id="edge24" class="edge">
<title>N&#45;&gt;R</title>
<path fill="none" stroke="#000000" d="M845.1606,-340.2364C861.7211,-324.9498 881.3112,-306.8666 898.6652,-290.8475"/>
<polygon fill="#000000" stroke="#000000" points="901.4883,-293.0048 906.4623,-283.6501 896.7403,-287.8612 901.4883,-293.0048"/>
</g>

<g id="edge29" class="edge">
<title>N&#45;&gt;V</title>
<path fill="none" stroke="#000000" d="M856.0983,-380.0786C961.8077,-390.0321 1208.1196,-406.9584 1270,-356 1323.2578,-312.1422 1270.4346,-264.1185 1306,-205 1306.2459,-204.5913 1306.4968,-204.1843 1306.7526,-203.7791"/>
<polygon fill="#000000" stroke="#000000" points="1309.6888,-205.6929 1312.7561,-195.5518 1304.0342,-201.5667 1309.6888,-205.6929"/>
</g>

<g id="edge18" class="edge">
<title>O&#45;&gt;N</title>
<path fill="none" stroke="#000000" d="M717.6813,-375C727.4659,-375 738.0217,-375 748.339,-375"/>
<polygon fill="#000000" stroke="#000000" points="748.5394,-378.5001 758.5394,-375 748.5393,-371.5001 748.5394,-378.5001"/>
</g>

<g id="edge30" class="edge">
<title>P&#45;&gt;V</title>
<path fill="none" stroke="#000000" d="M1130.0638,-103.8639C1168.5166,-109.0441 1223.1667,-117.6995 1270,-130 1278.6801,-132.2798 1287.7216,-135.065 1296.5413,-138.021"/>
<polygon fill="#000000" stroke="#000000" points="1295.4023,-141.3304 1305.997,-141.2798 1297.6832,-134.7124 1295.4023,-141.3304"/>
</g>

<g id="edge33" class="edge">
<title>Q&#45;&gt;Z</title>
<path fill="none" stroke="#000000" d="M1270.3502,-307.4188C1308.1106,-303.9416 1360.273,-298.7833 1406,-293 1414.3509,-291.9438 1423.1446,-290.7268 1431.7868,-289.47"/>
<polygon fill="#000000" stroke="#000000" points="1432.4471,-292.9105 1441.8266,-287.9836 1431.4219,-285.9859 1432.4471,-292.9105"/>
</g>

<g id="node19" class="node">
<title>S</title>
<polygon fill="none" stroke="#000000" points="1032,-151.5 1032,-220.5 1130,-220.5 1130,-151.5 1032,-151.5"/>
<text text-anchor="middle" x="1044" y="-205.3" font-family="Times,serif" font-size="14.00" fill="#000000">S</text>
<polyline fill="none" stroke="#000000" points="1032,-197.5 1056,-197.5 "/>
<text text-anchor="middle" x="1044" y="-182.3" font-family="Times,serif" font-size="14.00" fill="#000000">9</text>
<polyline fill="none" stroke="#000000" points="1056,-174.5 1056,-220.5 "/>
<text text-anchor="middle" x="1074.5" y="-205.3" font-family="Times,serif" font-size="14.00" fill="#000000">106</text>
<polyline fill="none" stroke="#000000" points="1056,-197.5 1093,-197.5 "/>
<text text-anchor="middle" x="1074.5" y="-182.3" font-family="Times,serif" font-size="14.00" fill="#000000">109</text>
<polyline fill="none" stroke="#000000" points="1093,-174.5 1093,-220.5 "/>
<text text-anchor="middle" x="1111.5" y="-205.3" font-family="Times,serif" font-size="14.00" fill="#000000">115</text>
<polyline fill="none" stroke="#000000" points="1093,-197.5 1130,-197.5 "/>
<text text-anchor="middle" x="1111.5" y="-182.3" font-family="Times,serif" font-size="14.00" fill="#000000">118</text>
<polyline fill="none" stroke="#000000" points="1032,-174.5 1130,-174.5 "/>
<text text-anchor="middle" x="1081" y="-159.3" font-family="Times,serif" font-size="14.00" fill="#000000">slack: 3</text>
</g>

<g id="edge25" class="edge">
<title>R&#45;&gt;S</title>
<path fill="none" stroke="#000000" d="M994.2358,-225.8989C1003.3998,-221.6848 1013.0343,-217.2543 1022.4153,-212.9404"/>
<polygon fill="#000000" stroke="#000000" points="1024.0619,-216.0356 1031.685,-208.6777 1021.1373,-209.6758 1024.0619,-216.0356"/>
</g>

<g id="node21" class="node">
<title>U</title>
<polygon fill="none" stroke="#000000" points="1306,-214.5 1306,-283.5 1406,-283.5 1406,-214.5 1306,-214.5"/>
<text text-anchor="middle" x="1319" y="-268.3" font-family="Times,serif" font-size="14.00" fill="#000000">U</text>
<polyline fill="none" stroke="#000000" points="1306,-260.5 1332,-260.5 "/>
<text text-anchor="middle" x="1319" y="-245.3" font-family="Times,serif" font-size="14.00" fill="#000000">5</text>
<polyline fill="none" stroke="#000000" points="1332,-237.5 1332,-283.5 "/>
<text text-anchor="middle" x="1350.5" y="-268.3" font-family="Times,serif" font-size="14.00" fill="#000000">106</text>
<polyline fill="none" stroke="#000000" points="1332,-260.5 1369,-260.5 "/>
<text text-anchor="middle" x="1350.5" y="-245.3" font-family="Times,serif" font-size="14.00" fill="#000000">118</text>
<polyline fill="none" stroke="#000000" points="1369,-237.5 1369,-283.5 "/>
<text text-anchor="middle" x="1387.5" y="-268.3" font-family="Times,serif" font-size="14.00" fill="#000000">111</text>
<polyline fill="none" stroke="#000000" points="1369,-260.5 1406,-260.5 "/>
<text text-anchor="middle" x="1387.5" y="-245.3" font-family="Times,serif" font-size="14.00" fill="#000000">123</text>
<polyline fill="none" stroke="#000000" points="1306,-237.5 1406,-237.5 "/>
<text text-anchor="middle" x="1356" y="-222.3" font-family="Times,serif" font-size="14.00" fill="#000000">slack: 12</text>
</g>

<g id="edge27" class="edge">
<title>R&#45;&gt;U</title>
<path fill="none" stroke="#000000" d="M994.1074,-249C1070.0968,-249 1214.242,-249 1295.8075,-249"/>
<polygon fill="#000000" stroke="#000000" points="1295.9195,-252.5001 1305.9195,-249 1295.9195,-245.5001 1295.9195,-252.5001"/>
</g>

<g id="node20" class="node">
<title>T</title>
<polygon fill="none" stroke="#000000" points="1168.5,-139.5 1168.5,-208.5 1267.5,-208.5 1267.5,-139.5 1168.5,-139.5"/>
<text text-anchor="middle" x="1181" y="-193.3" font-family="Times,serif" font-size="14.00" fill="#000000">T</text>
<polyline fill="none" stroke="#000000" points="1168.5,-185.5 1193.5,-185.5 "/>
<text text-anchor="middle" x="1181" y="-170.3" font-family="Times,serif" font-size="14.00" fill="#000000">4</text>
<polyline fill="none" stroke="#000000" points="1193.5,-162.5 1193.5,-208.5 "/>
<text text-anchor="middle" x="1212" y="-193.3" font-family="Times,serif" font-size="14.00" fill="#000000">115</text>
<polyline fill="none" stroke="#000000" points="1193.5,-185.5 1230.5,-185.5 "/>
<text text-anchor="middle" x="1212" y="-170.3" font-family="Times,serif" font-size="14.00" fill="#000000">118</text>
<polyline fill="none" stroke="#000000" points="1230.5,-162.5 1230.5,-208.5 "/>
<text text-anchor="middle" x="1249" y="-193.3" font-family="Times,serif" font-size="14.00" fill="#000000">119</text>
<polyline fill="none" stroke="#000000" points="1230.5,-185.5 1267.5,-185.5 "/>
<text text-anchor="middle" x="1249" y="-170.3" font-family="Times,serif" font-size="14.00" fill="#000000">122</text>
<polyline fill="none" stroke="#000000" points="1168.5,-162.5 1267.5,-162.5 "/>
<text text-anchor="middle" x="1218" y="-147.3" font-family="Times,serif" font-size="14.00" fill="#000000">slack: 3</text>
</g>

<g id="edge26" class="edge">
<title>S&#45;&gt;T</title>
<path fill="none" stroke="#000000" d="M1130.0732,-181.7016C1139.2074,-180.9015 1148.8441,-180.0574 1158.2566,-179.233"/>
<polygon fill="#000000" stroke="#000000" points="1158.6912,-182.7084 1168.3477,-178.3491 1158.0804,-175.7351 1158.6912,-182.7084"/>
</g>

<g id="edge31" class="edge">
<title>T&#45;&gt;V</title>
<path fill="none" stroke="#000000" d="M1267.8212,-169.3067C1276.8926,-168.4521 1286.4445,-167.5523 1295.7786,-166.673"/>
<polygon fill="#000000" stroke="#000000" points="1296.1608,-170.1526 1305.7885,-165.7301 1295.5042,-163.1835 1296.1608,-170.1526"/>
</g>

<g id="edge34" class="edge">
<title>U&#45;&gt;Z</title>
<path fill="none" stroke="#000000" d="M1406.0702,-260.4552C1414.4148,-262.3643 1423.1441,-264.3614 1431.7018,-266.3192"/>
<polygon fill="#000000" stroke="#000000" points="1431.1068,-269.7735 1441.6356,-268.5919 1432.668,-262.9498 1431.1068,-269.7735"/>
</g>

<g id="edge35" class="edge">
<title>V&#45;&gt;Z</title>
<path fill="none" stroke="#000000" d="M1395.5565,-195.7396C1410.862,-209.1814 1428.5041,-224.6752 1444.4529,-238.6819"/>
<polygon fill="#000000" stroke="#000000" points="1442.3053,-241.4539 1452.1286,-245.4229 1446.9244,-236.1943 1442.3053,-241.4539"/>
</g>
</g>
</svg>
