<?xml version="1.0" encoding="UTF-8" standalone="no"?>
<!DOCTYPE svg PUBLIC "-//W3C//DTD SVG 1.1//EN"
 "http://www.w3.org/Graphics/SVG/1.1/DTD/svg11.dtd">


<svg width="1580pt" height="481pt"
 viewBox="0.00 0.00 1580.00 481.00" xmlns="http://www.w3.org/2000/svg" xmlns:xlink="http://www.w3.org/1999/xlink">
<g id="graph0" class="graph" transform="scale(1 1) rotate(0) translate(4 477)">
<title>structs</title>
<polygon fill="#ffffff" stroke="transparent" points="-4,4 -4,-477 1576,-477 1576,4 -4,4"/>

<g id="node1" class="node">
<title>A</title>
<polygon fill="none" stroke="#000000" points="0,-198.5 0,-267.5 83,-267.5 83,-198.5 0,-198.5"/>
<text text-anchor="middle" x="15" y="-252.3" font-family="Times,serif" font-size="14.00" fill="#000000">A</text>
<polyline fill="none" stroke="#000000" points="0,-244.5 30,-244.5 "/>
<text text-anchor="middle" x="15" y="-229.3" font-family="Times,serif" font-size="14.00" fill="#000000">10</text>
<polyline fill="none" stroke="#000000" points="30,-221.5 30,-267.5 "/>
<text text-anchor="middle" x="41.5" y="-252.3" font-family="Times,serif" font-size="14.00" fill="#000000">0</text>
<polyline fill="none" stroke="#000000" points="30,-244.5 53,-244.5 "/>
<text text-anchor="middle" x="41.5" y="-229.3" font-family="Times,serif" font-size="14.00" fill="#000000">4</text>
<polyline fill="none" stroke="#000000" points="53,-221.5 53,-267.5 "/>
<text text-anchor="middle" x="68" y="-252.3" font-family="Times,serif" font-size="14.00" fill="#000000">10</text>
<polyline fill="none" stroke="#000000" points="53,-244.5 83,-244.5 "/>
<text text-anchor="middle" x="68" y="-229.3" font-family="Times,serif" font-size="14.00" fill="#000000">14</text>
<polyline fill="none" stroke="#000000" points="0,-221.5 83,-221.5 "/>
<text text-anchor="middle" x="41.5" y="-206.3" font-family="Times,serif" font-size="14.00" fill="#000000">slack: 4</text>
</g>

<g id="node3" class="node">
<title>C</title>
<polygon fill="#cd5c5c" stroke="#000000" points="119,-198.5 119,-267.5 205,-267.5 205,-198.5 119,-198.5"/>
<text text-anchor="middle" x="132" y="-252.3" font-family="Times,serif" font-size="14.00" fill="#000000">C</text>
<polyline fill="none" stroke="#000000" points="119,-244.5 145,-244.5 "/>
<text text-anchor="middle" x="132" y="-229.3" font-family="Times,serif" font-size="14.00" fill="#000000">4</text>
<polyline fill="none" stroke="#000000" points="145,-221.5 145,-267.5 "/>
<text text-anchor="middle" x="160" y="-252.3" font-family="Times,serif" font-size="14.00" fill="#000000">14</text>
<polyline fill="none" stroke="#000000" points="145,-244.5 175,-244.5 "/>
<text text-anchor="middle" x="160" y="-229.3" font-family="Times,serif" font-size="14.00" fill="#000000">14</text>
<polyline fill="none" stroke="#000000" points="175,-221.5 175,-267.5 "/>
<text text-anchor="middle" x="190" y="-252.3" font-family="Times,serif" font-size="14.00" fill="#000000">18</text>
<polyline fill="none" stroke="#000000" points="175,-244.5 205,-244.5 "/>
<text text-anchor="middle" x="190" y="-229.3" font-family="Times,serif" font-size="14.00" fill="#000000">18</text>
<polyline fill="none" stroke="#000000" points="119,-221.5 205,-221.5 "/>
<text text-anchor="middle" x="162" y="-206.3" font-family="Times,serif" font-size="14.00" fill="#000000">slack: 0</text>
</g>

<g id="edge1" class="edge">
<title>A&#45;&gt;C</title>
<path fill="none" stroke="#000000" d="M83.3069,-233C91.4257,-233 100.0389,-233 108.4741,-233"/>
<polygon fill="#000000" stroke="#000000" points="108.6298,-236.5001 118.6297,-233 108.6297,-229.5001 108.6298,-236.5001"/>
</g>

<g id="node2" class="node">
<title>B</title>
<polygon fill="#cd5c5c" stroke="#000000" points="0,-292.5 0,-361.5 83,-361.5 83,-292.5 0,-292.5"/>
<text text-anchor="middle" x="15" y="-346.3" font-family="Times,serif" font-size="14.00" fill="#000000">B</text>
<polyline fill="none" stroke="#000000" points="0,-338.5 30,-338.5 "/>
<text text-anchor="middle" x="15" y="-323.3" font-family="Times,serif" font-size="14.00" fill="#000000">14</text>
<polyline fill="none" stroke="#000000" points="30,-315.5 30,-361.5 "/>
<text text-anchor="middle" x="41.5" y="-346.3" font-family="Times,serif" font-size="14.00" fill="#000000">0</text>
<polyline fill="none" stroke="#000000" points="30,-338.5 53,-338.5 "/>
<text text-anchor="middle" x="41.5" y="-323.3" font-family="Times,serif" font-size="14.00" fill="#000000">0</text>
<polyline fill="none" stroke="#000000" points="53,-315.5 53,-361.5 "/>
<text text-anchor="middle" x="68" y="-346.3" font-family="Times,serif" font-size="14.00" fill="#000000">14</text>
<polyline fill="none" stroke="#000000" points="53,-338.5 83,-338.5 "/>
<text text-anchor="middle" x="68" y="-323.3" font-family="Times,serif" font-size="14.00" fill="#000000">14</text>
<polyline fill="none" stroke="#000000" points="0,-315.5 83,-315.5 "/>
<text text-anchor="middle" x="41.5" y="-300.3" font-family="Times,serif" font-size="14.00" fill="#000000">slack: 0</text>
</g>

<g id="edge2" class="edge">
<title>B&#45;&gt;C</title>
<path fill="none" stroke="#000000" d="M83.3069,-294.3872C92.1394,-287.4971 101.5571,-280.1504 110.6942,-273.0228"/>
<polygon fill="#000000" stroke="#000000" points="112.8978,-275.7428 118.6297,-266.8324 108.5923,-270.2235 112.8978,-275.7428"/>
</g>

<g id="node5" class="node">
<title>E</title>
<polygon fill="#cd5c5c" stroke="#000000" points="374,-337.5 374,-406.5 464,-406.5 464,-337.5 374,-337.5"/>
<text text-anchor="middle" x="389" y="-391.3" font-family="Times,serif" font-size="14.00" fill="#000000">E</text>
<polyline fill="none" stroke="#000000" points="374,-383.5 404,-383.5 "/>
<text text-anchor="middle" x="389" y="-368.3" font-family="Times,serif" font-size="14.00" fill="#000000">15</text>
<polyline fill="none" stroke="#000000" points="404,-360.5 404,-406.5 "/>
<text text-anchor="middle" x="419" y="-391.3" font-family="Times,serif" font-size="14.00" fill="#000000">44</text>
<polyline fill="none" stroke="#000000" points="404,-383.5 434,-383.5 "/>
<text text-anchor="middle" x="419" y="-368.3" font-family="Times,serif" font-size="14.00" fill="#000000">44</text>
<polyline fill="none" stroke="#000000" points="434,-360.5 434,-406.5 "/>
<text text-anchor="middle" x="449" y="-391.3" font-family="Times,serif" font-size="14.00" fill="#000000">59</text>
<polyline fill="none" stroke="#000000" points="434,-383.5 464,-383.5 "/>
<text text-anchor="middle" x="449" y="-368.3" font-family="Times,serif" font-size="14.00" fill="#000000">59</text>
<polyline fill="none" stroke="#000000" points="374,-360.5 464,-360.5 "/>
<text text-anchor="middle" x="419" y="-345.3" font-family="Times,serif" font-size="14.00" fill="#000000">slack: 0</text>
</g>

<g id="edge4" class="edge">
<title>B&#45;&gt;E</title>
<path fill="none" stroke="#000000" d="M83.3415,-331.9877C151.6367,-340.1289 287.0857,-356.2751 363.3893,-365.3709"/>
<polygon fill="#000000" stroke="#000000" points="363.4064,-368.8976 373.7504,-366.606 364.235,-361.9469 363.4064,-368.8976"/>
</g>

<g id="node4" class="node">
<title>D</title>
<polygon fill="#cd5c5c" stroke="#000000" points="241,-195.5 241,-264.5 331,-264.5 331,-195.5 241,-195.5"/>
<text text-anchor="middle" x="256" y="-249.3" font-family="Times,serif" font-size="14.00" fill="#000000">D</text>
<polyline fill="none" stroke="#000000" points="241,-241.5 271,-241.5 "/>
<text text-anchor="middle" x="256" y="-226.3" font-family="Times,serif" font-size="14.00" fill="#000000">26</text>
<polyline fill="none" stroke="#000000" points="271,-218.5 271,-264.5 "/>
<text text-anchor="middle" x="286" y="-249.3" font-family="Times,serif" font-size="14.00" fill="#000000">18</text>
<polyline fill="none" stroke="#000000" points="271,-241.5 301,-241.5 "/>
<text text-anchor="middle" x="286" y="-226.3" font-family="Times,serif" font-size="14.00" fill="#000000">18</text>
<polyline fill="none" stroke="#000000" points="301,-218.5 301,-264.5 "/>
<text text-anchor="middle" x="316" y="-249.3" font-family="Times,serif" font-size="14.00" fill="#000000">44</text>
<polyline fill="none" stroke="#000000" points="301,-241.5 331,-241.5 "/>
<text text-anchor="middle" x="316" y="-226.3" font-family="Times,serif" font-size="14.00" fill="#000000">44</text>
<polyline fill="none" stroke="#000000" points="241,-218.5 331,-218.5 "/>
<text text-anchor="middle" x="286" y="-203.3" font-family="Times,serif" font-size="14.00" fill="#000000">slack: 0</text>
</g>

<g id="edge3" class="edge">
<title>C&#45;&gt;D</title>
<path fill="none" stroke="#000000" d="M205.0212,-231.9592C213.367,-231.7572 222.2207,-231.543 230.8922,-231.3333"/>
<polygon fill="#000000" stroke="#000000" points="231.0344,-234.8309 240.9468,-231.09 230.8651,-227.833 231.0344,-234.8309"/>
</g>

<g id="edge5" class="edge">
<title>D&#45;&gt;E</title>
<path fill="none" stroke="#000000" d="M314.8377,-264.7309C329.965,-282.5275 349.0428,-304.3254 367,-323 369.2784,-325.3694 371.6423,-327.7734 374.0496,-330.1793"/>
<polygon fill="#000000" stroke="#000000" points="371.7763,-332.8526 381.3596,-337.3705 376.6854,-327.8625 371.7763,-332.8526"/>
</g>

<g id="node6" class="node">
<title>F</title>
<polygon fill="#cd5c5c" stroke="#000000" points="923,-403.5 923,-472.5 1027,-472.5 1027,-403.5 923,-403.5"/>
<text text-anchor="middle" x="938" y="-457.3" font-family="Times,serif" font-size="14.00" fill="#000000">F</text>
<polyline fill="none" stroke="#000000" points="923,-449.5 953,-449.5 "/>
<text text-anchor="middle" x="938" y="-434.3" font-family="Times,serif" font-size="14.00" fill="#000000">20</text>
<polyline fill="none" stroke="#000000" points="953,-426.5 953,-472.5 "/>
<text text-anchor="middle" x="971.5" y="-457.3" font-family="Times,serif" font-size="14.00" fill="#000000">159</text>
<polyline fill="none" stroke="#000000" points="953,-449.5 990,-449.5 "/>
<text text-anchor="middle" x="971.5" y="-434.3" font-family="Times,serif" font-size="14.00" fill="#000000">159</text>
<polyline fill="none" stroke="#000000" points="990,-426.5 990,-472.5 "/>
<text text-anchor="middle" x="1008.5" y="-457.3" font-family="Times,serif" font-size="14.00" fill="#000000">179</text>
<polyline fill="none" stroke="#000000" points="990,-449.5 1027,-449.5 "/>
<text text-anchor="middle" x="1008.5" y="-434.3" font-family="Times,serif" font-size="14.00" fill="#000000">179</text>
<polyline fill="none" stroke="#000000" points="923,-426.5 1027,-426.5 "/>
<text text-anchor="middle" x="975" y="-411.3" font-family="Times,serif" font-size="14.00" fill="#000000">slack: 0</text>
</g>

<g id="edge6" class="edge">
<title>D&#45;&gt;F</title>
<path fill="none" stroke="#000000" d="M331.1752,-253.9671C426.1561,-304.3155 638.5416,-416.6583 647,-419 736.7506,-443.8473 845.4316,-444.7295 912.3926,-442.1082"/>
<polygon fill="#000000" stroke="#000000" points="912.932,-445.5882 922.7719,-441.6605 912.6303,-438.5947 912.932,-445.5882"/>
</g>

<g id="node7" class="node">
<title>G</title>
<polygon fill="none" stroke="#000000" points="367,-88.5 367,-157.5 471,-157.5 471,-88.5 367,-88.5"/>
<text text-anchor="middle" x="382" y="-142.3" font-family="Times,serif" font-size="14.00" fill="#000000">G</text>
<polyline fill="none" stroke="#000000" points="367,-134.5 397,-134.5 "/>
<text text-anchor="middle" x="382" y="-119.3" font-family="Times,serif" font-size="14.00" fill="#000000">20</text>
<polyline fill="none" stroke="#000000" points="397,-111.5 397,-157.5 "/>
<text text-anchor="middle" x="415.5" y="-142.3" font-family="Times,serif" font-size="14.00" fill="#000000">44</text>
<polyline fill="none" stroke="#000000" points="397,-134.5 434,-134.5 "/>
<text text-anchor="middle" x="415.5" y="-119.3" font-family="Times,serif" font-size="14.00" fill="#000000">106</text>
<polyline fill="none" stroke="#000000" points="434,-111.5 434,-157.5 "/>
<text text-anchor="middle" x="452.5" y="-142.3" font-family="Times,serif" font-size="14.00" fill="#000000">64</text>
<polyline fill="none" stroke="#000000" points="434,-134.5 471,-134.5 "/>
<text text-anchor="middle" x="452.5" y="-119.3" font-family="Times,serif" font-size="14.00" fill="#000000">126</text>
<polyline fill="none" stroke="#000000" points="367,-111.5 471,-111.5 "/>
<text text-anchor="middle" x="419" y="-96.3" font-family="Times,serif" font-size="14.00" fill="#000000">slack: 62</text>
</g>

<g id="edge9" class="edge">
<title>D&#45;&gt;G</title>
<path fill="none" stroke="#000000" d="M329.1813,-195.2602C341.6183,-185.2545 355.3013,-174.2464 368.1566,-163.9041"/>
<polygon fill="#000000" stroke="#000000" points="370.4378,-166.561 376.0354,-157.5655 366.0499,-161.1069 370.4378,-166.561"/>
</g>

<g id="node9" class="node">
<title>I</title>
<polygon fill="none" stroke="#000000" points="507,-.5 507,-69.5 611,-69.5 611,-.5 507,-.5"/>
<text text-anchor="middle" x="522" y="-54.3" font-family="Times,serif" font-size="14.00" fill="#000000">I</text>
<polyline fill="none" stroke="#000000" points="507,-46.5 537,-46.5 "/>
<text text-anchor="middle" x="522" y="-31.3" font-family="Times,serif" font-size="14.00" fill="#000000">18</text>
<polyline fill="none" stroke="#000000" points="537,-23.5 537,-69.5 "/>
<text text-anchor="middle" x="555.5" y="-54.3" font-family="Times,serif" font-size="14.00" fill="#000000">44</text>
<polyline fill="none" stroke="#000000" points="537,-46.5 574,-46.5 "/>
<text text-anchor="middle" x="555.5" y="-31.3" font-family="Times,serif" font-size="14.00" fill="#000000">153</text>
<polyline fill="none" stroke="#000000" points="574,-23.5 574,-69.5 "/>
<text text-anchor="middle" x="592.5" y="-54.3" font-family="Times,serif" font-size="14.00" fill="#000000">62</text>
<polyline fill="none" stroke="#000000" points="574,-46.5 611,-46.5 "/>
<text text-anchor="middle" x="592.5" y="-31.3" font-family="Times,serif" font-size="14.00" fill="#000000">171</text>
<polyline fill="none" stroke="#000000" points="507,-23.5 611,-23.5 "/>
<text text-anchor="middle" x="559" y="-8.3" font-family="Times,serif" font-size="14.00" fill="#000000">slack: 109</text>
</g>

<g id="edge11" class="edge">
<title>D&#45;&gt;I</title>
<path fill="none" stroke="#000000" d="M295.3504,-195.3779C306.5659,-160.614 328.8067,-108.1468 367,-79 404.0913,-50.6942 456.183,-40.0621 496.7503,-36.3051"/>
<polygon fill="#000000" stroke="#000000" points="497.1147,-39.7871 506.7996,-35.4915 496.5497,-32.81 497.1147,-39.7871"/>
</g>

<g id="node18" class="node">
<title>R</title>
<polygon fill="none" stroke="#000000" points="925,-214.5 925,-283.5 1025,-283.5 1025,-214.5 925,-214.5"/>
<text text-anchor="middle" x="938" y="-268.3" font-family="Times,serif" font-size="14.00" fill="#000000">R</text>
<polyline fill="none" stroke="#000000" points="925,-260.5 951,-260.5 "/>
<text text-anchor="middle" x="938" y="-245.3" font-family="Times,serif" font-size="14.00" fill="#000000">3</text>
<polyline fill="none" stroke="#000000" points="951,-237.5 951,-283.5 "/>
<text text-anchor="middle" x="969.5" y="-268.3" font-family="Times,serif" font-size="14.00" fill="#000000">159</text>
<polyline fill="none" stroke="#000000" points="951,-260.5 988,-260.5 "/>
<text text-anchor="middle" x="969.5" y="-245.3" font-family="Times,serif" font-size="14.00" fill="#000000">162</text>
<polyline fill="none" stroke="#000000" points="988,-237.5 988,-283.5 "/>
<text text-anchor="middle" x="1006.5" y="-268.3" font-family="Times,serif" font-size="14.00" fill="#000000">162</text>
<polyline fill="none" stroke="#000000" points="988,-260.5 1025,-260.5 "/>
<text text-anchor="middle" x="1006.5" y="-245.3" font-family="Times,serif" font-size="14.00" fill="#000000">165</text>
<polyline fill="none" stroke="#000000" points="925,-237.5 1025,-237.5 "/>
<text text-anchor="middle" x="975" y="-222.3" font-family="Times,serif" font-size="14.00" fill="#000000">slack: 3</text>
</g>

<g id="edge22" class="edge">
<title>D&#45;&gt;R</title>
<path fill="none" stroke="#000000" d="M331.048,-218.2088C384.8801,-205.1755 477.8674,-186 559,-186 559,-186 559,-186 697,-186 781.8656,-186 805.4784,-181.4117 887,-205 896.4756,-207.7418 906.1543,-211.4857 915.4623,-215.64"/>
<polygon fill="#000000" stroke="#000000" points="914.0829,-218.8585 924.6255,-219.9092 917.0392,-212.5134 914.0829,-218.8585"/>
</g>

<g id="node11" class="node">
<title>K</title>
<polygon fill="#cd5c5c" stroke="#000000" points="514,-252.5 514,-321.5 604,-321.5 604,-252.5 514,-252.5"/>
<text text-anchor="middle" x="529" y="-306.3" font-family="Times,serif" font-size="14.00" fill="#000000">K</text>
<polyline fill="none" stroke="#000000" points="514,-298.5 544,-298.5 "/>
<text text-anchor="middle" x="529" y="-283.3" font-family="Times,serif" font-size="14.00" fill="#000000">10</text>
<polyline fill="none" stroke="#000000" points="544,-275.5 544,-321.5 "/>
<text text-anchor="middle" x="559" y="-306.3" font-family="Times,serif" font-size="14.00" fill="#000000">59</text>
<polyline fill="none" stroke="#000000" points="544,-298.5 574,-298.5 "/>
<text text-anchor="middle" x="559" y="-283.3" font-family="Times,serif" font-size="14.00" fill="#000000">59</text>
<polyline fill="none" stroke="#000000" points="574,-275.5 574,-321.5 "/>
<text text-anchor="middle" x="589" y="-306.3" font-family="Times,serif" font-size="14.00" fill="#000000">69</text>
<polyline fill="none" stroke="#000000" points="574,-298.5 604,-298.5 "/>
<text text-anchor="middle" x="589" y="-283.3" font-family="Times,serif" font-size="14.00" fill="#000000">69</text>
<polyline fill="none" stroke="#000000" points="514,-275.5 604,-275.5 "/>
<text text-anchor="middle" x="559" y="-260.3" font-family="Times,serif" font-size="14.00" fill="#000000">slack: 0</text>
</g>

<g id="edge14" class="edge">
<title>E&#45;&gt;K</title>
<path fill="none" stroke="#000000" d="M464.0675,-344.6376C477.0506,-336.755 491.35,-328.0732 504.8239,-319.8926"/>
<polygon fill="#000000" stroke="#000000" points="506.8055,-322.7842 513.5369,-314.6026 503.1726,-316.8006 506.8055,-322.7842"/>
</g>

<g id="node23" class="node">
<title>Z</title>
<polygon fill="#cd5c5c" stroke="#000000" points="1473,-245.5 1473,-314.5 1572,-314.5 1572,-245.5 1473,-245.5"/>
<text text-anchor="middle" x="1485.5" y="-299.3" font-family="Times,serif" font-size="14.00" fill="#000000">Z</text>
<polyline fill="none" stroke="#000000" points="1473,-291.5 1498,-291.5 "/>
<text text-anchor="middle" x="1485.5" y="-276.3" font-family="Times,serif" font-size="14.00" fill="#000000">0</text>
<polyline fill="none" stroke="#000000" points="1498,-268.5 1498,-314.5 "/>
<text text-anchor="middle" x="1516.5" y="-299.3" font-family="Times,serif" font-size="14.00" fill="#000000">179</text>
<polyline fill="none" stroke="#000000" points="1498,-291.5 1535,-291.5 "/>
<text text-anchor="middle" x="1516.5" y="-276.3" font-family="Times,serif" font-size="14.00" fill="#000000">179</text>
<polyline fill="none" stroke="#000000" points="1535,-268.5 1535,-314.5 "/>
<text text-anchor="middle" x="1553.5" y="-299.3" font-family="Times,serif" font-size="14.00" fill="#000000">179</text>
<polyline fill="none" stroke="#000000" points="1535,-291.5 1572,-291.5 "/>
<text text-anchor="middle" x="1553.5" y="-276.3" font-family="Times,serif" font-size="14.00" fill="#000000">179</text>
<polyline fill="none" stroke="#000000" points="1473,-268.5 1572,-268.5 "/>
<text text-anchor="middle" x="1522.5" y="-253.3" font-family="Times,serif" font-size="14.00" fill="#000000">slack: 0</text>
</g>

<g id="edge32" class="edge">
<title>F&#45;&gt;Z</title>
<path fill="none" stroke="#000000" d="M1027.2031,-435.1096C1092.5182,-430.3759 1207.1875,-418.3538 1301,-389 1358.9744,-370.8599 1420.6502,-339.3944 1464.1578,-314.9194"/>
<polygon fill="#000000" stroke="#000000" points="1465.9146,-317.9468 1472.8842,-309.9671 1462.4596,-311.8588 1465.9146,-317.9468"/>
</g>

<g id="node8" class="node">
<title>H</title>
<polygon fill="none" stroke="#000000" points="507,-88.5 507,-157.5 611,-157.5 611,-88.5 507,-88.5"/>
<text text-anchor="middle" x="522" y="-142.3" font-family="Times,serif" font-size="14.00" fill="#000000">H</text>
<polyline fill="none" stroke="#000000" points="507,-134.5 537,-134.5 "/>
<text text-anchor="middle" x="522" y="-119.3" font-family="Times,serif" font-size="14.00" fill="#000000">45</text>
<polyline fill="none" stroke="#000000" points="537,-111.5 537,-157.5 "/>
<text text-anchor="middle" x="555.5" y="-142.3" font-family="Times,serif" font-size="14.00" fill="#000000">64</text>
<polyline fill="none" stroke="#000000" points="537,-134.5 574,-134.5 "/>
<text text-anchor="middle" x="555.5" y="-119.3" font-family="Times,serif" font-size="14.00" fill="#000000">126</text>
<polyline fill="none" stroke="#000000" points="574,-111.5 574,-157.5 "/>
<text text-anchor="middle" x="592.5" y="-142.3" font-family="Times,serif" font-size="14.00" fill="#000000">109</text>
<polyline fill="none" stroke="#000000" points="574,-134.5 611,-134.5 "/>
<text text-anchor="middle" x="592.5" y="-119.3" font-family="Times,serif" font-size="14.00" fill="#000000">171</text>
<polyline fill="none" stroke="#000000" points="507,-111.5 611,-111.5 "/>
<text text-anchor="middle" x="559" y="-96.3" font-family="Times,serif" font-size="14.00" fill="#000000">slack: 62</text>
</g>

<g id="edge10" class="edge">
<title>G&#45;&gt;H</title>
<path fill="none" stroke="#000000" d="M471.1308,-123C479.4213,-123 488.0702,-123 496.5685,-123"/>
<polygon fill="#000000" stroke="#000000" points="496.8257,-126.5001 506.8256,-123 496.8256,-119.5001 496.8257,-126.5001"/>
</g>

<g id="node10" class="node">
<title>J</title>
<polygon fill="none" stroke="#000000" points="648.5,-.5 648.5,-69.5 745.5,-69.5 745.5,-.5 648.5,-.5"/>
<text text-anchor="middle" x="660" y="-54.3" font-family="Times,serif" font-size="14.00" fill="#000000">J</text>
<polyline fill="none" stroke="#000000" points="648.5,-46.5 671.5,-46.5 "/>
<text text-anchor="middle" x="660" y="-31.3" font-family="Times,serif" font-size="14.00" fill="#000000">7</text>
<polyline fill="none" stroke="#000000" points="671.5,-23.5 671.5,-69.5 "/>
<text text-anchor="middle" x="690" y="-54.3" font-family="Times,serif" font-size="14.00" fill="#000000">109</text>
<polyline fill="none" stroke="#000000" points="671.5,-46.5 708.5,-46.5 "/>
<text text-anchor="middle" x="690" y="-31.3" font-family="Times,serif" font-size="14.00" fill="#000000">171</text>
<polyline fill="none" stroke="#000000" points="708.5,-23.5 708.5,-69.5 "/>
<text text-anchor="middle" x="727" y="-54.3" font-family="Times,serif" font-size="14.00" fill="#000000">116</text>
<polyline fill="none" stroke="#000000" points="708.5,-46.5 745.5,-46.5 "/>
<text text-anchor="middle" x="727" y="-31.3" font-family="Times,serif" font-size="14.00" fill="#000000">178</text>
<polyline fill="none" stroke="#000000" points="648.5,-23.5 745.5,-23.5 "/>
<text text-anchor="middle" x="697" y="-8.3" font-family="Times,serif" font-size="14.00" fill="#000000">slack: 62</text>
</g>

<g id="edge12" class="edge">
<title>H&#45;&gt;J</title>
<path fill="none" stroke="#000000" d="M611.1719,-89.731C620.5219,-83.7687 630.3109,-77.5264 639.7937,-71.4794"/>
<polygon fill="#000000" stroke="#000000" points="641.8451,-74.3223 648.3949,-65.9946 638.0814,-68.4202 641.8451,-74.3223"/>
</g>

<g id="edge13" class="edge">
<title>I&#45;&gt;J</title>
<path fill="none" stroke="#000000" d="M611.1719,-35C620.0448,-35 629.3132,-35 638.34,-35"/>
<polygon fill="#000000" stroke="#000000" points="638.3949,-38.5001 648.3949,-35 638.3949,-31.5001 638.3949,-38.5001"/>
</g>

<g id="node22" class="node">
<title>V</title>
<polygon fill="none" stroke="#000000" points="1337,-126.5 1337,-195.5 1437,-195.5 1437,-126.5 1337,-126.5"/>
<text text-anchor="middle" x="1350" y="-180.3" font-family="Times,serif" font-size="14.00" fill="#000000">V</text>
<polyline fill="none" stroke="#000000" points="1337,-172.5 1363,-172.5 "/>
<text text-anchor="middle" x="1350" y="-157.3" font-family="Times,serif" font-size="14.00" fill="#000000">1</text>
<polyline fill="none" stroke="#000000" points="1363,-149.5 1363,-195.5 "/>
<text text-anchor="middle" x="1381.5" y="-180.3" font-family="Times,serif" font-size="14.00" fill="#000000">175</text>
<polyline fill="none" stroke="#000000" points="1363,-172.5 1400,-172.5 "/>
<text text-anchor="middle" x="1381.5" y="-157.3" font-family="Times,serif" font-size="14.00" fill="#000000">178</text>
<polyline fill="none" stroke="#000000" points="1400,-149.5 1400,-195.5 "/>
<text text-anchor="middle" x="1418.5" y="-180.3" font-family="Times,serif" font-size="14.00" fill="#000000">176</text>
<polyline fill="none" stroke="#000000" points="1400,-172.5 1437,-172.5 "/>
<text text-anchor="middle" x="1418.5" y="-157.3" font-family="Times,serif" font-size="14.00" fill="#000000">179</text>
<polyline fill="none" stroke="#000000" points="1337,-149.5 1437,-149.5 "/>
<text text-anchor="middle" x="1387" y="-134.3" font-family="Times,serif" font-size="14.00" fill="#000000">slack: 3</text>
</g>

<g id="edge28" class="edge">
<title>J&#45;&gt;V</title>
<path fill="none" stroke="#000000" d="M745.7121,-35C801.215,-35 894.6406,-35 975,-35 975,-35 975,-35 1112,-35 1195.4971,-35 1281.3545,-83.6019 1334.433,-120.4352"/>
<polygon fill="#000000" stroke="#000000" points="1332.4746,-123.3368 1342.665,-126.2364 1336.507,-117.6149 1332.4746,-123.3368"/>
</g>

<g id="node12" class="node">
<title>L</title>
<polygon fill="none" stroke="#000000" points="647.5,-252.5 647.5,-321.5 746.5,-321.5 746.5,-252.5 647.5,-252.5"/>
<text text-anchor="middle" x="660" y="-306.3" font-family="Times,serif" font-size="14.00" fill="#000000">L</text>
<polyline fill="none" stroke="#000000" points="647.5,-298.5 672.5,-298.5 "/>
<text text-anchor="middle" x="660" y="-283.3" font-family="Times,serif" font-size="14.00" fill="#000000">5</text>
<polyline fill="none" stroke="#000000" points="672.5,-275.5 672.5,-321.5 "/>
<text text-anchor="middle" x="691" y="-306.3" font-family="Times,serif" font-size="14.00" fill="#000000">69</text>
<polyline fill="none" stroke="#000000" points="672.5,-298.5 709.5,-298.5 "/>
<text text-anchor="middle" x="691" y="-283.3" font-family="Times,serif" font-size="14.00" fill="#000000">116</text>
<polyline fill="none" stroke="#000000" points="709.5,-275.5 709.5,-321.5 "/>
<text text-anchor="middle" x="728" y="-306.3" font-family="Times,serif" font-size="14.00" fill="#000000">74</text>
<polyline fill="none" stroke="#000000" points="709.5,-298.5 746.5,-298.5 "/>
<text text-anchor="middle" x="728" y="-283.3" font-family="Times,serif" font-size="14.00" fill="#000000">121</text>
<polyline fill="none" stroke="#000000" points="647.5,-275.5 746.5,-275.5 "/>
<text text-anchor="middle" x="697" y="-260.3" font-family="Times,serif" font-size="14.00" fill="#000000">slack: 47</text>
</g>

<g id="edge15" class="edge">
<title>K&#45;&gt;L</title>
<path fill="none" stroke="#000000" d="M604.1864,-287C614.7786,-287 626.2242,-287 637.3404,-287"/>
<polygon fill="#000000" stroke="#000000" points="637.4226,-290.5001 647.4225,-287 637.4225,-283.5001 637.4226,-290.5001"/>
</g>

<g id="node13" class="node">
<title>M</title>
<polygon fill="#cd5c5c" stroke="#000000" points="786.5,-214.5 786.5,-283.5 883.5,-283.5 883.5,-214.5 786.5,-214.5"/>
<text text-anchor="middle" x="801.5" y="-268.3" font-family="Times,serif" font-size="14.00" fill="#000000">M</text>
<polyline fill="none" stroke="#000000" points="786.5,-260.5 816.5,-260.5 "/>
<text text-anchor="middle" x="801.5" y="-245.3" font-family="Times,serif" font-size="14.00" fill="#000000">90</text>
<polyline fill="none" stroke="#000000" points="816.5,-237.5 816.5,-283.5 "/>
<text text-anchor="middle" x="831.5" y="-268.3" font-family="Times,serif" font-size="14.00" fill="#000000">69</text>
<polyline fill="none" stroke="#000000" points="816.5,-260.5 846.5,-260.5 "/>
<text text-anchor="middle" x="831.5" y="-245.3" font-family="Times,serif" font-size="14.00" fill="#000000">69</text>
<polyline fill="none" stroke="#000000" points="846.5,-237.5 846.5,-283.5 "/>
<text text-anchor="middle" x="865" y="-268.3" font-family="Times,serif" font-size="14.00" fill="#000000">159</text>
<polyline fill="none" stroke="#000000" points="846.5,-260.5 883.5,-260.5 "/>
<text text-anchor="middle" x="865" y="-245.3" font-family="Times,serif" font-size="14.00" fill="#000000">159</text>
<polyline fill="none" stroke="#000000" points="786.5,-237.5 883.5,-237.5 "/>
<text text-anchor="middle" x="835" y="-222.3" font-family="Times,serif" font-size="14.00" fill="#000000">slack: 0</text>
</g>

<g id="edge16" class="edge">
<title>K&#45;&gt;M</title>
<path fill="none" stroke="#000000" d="M604.0527,-259.4851C617.4007,-252.7319 632.3708,-246.4535 647,-243 689.414,-232.9874 738.697,-235.0445 776.1611,-239.3084"/>
<polygon fill="#000000" stroke="#000000" points="776.0479,-242.8205 786.399,-240.5613 776.8983,-235.8724 776.0479,-242.8205"/>
</g>

<g id="node15" class="node">
<title>O</title>
<polygon fill="none" stroke="#000000" points="647,-340.5 647,-409.5 747,-409.5 747,-340.5 647,-340.5"/>
<text text-anchor="middle" x="660" y="-394.3" font-family="Times,serif" font-size="14.00" fill="#000000">O</text>
<polyline fill="none" stroke="#000000" points="647,-386.5 673,-386.5 "/>
<text text-anchor="middle" x="660" y="-371.3" font-family="Times,serif" font-size="14.00" fill="#000000">6</text>
<polyline fill="none" stroke="#000000" points="673,-363.5 673,-409.5 "/>
<text text-anchor="middle" x="691.5" y="-394.3" font-family="Times,serif" font-size="14.00" fill="#000000">69</text>
<polyline fill="none" stroke="#000000" points="673,-386.5 710,-386.5 "/>
<text text-anchor="middle" x="691.5" y="-371.3" font-family="Times,serif" font-size="14.00" fill="#000000">115</text>
<polyline fill="none" stroke="#000000" points="710,-363.5 710,-409.5 "/>
<text text-anchor="middle" x="728.5" y="-394.3" font-family="Times,serif" font-size="14.00" fill="#000000">75</text>
<polyline fill="none" stroke="#000000" points="710,-386.5 747,-386.5 "/>
<text text-anchor="middle" x="728.5" y="-371.3" font-family="Times,serif" font-size="14.00" fill="#000000">121</text>
<polyline fill="none" stroke="#000000" points="647,-363.5 747,-363.5 "/>
<text text-anchor="middle" x="697" y="-348.3" font-family="Times,serif" font-size="14.00" fill="#000000">slack: 46</text>
</g>

<g id="edge19" class="edge">
<title>K&#45;&gt;O</title>
<path fill="none" stroke="#000000" d="M604.1864,-315.8145C615.0857,-322.7648 626.8886,-330.2912 638.3063,-337.5721"/>
<polygon fill="#000000" stroke="#000000" points="636.6276,-340.6527 646.941,-343.0783 640.3913,-334.7506 636.6276,-340.6527"/>
</g>

<g id="node14" class="node">
<title>N</title>
<polygon fill="none" stroke="#000000" points="783,-340.5 783,-409.5 887,-409.5 887,-340.5 783,-340.5"/>
<text text-anchor="middle" x="798" y="-394.3" font-family="Times,serif" font-size="14.00" fill="#000000">N</text>
<polyline fill="none" stroke="#000000" points="783,-386.5 813,-386.5 "/>
<text text-anchor="middle" x="798" y="-371.3" font-family="Times,serif" font-size="14.00" fill="#000000">38</text>
<polyline fill="none" stroke="#000000" points="813,-363.5 813,-409.5 "/>
<text text-anchor="middle" x="831.5" y="-394.3" font-family="Times,serif" font-size="14.00" fill="#000000">75</text>
<polyline fill="none" stroke="#000000" points="813,-386.5 850,-386.5 "/>
<text text-anchor="middle" x="831.5" y="-371.3" font-family="Times,serif" font-size="14.00" fill="#000000">121</text>
<polyline fill="none" stroke="#000000" points="850,-363.5 850,-409.5 "/>
<text text-anchor="middle" x="868.5" y="-394.3" font-family="Times,serif" font-size="14.00" fill="#000000">113</text>
<polyline fill="none" stroke="#000000" points="850,-386.5 887,-386.5 "/>
<text text-anchor="middle" x="868.5" y="-371.3" font-family="Times,serif" font-size="14.00" fill="#000000">159</text>
<polyline fill="none" stroke="#000000" points="783,-363.5 887,-363.5 "/>
<text text-anchor="middle" x="835" y="-348.3" font-family="Times,serif" font-size="14.00" fill="#000000">slack: 46</text>
</g>

<g id="edge17" class="edge">
<title>L&#45;&gt;N</title>
<path fill="none" stroke="#000000" d="M746.8212,-318.77C755.7141,-324.4409 765.0687,-330.4061 774.2272,-336.2463"/>
<polygon fill="#000000" stroke="#000000" points="772.613,-339.368 782.9265,-341.7937 776.3767,-333.4659 772.613,-339.368"/>
</g>

<g id="edge7" class="edge">
<title>M&#45;&gt;F</title>
<path fill="none" stroke="#000000" d="M860.6782,-283.6655C883.8924,-315.0048 918.1545,-361.2586 943.1149,-394.9551"/>
<polygon fill="#000000" stroke="#000000" points="940.4832,-397.2825 949.248,-403.2347 946.1081,-393.1158 940.4832,-397.2825"/>
</g>

<g id="node16" class="node">
<title>P</title>
<polygon fill="none" stroke="#000000" points="1063,-63.5 1063,-132.5 1161,-132.5 1161,-63.5 1063,-63.5"/>
<text text-anchor="middle" x="1075" y="-117.3" font-family="Times,serif" font-size="14.00" fill="#000000">P</text>
<polyline fill="none" stroke="#000000" points="1063,-109.5 1087,-109.5 "/>
<text text-anchor="middle" x="1075" y="-94.3" font-family="Times,serif" font-size="14.00" fill="#000000">5</text>
<polyline fill="none" stroke="#000000" points="1087,-86.5 1087,-132.5 "/>
<text text-anchor="middle" x="1105.5" y="-117.3" font-family="Times,serif" font-size="14.00" fill="#000000">159</text>
<polyline fill="none" stroke="#000000" points="1087,-109.5 1124,-109.5 "/>
<text text-anchor="middle" x="1105.5" y="-94.3" font-family="Times,serif" font-size="14.00" fill="#000000">173</text>
<polyline fill="none" stroke="#000000" points="1124,-86.5 1124,-132.5 "/>
<text text-anchor="middle" x="1142.5" y="-117.3" font-family="Times,serif" font-size="14.00" fill="#000000">164</text>
<polyline fill="none" stroke="#000000" points="1124,-109.5 1161,-109.5 "/>
<text text-anchor="middle" x="1142.5" y="-94.3" font-family="Times,serif" font-size="14.00" fill="#000000">178</text>
<polyline fill="none" stroke="#000000" points="1063,-86.5 1161,-86.5 "/>
<text text-anchor="middle" x="1112" y="-71.3" font-family="Times,serif" font-size="14.00" fill="#000000">slack: 14</text>
</g>

<g id="edge20" class="edge">
<title>M&#45;&gt;P</title>
<path fill="none" stroke="#000000" d="M883.5667,-222.525C930.9914,-196.6726 1003.2013,-157.309 1053.7035,-129.779"/>
<polygon fill="#000000" stroke="#000000" points="1055.4504,-132.813 1062.5553,-124.9536 1052.0999,-126.6669 1055.4504,-132.813"/>
</g>

<g id="node17" class="node">
<title>Q</title>
<polygon fill="#cd5c5c" stroke="#000000" points="1197,-277.5 1197,-346.5 1301,-346.5 1301,-277.5 1197,-277.5"/>
<text text-anchor="middle" x="1212" y="-331.3" font-family="Times,serif" font-size="14.00" fill="#000000">Q</text>
<polyline fill="none" stroke="#000000" points="1197,-323.5 1227,-323.5 "/>
<text text-anchor="middle" x="1212" y="-308.3" font-family="Times,serif" font-size="14.00" fill="#000000">20</text>
<polyline fill="none" stroke="#000000" points="1227,-300.5 1227,-346.5 "/>
<text text-anchor="middle" x="1245.5" y="-331.3" font-family="Times,serif" font-size="14.00" fill="#000000">159</text>
<polyline fill="none" stroke="#000000" points="1227,-323.5 1264,-323.5 "/>
<text text-anchor="middle" x="1245.5" y="-308.3" font-family="Times,serif" font-size="14.00" fill="#000000">159</text>
<polyline fill="none" stroke="#000000" points="1264,-300.5 1264,-346.5 "/>
<text text-anchor="middle" x="1282.5" y="-331.3" font-family="Times,serif" font-size="14.00" fill="#000000">179</text>
<polyline fill="none" stroke="#000000" points="1264,-323.5 1301,-323.5 "/>
<text text-anchor="middle" x="1282.5" y="-308.3" font-family="Times,serif" font-size="14.00" fill="#000000">179</text>
<polyline fill="none" stroke="#000000" points="1197,-300.5 1301,-300.5 "/>
<text text-anchor="middle" x="1249" y="-285.3" font-family="Times,serif" font-size="14.00" fill="#000000">slack: 0</text>
</g>

<g id="edge21" class="edge">
<title>M&#45;&gt;Q</title>
<path fill="none" stroke="#000000" d="M883.8694,-277.7962C896.2531,-283.8559 909.7977,-289.4747 923,-293 1012.2975,-316.8442 1120.0703,-318.0245 1186.5724,-315.7369"/>
<polygon fill="#000000" stroke="#000000" points="1187.0231,-319.2224 1196.8821,-315.3429 1186.7557,-312.2275 1187.0231,-319.2224"/>
</g>

<g id="edge23" class="edge">
<title>M&#45;&gt;R</title>
<path fill="none" stroke="#000000" d="M883.5723,-249C893.5232,-249 904.1134,-249 914.4257,-249"/>
<polygon fill="#000000" stroke="#000000" points="914.6114,-252.5001 924.6113,-249 914.6113,-245.5001 914.6114,-252.5001"/>
</g>

<g id="edge8" class="edge">
<title>N&#45;&gt;F</title>
<path fill="none" stroke="#000000" d="M887.1308,-398.4589C895.7857,-402.3536 904.8312,-406.424 913.6882,-410.4097"/>
<polygon fill="#000000" stroke="#000000" points="912.2701,-413.6096 922.8256,-414.5215 915.1427,-407.2261 912.2701,-413.6096"/>
</g>

<g id="edge24" class="edge">
<title>N&#45;&gt;R</title>
<path fill="none" stroke="#000000" d="M873.6262,-340.2364C890.7644,-324.8121 911.0661,-306.5405 928.9832,-290.4151"/>
<polygon fill="#000000" stroke="#000000" points="931.4083,-292.9414 936.4998,-283.6501 926.7255,-287.7383 931.4083,-292.9414"/>
</g>

<g id="edge29" class="edge">
<title>N&#45;&gt;V</title>
<path fill="none" stroke="#000000" d="M887.2106,-380.4382C995.4295,-390.5345 1239.2694,-406.8192 1301,-356 1354.2646,-312.1504 1301.4346,-264.1185 1337,-205 1337.2459,-204.5913 1337.4968,-204.1843 1337.7526,-203.7791"/>
<polygon fill="#000000" stroke="#000000" points="1340.6888,-205.6929 1343.7561,-195.5518 1335.0342,-201.5667 1340.6888,-205.6929"/>
</g>

<g id="edge18" class="edge">
<title>O&#45;&gt;N</title>
<path fill="none" stroke="#000000" d="M747.2115,-375C755.4299,-375 764.0331,-375 772.5045,-375"/>
<polygon fill="#000000" stroke="#000000" points="772.7375,-378.5001 782.7374,-375 772.7374,-371.5001 772.7375,-378.5001"/>
</g>

<g id="edge30" class="edge">
<title>P&#45;&gt;V</title>
<path fill="none" stroke="#000000" d="M1161.0638,-103.8639C1199.5166,-109.0441 1254.1667,-117.6995 1301,-130 1309.6801,-132.2798 1318.7216,-135.065 1327.5413,-138.021"/>
<polygon fill="#000000" stroke="#000000" points="1326.4023,-141.3304 1336.997,-141.2798 1328.6832,-134.7124 1326.4023,-141.3304"/>
</g>

<g id="edge33" class="edge">
<title>Q&#45;&gt;Z</title>
<path fill="none" stroke="#000000" d="M1301.3502,-307.4188C1339.1106,-303.9416 1391.273,-298.7833 1437,-293 1445.3509,-291.9438 1454.1446,-290.7268 1462.7868,-289.47"/>
<polygon fill="#000000" stroke="#000000" points="1463.4471,-292.9105 1472.8266,-287.9836 1462.4219,-285.9859 1463.4471,-292.9105"/>
</g>

<g id="node19" class="node">
<title>S</title>
<polygon fill="none" stroke="#000000" points="1063,-151.5 1063,-220.5 1161,-220.5 1161,-151.5 1063,-151.5"/>
<text text-anchor="middle" x="1075" y="-205.3" font-family="Times,serif" font-size="14.00" fill="#000000">S</text>
<polyline fill="none" stroke="#000000" points="1063,-197.5 1087,-197.5 "/>
<text text-anchor="middle" x="1075" y="-182.3" font-family="Times,serif" font-size="14.00" fill="#000000">9</text>
<polyline fill="none" stroke="#000000" points="1087,-174.5 1087,-220.5 "/>
<text text-anchor="middle" x="1105.5" y="-205.3" font-family="Times,serif" font-size="14.00" fill="#000000">162</text>
<polyline fill="none" stroke="#000000" points="1087,-197.5 1124,-197.5 "/>
<text text-anchor="middle" x="1105.5" y="-182.3" font-family="Times,serif" font-size="14.00" fill="#000000">165</text>
<polyline fill="none" stroke="#000000" points="1124,-174.5 1124,-220.5 "/>
<text text-anchor="middle" x="1142.5" y="-205.3" font-family="Times,serif" font-size="14.00" fill="#000000">171</text>
<polyline fill="none" stroke="#000000" points="1124,-197.5 1161,-197.5 "/>
<text text-anchor="middle" x="1142.5" y="-182.3" font-family="Times,serif" font-size="14.00" fill="#000000">174</text>
<polyline fill="none" stroke="#000000" points="1063,-174.5 1161,-174.5 "/>
<text text-anchor="middle" x="1112" y="-159.3" font-family="Times,serif" font-size="14.00" fill="#000000">slack: 3</text>
</g>

<g id="edge25" class="edge">
<title>R&#45;&gt;S</title>
<path fill="none" stroke="#000000" d="M1025.2358,-225.8989C1034.3998,-221.6848 1044.0343,-217.2543 1053.4153,-212.9404"/>
<polygon fill="#000000" stroke="#000000" points="1055.0619,-216.0356 1062.685,-208.6777 1052.1373,-209.6758 1055.0619,-216.0356"/>
</g>

<g id="node21" class="node">
<title>U</title>
<polygon fill="none" stroke="#000000" points="1337,-214.5 1337,-283.5 1437,-283.5 1437,-214.5 1337,-214.5"/>
<text text-anchor="middle" x="1350" y="-268.3" font-family="Times,serif" font-size="14.00" fill="#000000">U</text>
<polyline fill="none" stroke="#000000" points="1337,-260.5 1363,-260.5 "/>
<text text-anchor="middle" x="1350" y="-245.3" font-family="Times,serif" font-size="14.00" fill="#000000">5</text>
<polyline fill="none" stroke="#000000" points="1363,-237.5 1363,-283.5 "/>
<text text-anchor="middle" x="1381.5" y="-268.3" font-family="Times,serif" font-size="14.00" fill="#000000">162</text>
<polyline fill="none" stroke="#000000" points="1363,-260.5 1400,-260.5 "/>
<text text-anchor="middle" x="1381.5" y="-245.3" font-family="Times,serif" font-size="14.00" fill="#000000">174</text>
<polyline fill="none" stroke="#000000" points="1400,-237.5 1400,-283.5 "/>
<text text-anchor="middle" x="1418.5" y="-268.3" font-family="Times,serif" font-size="14.00" fill="#000000">167</text>
<polyline fill="none" stroke="#000000" points="1400,-260.5 1437,-260.5 "/>
<text text-anchor="middle" x="1418.5" y="-245.3" font-family="Times,serif" font-size="14.00" fill="#000000">179</text>
<polyline fill="none" stroke="#000000" points="1337,-237.5 1437,-237.5 "/>
<text text-anchor="middle" x="1387" y="-222.3" font-family="Times,serif" font-size="14.00" fill="#000000">slack: 12</text>
</g>

<g id="edge27" class="edge">
<title>R&#45;&gt;U</title>
<path fill="none" stroke="#000000" d="M1025.1074,-249C1101.0968,-249 1245.242,-249 1326.8075,-249"/>
<polygon fill="#000000" stroke="#000000" points="1326.9195,-252.5001 1336.9195,-249 1326.9195,-245.5001 1326.9195,-252.5001"/>
</g>

<g id="node20" class="node">
<title>T</title>
<polygon fill="none" stroke="#000000" points="1199.5,-139.5 1199.5,-208.5 1298.5,-208.5 1298.5,-139.5 1199.5,-139.5"/>
<text text-anchor="middle" x="1212" y="-193.3" font-family="Times,serif" font-size="14.00" fill="#000000">T</text>
<polyline fill="none" stroke="#000000" points="1199.5,-185.5 1224.5,-185.5 "/>
<text text-anchor="middle" x="1212" y="-170.3" font-family="Times,serif" font-size="14.00" fill="#000000">4</text>
<polyline fill="none" stroke="#000000" points="1224.5,-162.5 1224.5,-208.5 "/>
<text text-anchor="middle" x="1243" y="-193.3" font-family="Times,serif" font-size="14.00" fill="#000000">171</text>
<polyline fill="none" stroke="#000000" points="1224.5,-185.5 1261.5,-185.5 "/>
<text text-anchor="middle" x="1243" y="-170.3" font-family="Times,serif" font-size="14.00" fill="#000000">174</text>
<polyline fill="none" stroke="#000000" points="1261.5,-162.5 1261.5,-208.5 "/>
<text text-anchor="middle" x="1280" y="-193.3" font-family="Times,serif" font-size="14.00" fill="#000000">175</text>
<polyline fill="none" stroke="#000000" points="1261.5,-185.5 1298.5,-185.5 "/>
<text text-anchor="middle" x="1280" y="-170.3" font-family="Times,serif" font-size="14.00" fill="#000000">178</text>
<polyline fill="none" stroke="#000000" points="1199.5,-162.5 1298.5,-162.5 "/>
<text text-anchor="middle" x="1249" y="-147.3" font-family="Times,serif" font-size="14.00" fill="#000000">slack: 3</text>
</g>

<g id="edge26" class="edge">
<title>S&#45;&gt;T</title>
<path fill="none" stroke="#000000" d="M1161.0732,-181.7016C1170.2074,-180.9015 1179.8441,-180.0574 1189.2566,-179.233"/>
<polygon fill="#000000" stroke="#000000" points="1189.6912,-182.7084 1199.3477,-178.3491 1189.0804,-175.7351 1189.6912,-182.7084"/>
</g>

<g id="edge31" class="edge">
<title>T&#45;&gt;V</title>
<path fill="none" stroke="#000000" d="M1298.8212,-169.3067C1307.8926,-168.4521 1317.4445,-167.5523 1326.7786,-166.673"/>
<polygon fill="#000000" stroke="#000000" points="1327.1608,-170.1526 1336.7885,-165.7301 1326.5042,-163.1835 1327.1608,-170.1526"/>
</g>

<g id="edge34" class="edge">
<title>U&#45;&gt;Z</title>
<path fill="none" stroke="#000000" d="M1437.0702,-260.4552C1445.4148,-262.3643 1454.1441,-264.3614 1462.7018,-266.3192"/>
<polygon fill="#000000" stroke="#000000" points="1462.1068,-269.7735 1472.6356,-268.5919 1463.668,-262.9498 1462.1068,-269.7735"/>
</g>

<g id="edge35" class="edge">
<title>V&#45;&gt;Z</title>
<path fill="none" stroke="#000000" d="M1426.5565,-195.7396C1441.862,-209.1814 1459.5041,-224.6752 1475.4529,-238.6819"/>
<polygon fill="#000000" stroke="#000000" points="1473.3053,-241.4539 1483.1286,-245.4229 1477.9244,-236.1943 1473.3053,-241.4539"/>
</g>
</g>
</svg>
